<?xml version="1.0" encoding="UTF-8"?>
<svg width="737px" height="227px" viewBox="0 0 737 227" version="1.1" xmlns="http://www.w3.org/2000/svg" xmlns:xlink="http://www.w3.org/1999/xlink">
    <!-- Generator: Sketch 52.4 (67378) - http://www.bohemiancoding.com/sketch -->
    <title>mdpi/moj-logo</title>
    <desc>Created with Sketch.</desc>
    <g id="Welcome" stroke="none" stroke-width="1" fill="none" fill-rule="evenodd">
        <g id="Group-52" transform="translate(0.000000, -30.000000)" fill="#037C5A">
            <g id="moj-logo" transform="translate(0.000000, 30.000000)">
                <path d="M130.030424,0 C130.267914,0.101373488 130.504362,0.202694829 130.739769,0.303964023 C134.552107,9.54662921 138.119144,19.0546176 141.67368,28.7803713 C142.884566,32.0969113 145.9235,37.9648406 145.21728,42.2585084 L144.912605,42.6638459 C141.590871,42.5551197 139.590956,37.6713581 137.32074,36.1781328 C136.933256,36.312046 137.109811,36.1781328 136.914507,36.4822533 C136.483275,37.3403298 136.889508,41.8638088 137.117623,43.271774 C137.589478,49.2839936 138.061854,55.2967868 138.534751,61.3101536 C139.276907,73.638609 140.019584,85.9682638 140.762781,98.299118 C141.065894,103.534662 141.369527,108.77052 141.67368,114.00669 C141.740865,117.688258 141.80805,121.369826 141.875234,125.051394 C141.639307,129.984486 141.403379,134.916536 141.167452,139.847543 C139.669078,149.030604 139.031605,157.53002 136.003608,164.878033 C131.350681,176.171478 122.386998,184.390866 113.428003,191.429127 C95.8756222,205.217798 78.6051045,219.238002 52.6857348,224.668054 C46.8667628,225.888291 38.5730519,225.467465 33.3493672,224.161187 C13.9031605,219.303707 5.83084651,205.694942 2.06709985,185.146473 C1.36509837,181.31368 0.982770829,175.753782 1.66211702,171.567432 L2.06709985,164.067671 C3.31439071,156.885485 4.39934471,150.349398 6.82517935,144.611158 C7.942007,141.968877 9.77958533,136.488764 12.0896436,135.2873 C12.1907331,135.321717 12.29276,135.35457 12.3932245,135.388986 C13.2263142,137.618265 11.4557643,140.884744 10.7734494,142.583688 C8.77259678,147.567885 7.66217511,153.165328 6.52159847,158.898875 C3.29689146,175.107682 9.327417,187.416426 16.1390032,195.887683 C23.0098056,204.434031 41.1965344,209.821844 56.8364963,205.616722 C79.890675,199.418546 97.650547,188.112587 114.338902,175.519121 C119.071514,171.947583 123.361957,168.030311 127.905514,164.371166 C129.913241,162.753571 132.256892,161.085914 133.067795,158.291886 C134.177123,154.470042 133.958382,147.408315 133.270912,143.192242 C132.866241,136.099227 132.46105,129.005168 132.055338,121.910067 C131.717852,116.033429 131.380367,110.155853 131.042881,104.277338 C129.896055,88.1660452 128.748708,72.0530839 127.60084,55.9384539 C127.432097,51.750227 127.263354,47.5615308 127.094611,43.3723652 C126.893057,37.8330133 126.690982,32.2931399 126.488387,26.7527451 C125.882162,23.0263307 124.797833,20.1939743 123.957244,17.226766 C123.591635,15.9401988 124.313479,13.9485539 124.665026,12.9704875 C125.830602,9.73858179 127.994573,2.02418451 130.030424,0 Z M537.814696,1.11479549 C539.552122,1.59193922 541.339546,7.87302802 542.066078,9.82994308 C545.137823,18.0378582 548.209047,26.246347 551.27975,34.4554093 C551.978158,36.4088827 554.071819,41.7022057 552.796873,43.6772679 C549.011096,43.5546185 547.576782,38.7670678 545.001891,37.1915548 C544.901895,37.2591372 544.800337,37.3267195 544.698779,37.3949276 C544.231611,39.8618389 544.73159,43.1181493 545.103449,45.5019907 C546.072158,51.7126812 545.442497,58.4455704 546.622135,64.1484549 C547.667403,79.6181326 548.713713,95.0893225 549.761064,110.562025 C550.198546,116.337706 550.637069,122.113961 551.076633,127.89079 C551.143818,129.883843 551.211524,131.876896 551.27975,133.869949 C551.448493,136.70778 551.617236,139.545091 551.785978,142.38188 C552.093778,144.418736 552.307831,147.406751 551.987532,149.47646 C551.853163,152.752325 551.718273,156.028712 551.582862,159.30562 C550.142298,167.753411 549.240774,175.434643 546.723693,182.411892 C545.811232,184.938407 544.233174,190.732966 542.269194,191.937559 C542.133263,191.80302 541.998893,191.666916 541.864524,191.532377 C540.817693,189.598772 542.178573,182.33993 542.470748,179.979241 C543.095722,174.948113 543.356648,165.82137 542.572307,160.826223 C542.403564,156.874534 542.234821,152.922324 542.066078,148.969592 C541.695781,142.990434 541.324964,137.011275 540.953625,131.032117 C540.648951,126.473438 540.344797,121.9133 540.041164,117.351702 C539.83961,114.311749 539.637535,111.271587 539.43494,108.231217 C537.558457,96.3938283 538.452169,83.3690559 536.599122,71.7492763 C536.025709,62.2918182 535.452296,52.8334736 534.878883,43.3742425 C534.71014,38.5779833 534.541397,33.7812548 534.372654,28.9840569 C534.035169,26.8223611 533.697683,24.6604568 533.360197,22.4983438 C532.819595,20.9783673 532.279514,19.4582343 531.739953,17.9379448 C531.46184,16.3225395 532.444611,14.3535785 532.853969,13.1751117 C534.066417,9.69086742 535.535105,3.44763724 537.814696,1.11479549 Z M7.43265359,1.82409702 L7.73639071,1.82409702 C7.63780114,3.99940312 6.55675323,5.85134656 6.01536994,7.7017256 C5.14868794,10.6645535 4.5646502,13.6671173 3.99061204,16.9237406 C3.525788,19.5605464 4.46121709,23.9814004 7.12891647,23.4094537 C8.8771236,23.0339963 10.0744166,20.5359533 10.7734494,19.0518017 L11.1784323,19.0518017 L11.1784323,19.2551744 C11.4429523,20.0167271 10.8632894,21.2005129 10.6722037,21.8899465 C9.90426754,24.6628555 7.86732266,31.4747472 3.48500848,28.477033 C1.6544611,27.2255085 0.901836761,22.9554632 1.46025058,19.457765 C2.55567289,12.5925271 4.11701293,6.49228357 7.43265359,1.82409702 Z M369.356214,1.92547051 L370.063996,2.22943453 C371.346754,4.96547577 372.628992,7.70167345 373.910708,10.4380276 C376.948079,17.9026414 379.98545,25.3679332 383.022822,32.8339028 C383.908722,34.8543328 387.005465,41.9060478 385.553964,44.0819797 C381.832247,43.8917479 380.332311,38.5779312 377.555866,37.7990136 C377.488681,37.8665959 377.421497,37.9341782 377.35275,38.0023863 C377.155883,39.4514953 377.335563,41.0911489 377.555866,42.4609425 C377.858978,46.1425105 378.162611,49.8244957 378.466765,53.5068981 C379.040178,61.005616 379.614112,68.5047511 380.188567,76.0043033 C380.997908,84.6172952 381.807769,93.2311215 382.618151,101.845782 C382.819705,104.953735 383.022301,108.061687 383.225938,111.16964 C383.563424,115.493031 383.900909,119.816684 384.238395,124.140597 C384.541507,128.22891 384.84514,132.316702 385.149294,136.403973 C385.810204,140.613789 386.388304,146.600769 385.655523,151.198557 L385.655523,154.44157 C385.283663,158.596632 384.912325,162.751693 384.541507,166.906755 C382.599402,176.768768 381.152589,186.242809 378.163653,194.775078 C375.493453,202.395298 372.765444,210.597477 367.026625,215.143639 C363.247098,218.139476 357.978571,219.811826 352.853788,221.426293 C348.475849,222.807663 344.007289,224.10612 339.390297,225.481232 C337.760678,225.966198 335.227973,227.06754 333.417113,226.798462 C333.106188,225.270037 335.404528,224.246916 336.352926,223.555449 C339.929336,221.055529 343.506268,218.555608 347.083721,216.055688 C354.606839,210.591219 362.547127,204.81074 368.343757,197.612909 C370.44523,195.001916 373.079493,192.675645 374.518495,189.404473 C375.471579,187.239335 375.907498,184.615827 376.441851,182.006398 C377.840229,175.182461 377.649612,161.753602 376.543409,154.745065 C375.229402,146.419298 375.919998,137.699301 374.620053,129.612888 C372.393585,103.43673 370.166596,77.2575487 367.939086,51.0753424 C367.601601,45.8063197 367.264115,40.5366714 366.926629,35.2663972 C366.892256,33.4087176 366.858403,31.5508294 366.825071,29.6927327 C366.423526,27.3248482 366.114164,24.7820632 365.306385,22.6998393 C364.765783,21.4839832 364.225702,20.2679185 363.686142,19.0516452 C363.922069,17.5654598 364.158517,16.0792744 364.395487,14.5930891 C365.232951,11.3646251 367.332862,3.9391735 369.356214,1.92547051 Z M115.656033,2.026844 C115.924772,2.06063516 116.195073,2.09442632 116.465374,2.12806104 L116.666928,2.33143378 C117.305964,3.80197512 114.912315,8.2589669 114.338902,9.62782187 C113.248323,12.2333395 111.535896,17.3838323 109.479733,18.8498369 C104.451821,20.673621 99.4239093,22.4977181 94.3959975,24.322128 C74.6124613,32.0150929 54.808301,39.5258046 35.4753708,47.5282089 C28.0061562,50.6199439 20.8286481,53.358436 14.7217195,57.662116 C13.0838202,58.8163345 11.1967127,59.8643299 9.96364003,61.4116836 C9.32069854,62.2182911 7.84216748,63.6991576 8.24261925,65.3639981 C9.2024223,69.3554227 21.1256667,73.3540436 25.3512688,74.8898207 C27.0386973,75.5029113 30.2729351,75.8452032 31.2228948,77.2207852 C32.422219,78.9560239 33.2643708,92.7866217 31.1216491,93.8404053 C29.2951641,94.9387746 22.0514087,92.642227 20.1880502,92.1176818 C12.0913623,89.8384992 -1.61727517,84.7524599 0.345141615,73.0658801 C2.29896502,61.4329595 8.2413693,52.7503515 14.3157992,45.0961839 C21.3653441,36.2144271 32.5298707,32.8260808 43.7768938,28.0710697 C60.7708607,20.8865367 78.9689953,14.9072217 96.6224656,8.61377411 C102.965947,6.41849577 109.310469,4.2228524 115.656033,2.026844 Z M696.351724,2.5343372 C702.081168,2.41997914 705.609144,12.6335145 700.704664,15.3030164 L700.401552,15.3030164 C698.935989,14.0682309 697.826661,11.6482518 695.643941,11.2494848 C693.192483,10.8015955 691.901912,15.5392416 691.289438,17.3298603 C688.905164,24.3143059 688.505181,37.5710797 683.799131,42.0567001 L683.089786,41.9553266 C682.260134,39.9891815 682.34138,37.1469693 681.774217,35.1658059 C680.727386,31.5135444 679.118079,27.9431014 677.724388,24.6265613 C676.977545,22.84924 676.080708,19.2750424 673.877676,19.0528968 C673.208955,19.5980921 672.687102,20.5498766 671.649646,20.6744032 C669.593483,20.9212665 664.195275,16.2461965 664.765563,14.0873167 C665.41866,11.6185281 667.699813,8.19998881 669.423178,6.58818164 C679.599309,6.59584722 682.488249,20.9161039 684.608471,29.6935149 C684.675656,29.727306 684.742841,29.7610972 684.811588,29.7948884 C684.945957,29.6935149 685.080326,29.5915156 685.216258,29.4909243 C687.180237,19.2647173 688.225506,6.70832799 696.351724,2.5343372 Z M338.579394,2.93889251 L339.18718,2.93889251 C341.444897,6.23978849 342.704219,10.763424 344.147908,14.7955231 C346.67905,21.51694 349.209672,28.2391391 351.739773,34.9621203 C352.214753,36.296089 355.228688,44.1368903 353.563133,45.3999914 C351.556968,46.0959955 347.408707,40.1928671 346.071264,39.1170254 C345.68378,39.2509385 345.860335,39.1170254 345.666593,39.4209894 C344.944749,41.1969027 345.866585,47.587187 346.172822,49.4536794 C346.81342,58.3367921 347.454538,67.2208955 348.096178,76.1059897 C348.602406,82.9624669 349.108635,89.8197784 349.614863,96.6779243 C349.682048,98.9410979 349.749233,101.204271 349.816417,103.467445 C350.647632,108.629984 349.964848,114.155621 350.828874,119.580823 C350.997617,123.05954 351.16636,126.538622 351.335103,130.018069 C351.802271,132.985746 351.81477,137.197127 351.335103,140.152289 C350.733566,143.870881 351.280418,147.235918 350.62732,150.69169 C349.114884,158.699883 347.630572,165.894584 344.654136,172.277359 C341.554268,178.924519 336.77947,185.764101 329.975071,188.694233 C327.561111,189.732998 323.784709,190.585599 320.255171,190.011462 L312.35863,189.504595 C306.443256,188.38448 302.10594,186.693358 297.882682,184.032304 C293.515679,181.283643 289.61272,177.876367 285.633201,174.71001 C285.066038,174.257897 282.502084,171.493592 281.886485,171.568684 C279.389716,173.291094 276.892426,175.013505 274.394615,176.735916 C268.39487,180.745487 262.55918,185.060118 255.464168,187.883871 C252.168995,189.194842 246.530172,190.737346 242.505342,189.707968 C240.886661,189.606281 239.266938,189.505116 237.646173,189.404473 C233.574471,188.576902 229.960562,187.422371 226.915378,185.552906 C213.351891,177.227139 212.556612,162.160348 208.489597,144.510723 C208.422413,144.476306 208.355228,144.443454 208.288043,144.409037 C208.219296,144.476306 208.152112,144.543576 208.084927,144.612409 C207.236525,149.57314 206.275629,154.389945 204.339773,158.393259 C200.424314,166.487494 191.465319,175.467183 184.698418,180.890977 C181.932911,183.323628 179.165841,185.755757 176.397208,188.187365 C169.928732,193.235702 163.44307,198.104133 156.655858,202.881828 C147.745298,209.155095 139.211285,215.312595 127.803956,219.096893 C118.894959,222.050491 108.803199,223.220666 98.7489379,224.974365 C95.6209455,225.518778 88.7774857,226.02721 86.3978991,224.569184 L86.3978991,224.467497 C86.4760208,223.780723 86.6931991,223.755693 87.0056858,223.352076 C89.0634111,222.340427 91.1216571,221.327214 93.180424,220.312436 C103.167501,216.029093 113.279572,212.50918 122.337,207.238698 C131.142877,202.115269 140.069061,197.483064 148.557763,192.140618 C159.855722,185.027266 170.283405,177.008122 180.548594,168.93266 C187.193625,163.705981 193.474609,157.675197 198.669701,150.996749 C200.936792,148.080697 203.81792,145.591727 204.541327,141.166024 C205.211611,137.068845 204.230403,132.677559 203.52887,129.411079 C202.613284,125.143381 201.911751,121.118165 200.897732,117.148642 C196.874465,101.402429 193.246494,86.0578 188.14046,71.4446865 C186.79208,67.7968053 185.442658,64.1485592 184.092194,60.4999479 L182.06728,55.7369584 C181.417308,52.2869746 184.426555,41.4215514 185.61088,39.4213023 C185.879618,39.3538242 186.149399,39.2860333 186.42022,39.2179295 C188.634189,40.4096938 189.587274,43.2788138 190.671603,45.6022691 C193.555855,51.7763526 195.865132,58.3240161 198.466585,64.9580348 C201.955499,73.8521504 204.681946,83.4261567 207.375582,93.130478 C210.24421,106.978701 213.112839,120.828281 215.981467,134.679216 C218.812597,146.545233 220.296909,159.493818 228.434064,165.993924 C236.189985,172.188971 247.791056,172.483079 257.995311,168.42501 C262.701361,166.553981 267.212107,164.223017 271.15569,161.535368 C271.121317,161.366412 271.088505,161.197456 271.054132,161.0285 C270.302601,159.557959 268.283937,158.282968 267.004304,157.27862 C262.504494,153.744628 257.182845,149.641191 250.503441,148.46163 C246.475487,147.749825 242.341287,149.179692 239.9742,150.387413 C239.275792,150.744097 237.643049,151.629551 236.936828,150.690908 C236.011868,149.267299 238.303958,145.279628 238.861747,144.003073 C240.278353,140.692791 241.695481,137.382509 243.113129,134.072226 C244.759934,131.860157 248.586335,130.932464 251.515898,130.017287 C270.822892,123.986503 300.313829,122.023174 317.624032,131.336081 C320.873894,133.085086 326.611151,135.896323 328.354827,138.935963 C329.354785,140.680276 326.037738,145.304659 325.419014,146.637533 C324.736231,148.111203 322.905058,152.787211 321.773856,153.52874 L317.016245,155.25115 C312.797674,157.042395 308.579624,158.832596 304.362095,160.621755 C302.70279,161.325738 299.851348,161.887359 298.692022,163.156092 L298.692022,163.561273 C300.960676,165.241445 303.109023,167.11091 305.88078,168.324889 C314.960083,172.303172 327.57361,172.580072 335.542022,167.614648 C337.204452,166.580576 339.416858,165.554326 340.50275,163.966454 C342.612035,160.883011 342.891711,145.52524 342.021435,140.051385 C339.929336,108.706222 337.837238,77.3582964 335.745139,46.0076066 C335.509211,40.062865 335.272763,34.117602 335.035794,28.1718175 C334.631124,26.3480333 334.226453,24.5239363 333.821783,22.6995264 C333.417113,21.7199999 333.011921,20.7404212 332.606209,19.7607903 C332.29841,18.290249 333.337428,16.2185066 333.720225,15.0988614 C335.115478,11.0229589 336.241993,6.21381936 338.579394,2.93889251 Z M729.45657,3.04010956 C730.273723,3.46249909 729.059712,6.39529042 728.747225,7.29638809 C727.772266,10.1202968 722.970907,24.5572581 729.355012,24.6254662 C731.090876,23.7156079 732.03771,20.698808 733.303282,20.2678142 L733.303282,20.471187 C733.534522,21.1374673 733.054855,21.9983598 732.898611,22.5987787 C732.089271,25.7022467 729.948736,32.9994169 725.406742,29.5916721 C723.645879,28.2706879 723.069341,23.9551184 723.584944,20.775151 C724.775518,13.4293277 726.68325,8.44779067 729.45657,3.04010956 Z M501.064692,3.54682056 C501.409989,3.68323673 501.27562,3.60845814 501.470924,3.85094102 C499.267893,10.4618065 497.255478,17.0445128 496.003969,24.5240927 C495.335247,28.5162996 496.144588,33.8369998 499.141336,34.5567828 C503.148978,35.5188923 504.977026,28.0152205 506.228535,28.3750338 C506.303532,32.7436366 503.536462,39.9059551 501.064692,41.7517974 C498.910095,43.3618837 495.438368,42.6053371 494.080613,40.8397489 C492.032262,38.1802592 491.690089,31.9442253 492.460369,27.4629853 C494.030615,18.3209113 496.50551,9.81351682 501.064692,3.54682056 Z M175.789421,3.85094102 C181.339186,3.77397226 194.27145,3.2847826 195.835446,6.58708655 C196.908838,8.56183584 192.762139,13.4649961 191.887176,14.6941497 C189.948196,17.4162155 187.818599,20.2618695 185.104651,22.1932847 C181.882913,24.4849826 172.034893,27.313741 167.388215,28.0710697 C167.353841,28.0372786 167.319468,28.0034874 167.286657,27.9696963 L167.286657,27.5648281 C170.874005,24.9546172 174.98633,22.7810319 178.928351,20.4710305 C181.539177,18.9416675 184.601548,17.8271849 186.623337,15.708041 C186.149919,14.016762 183.556279,14.3815814 181.66261,14.0866909 C178.965849,13.6669609 175.001955,13.3245125 171.942709,13.7825705 C170.45996,14.0048725 167.461649,14.3540479 166.2742,13.6813534 C166.239826,13.5799799 166.207015,13.4779807 166.172642,13.377233 C167.310093,10.56318 169.414692,6.34476011 171.942709,4.86483234 C173.044225,4.21967144 174.462915,4.37063659 175.789421,3.85094102 Z M278.141331,3.85094102 C284.705116,3.69575198 286.837838,12.3356517 283.0005,16.5184031 L282.291155,16.5184031 C277.105438,9.92537183 275.486756,12.3589613 273.079046,19.3557657 C270.561965,26.6709267 270.894764,38.5123826 265.790293,43.3733039 C265.554365,43.2719304 265.316875,43.1699311 265.080948,43.0691834 C264.743462,41.1102346 264.405976,39.1510251 264.068491,37.1915548 C262.84198,33.1544496 261.287358,29.2863001 259.71555,25.6388882 C259.042141,24.0768292 258.170303,21.0551796 256.678179,20.3691877 C255.445419,19.8016213 254.897004,21.7184876 253.742366,21.8893207 C251.556521,22.2131527 248.056669,18.5454036 247.262953,17.2273918 C246.102065,15.2978538 250.056585,8.66352221 251.41434,8.00553318 C253.800176,6.88322855 257.082849,9.73404502 258.196865,10.8430522 C261.415478,14.0472679 263.573199,18.5127075 265.080948,23.4091408 C265.688734,25.9762262 266.296521,28.5434681 266.904308,31.1108664 C267.004304,31.0432841 267.105862,30.9757018 267.20742,30.9074937 C268.490178,22.6474317 270.536966,11.5839547 274.800848,6.18065396 C275.69456,5.0478678 276.836699,4.6101471 278.141331,3.85094102 Z M472.415906,4.05353155 C472.737768,4.26613429 472.665896,4.15881606 472.719018,4.66161604 C471.851868,6.87243415 468.139525,17.4643992 471.706561,18.9504282 C473.39399,19.369376 474.345512,17.0743929 474.945487,16.0116921 L475.250161,16.2142827 C475.207975,19.5384883 471.265955,26.7830945 468.770748,21.4839832 C466.350538,16.3442848 470.739415,7.19485816 472.415906,4.05353155 Z M308.916589,4.15490504 L309.221264,4.15490504 C309.150954,6.59881959 303.785556,18.6380164 308.916589,19.0518017 C310.314967,18.3371812 310.48371,17.0767395 311.54929,16.1129092 C311.616474,16.1467003 311.683659,16.1804915 311.752406,16.2142827 C311.808654,19.228736 308.393174,26.3359874 305.677664,21.9906942 C302.665291,17.1716989 307.271346,7.32877128 308.916589,4.15490504 Z M444.271787,4.96558007 L444.778016,5.06695355 C444.810827,5.13453588 444.8452,5.2021182 444.878011,5.27032629 C444.837388,6.79624759 442.90622,11.2835888 442.043757,11.9586299 C438.839205,13.1409034 435.633612,14.3232291 432.426977,15.5056069 C425.374151,18.3766042 418.321325,21.2478622 411.268499,24.119381 C408.132695,25.430353 400.456457,27.9285524 400.029913,31.4159255 C401.88296,34.1002892 408.602987,35.2908019 409.345143,36.7868431 C410.101361,38.2260963 409.912307,42.273996 409.142027,43.4753031 C403.486017,43.5754251 397.105037,40.7580869 396.284759,35.8747946 C395.605101,31.8200115 400.143971,25.5226529 401.853273,23.308706 C404.87502,19.3922164 409.592008,17.984877 414.507424,15.9109444 C420.986316,13.4791279 427.465729,11.0469464 433.945662,8.61439987 C437.386142,7.39781372 440.828183,6.18154045 444.271787,4.96558007 Z M637.027676,4.96558007 C637.477657,5.0412973 637.452658,5.09229693 637.735459,5.26970053 C637.647963,7.20049002 636.157401,10.6484401 634.901204,11.5526666 C630.176404,13.3428682 625.452126,15.1332262 620.728368,16.9237406 L560.794971,40.9404966 C560.76216,40.9067055 560.727787,40.8729143 560.693413,40.8391231 C560.776222,39.084955 562.838635,33.4343217 563.832343,32.73206 C568.860254,30.840485 573.888166,28.9488056 578.916078,27.057022 C598.285569,19.6940945 617.656102,12.3302805 637.027676,4.96558007 Z M218.107939,16.7209937 C218.242309,16.788576 218.376678,16.8561583 218.51261,16.9243664 C217.303286,22.1932847 215.484613,26.8470787 214.462781,32.7333115 C213.972177,35.5595668 214.923699,40.3125442 217.803265,39.6243621 C219.726621,39.1648962 220.845323,36.6050592 221.751535,35.0641196 L222.056209,35.0641196 C222.089021,35.0979107 222.123394,35.1317019 222.156205,35.1653366 C222.221827,39.9311421 216.915802,50.8993467 212.742542,43.9820141 C211.462909,41.8622444 211.409786,37.6388184 211.931639,34.6581563 C213.353453,26.5415503 215.218999,22.8417309 218.107939,16.7209937 Z M645.430445,26.2469727 C646.172601,26.6167982 643.928946,33.2182773 643.505527,34.4554093 C641.958717,38.9812349 638.697918,49.1555037 640.975947,54.7232235 C643.883636,61.8354811 648.661558,53.5823025 650.188056,50.9738124 C650.725533,51.0898913 650.589601,51.074873 650.795843,51.480367 C649.438088,56.1829705 648.97717,61.875217 645.530441,64.4519496 C643.346159,66.085502 639.858806,65.4547336 638.444804,63.5399011 C636.571446,61.0025915 636.052718,54.9513139 636.82456,50.5683185 C638.515113,40.9666222 641.143127,33.1577348 645.430445,26.2469727 Z M323.79877,35.7727953 C325.797123,36.3577266 321.967598,43.1982469 321.267628,44.1839789 C320.259858,45.6055544 317.747464,45.9315765 316.003788,46.6161604 C311.313362,48.4062577 306.622936,50.1965635 301.93251,51.987078 L238.760189,77.0175689 C233.461976,79.1792646 228.163763,81.341169 222.86555,83.5032819 C221.528107,84.0680324 218.312618,86.1314835 216.993924,85.6308736 C217.168917,83.464954 220.22035,75.0207614 221.448423,74.2807976 L243.214687,66.1743602 C270.072923,56.0416003 296.934285,45.9077454 323.79877,35.7727953 Z M456.318151,36.4822533 C459.039911,36.791067 465.836498,42.4190164 468.061403,44.0826054 C469.006676,44.7887781 470.997216,45.7705991 471.301891,47.0214979 C471.942489,49.6576779 467.433305,56.6468168 466.341164,58.371574 C465.819311,59.1946078 465.164651,61.3239204 464.013138,61.1077195 C462.656945,60.7752833 461.605427,59.4167534 460.571096,58.675538 C457.938395,56.8854408 455.306215,55.0951349 452.674556,53.3046205 C451.843341,52.7506644 451.135559,51.8309503 449.940297,51.683114 C448.023191,55.0612916 446.893551,59.624663 444.170229,62.2223586 C442.464051,62.0948595 441.079735,60.2385357 439.918847,59.3848396 C436.308062,56.8854408 432.697278,54.3857812 429.086494,51.8858609 C429.091181,50.0753743 434.781565,38.753301 435.869018,37.6982658 C438.328289,37.735968 445.901406,43.6132837 447.915383,45.0960274 C448.784096,45.7350871 449.501253,46.9191858 450.649642,47.2236191 C452.449565,44.2632943 453.833882,38.5655724 456.318151,36.4819404 L456.318151,36.4822533 Z M61.2908387,48.5416309 C61.7384759,48.9342968 59.100619,56.832981 59.0635894,59.0808755 C59.0284346,61.2161329 59.5159139,64.8378884 61.7978484,63.3371541 L63.923852,60.6010085 L64.0250977,60.6010085 L64.0250977,60.8035991 C64.780222,63.2170077 61.3831785,69.5453416 58.3558069,67.0867216 C57.2250736,66.1684155 56.766343,63.1081251 57.1408584,60.8035991 C57.9625423,55.7454062 59.6040352,52.3697316 61.2908387,48.5416309 Z M583.370577,54.013922 C585.225185,54.025655 586.3517,55.2710784 587.521963,56.040766 C590.37653,57.9164884 597.402794,61.6439978 598.657428,64.6545401 C598.302756,68.7310684 595.55756,72.3418732 593.798259,75.2951582 C593.184223,76.327666 592.681119,78.2440629 591.267117,78.4367977 C587.826638,75.9709815 584.384596,73.5050088 580.940992,71.0388797 C579.720731,70.2238243 577.413017,69.3756036 576.68961,68.1001436 C576.267753,66.9894156 577.686443,65.1934779 578.106737,64.3505761 C579.806665,60.9403281 581.131609,56.9418637 583.370577,54.013922 Z M732.898611,54.2172947 C733.168912,54.3185639 733.438693,54.4198853 733.707952,54.5212588 C733.579833,56.564529 732.045523,59.9819732 730.672143,60.9055983 L716.397749,66.2766723 C696.522029,74.2477365 676.645788,82.2197392 656.769027,90.1926806 C656.734653,90.1588894 656.70028,90.1250983 656.667469,90.0913071 C656.747153,88.3582585 658.756443,82.7442323 659.70484,81.984244 C665.103049,79.9577129 670.502299,77.930921 675.902591,75.9038685 C694.89866,68.6752713 713.897334,61.4462048 732.898611,54.216669 L732.898611,54.2172947 Z M107.556377,55.5346808 C108.087604,56.1582529 107.312637,57.9667058 107.050148,58.6761638 C106.256432,60.8193996 103.708103,68.8890734 106.747036,70.3309861 L107.556377,70.4323596 C108.879758,69.7371377 109.093812,68.4669967 110.08752,67.4934671 L110.289074,67.7974311 C110.923422,69.9849396 107.807929,76.2827675 104.822118,74.0805536 C100.631671,70.9875672 105.975194,57.8096395 107.556377,55.534055 L107.556377,55.5346808 Z M482.640473,61.2097188 L483.146701,61.3109358 C485.05287,66.2898134 482.856089,73.4089543 481.424899,76.9172905 C478.187537,84.8602474 474.142396,91.5740508 469.681647,98.2999002 C467.48799,101.610078 465.294333,104.920517 463.100676,108.231217 C463.444412,109.967707 467.038009,113.284247 468.162962,114.818147 C471.522194,119.396224 474.44082,124.329733 476.16106,130.52478 C477.03446,133.669235 476.57823,136.896604 477.173517,140.557313 C477.760992,144.166397 476.682913,148.052381 475.857948,150.79322 C474.948611,153.809394 474.368948,156.656612 472.922135,159.103343 C469.44572,164.976122 463.808459,168.887136 457.938395,172.378889 C454.155743,174.628505 446.799805,178.877431 440.425075,176.939132 C434.450329,175.122857 431.458268,165.928845 432.933205,157.177559 C433.495682,153.835989 433.503494,150.592976 434.248775,147.550207 C436.179943,139.670295 439.262625,132.724334 442.954656,126.471405 C444.44053,123.938632 445.925363,121.405286 447.409154,118.871366 C447.837261,118.181775 449.137206,117.013321 448.826282,116.033846 C446.902926,113.872151 444.97957,111.710246 443.056214,109.548133 C439.236063,104.634179 435.803396,99.4890049 432.022307,94.4484898 C430.141136,91.941999 426.808465,90.1820426 425.644452,87.0507282 C424.260136,83.3310409 426.488166,72.8661055 427.972478,70.3297346 C430.050515,69.9625686 432.634781,72.4260382 434.045658,73.3698441 C438.029864,76.0330884 441.959385,78.6350079 445.790473,81.3756902 C447.246661,82.4183666 448.899716,83.3698381 449.940297,84.8212937 C449.901236,85.3229986 449.926235,85.3062595 449.637185,85.5305952 C447.63102,86.5829709 443.743685,85.2414931 441.639086,86.1386797 C441.537528,86.2062621 441.43597,86.2738444 441.335974,86.3420525 C441.506279,88.3300992 443.840555,89.8940356 444.878011,91.206259 C448.218495,95.4249918 452.474564,100.235226 457.22905,102.961673 C458.771172,102.425394 463.233483,94.6346541 464.417808,92.8277655 C468.466074,86.3764694 472.515381,79.9244953 476.56573,73.4718434 C478.792198,69.675813 480.089018,64.7765637 482.640473,61.209093 L482.640473,61.2097188 Z M316.003788,63.6411181 L316.306901,63.6411181 C316.21003,66.2783932 311.37586,76.5372963 315.09289,78.3354242 C316.955311,79.3710608 317.799025,76.3810122 318.636489,75.5992787 L318.838043,75.7004957 C318.875542,78.658474 315.736612,85.648395 312.764863,81.5782807 C309.596248,77.2398709 314.428855,66.3350247 316.003788,63.6411181 Z M525.969886,70.1268312 C526.104255,70.2282047 526.240187,70.3302039 526.374556,70.4309516 C526.10738,74.3732539 520.995096,74.8189531 517.971787,76.0046162 C511.189262,78.6728665 504.406217,81.3414819 497.62265,84.0104622 C495.069633,85.057519 491.218234,87.3837902 488.410541,87.6586563 L488.410541,87.4552835 C487.335586,83.4788772 494.208732,82.2057639 496.813309,81.1723175 C506.531647,77.4910623 516.250506,73.8092335 525.969886,70.1268312 Z M729.45657,80.6662322 C729.922175,81.2450623 729.190956,82.9075562 728.950341,83.6049683 C728.242559,85.6559041 724.96301,95.4425132 729.355012,95.6645023 C730.578397,95.0304487 731.21587,93.8011387 731.987713,92.7256098 L732.189266,92.8269833 C732.161143,95.4037159 729.309701,102.582304 726.31764,99.0085759 C722.794352,94.7982909 727.708206,83.2897405 729.45657,80.6662322 Z M615.462966,81.1729432 L615.969194,81.2741603 C617.797242,82.1558593 619.378425,84.9849305 620.626809,86.5438608 C623.464189,90.0909942 626.940604,93.2684586 630.143593,96.4751774 C631.134176,97.4681057 634.241857,100.014176 633.382519,101.643504 C630.812315,101.983606 628.721779,100.614282 626.295319,100.427335 C626.262508,100.528709 626.228134,100.630708 626.195323,100.731456 C629.231132,108.675195 632.793481,116.049178 635.608987,124.445343 C636.758938,127.871391 636.87612,131.649431 637.533905,135.591733 C637.991698,138.343523 637.255792,141.383163 636.82456,143.496675 C636.790187,144.679366 636.756334,145.861535 636.723002,147.043183 C636.251147,148.765594 635.778771,150.488526 635.305874,152.211979 C632.270066,162.014545 627.934312,179.697023 632.268503,190.72139 C633.517201,193.88368 635.414175,196.748721 637.837017,199.131634 C640.704083,201.989804 644.511734,203.954697 649.074041,205.110793 C658.015849,207.376052 667.612317,204.88239 674.180789,202.172839 C686.869313,196.938338 697.156377,189.385387 707.285635,181.600904 C709.98552,179.235523 712.685406,176.870663 715.385291,174.506325 C719.866351,170.901934 724.284914,166.469973 727.73633,161.839332 C728.530047,160.773972 730.890884,158.749631 730.469027,156.772222 C729.272203,151.165392 721.767833,150.977663 715.789962,149.982701 C713.393188,149.948284 710.996936,149.914389 708.601204,149.881015 C699.550025,148.393265 692.395641,147.210574 690.378539,138.834746 C687.386479,126.403979 696.614212,114.006064 703.134248,109.446603 C705.576332,107.739055 709.654285,105.680453 714.169718,106.811831 C720.741314,108.458212 724.961448,113.695216 728.141001,118.769836 C731.015298,123.382373 733.26211,128.358271 734.821967,133.565828 C738.115578,144.479122 737.229678,159.056254 733.303282,168.527166 C730.612771,175.017885 725.794225,178.817827 721.763146,183.830183 C719.202317,187.010619 715.932143,190.186363 712.752591,192.747295 C710.558934,194.774765 708.365277,196.801713 706.17162,198.82814 C700.892156,203.030133 695.776748,207.244642 690.176985,211.191638 C680.549269,217.976465 662.107863,229.441994 645.328887,222.844896 C635.055885,218.807165 629.842044,210.157566 626.801548,198.82814 C626.139076,196.359508 626.445313,193.951887 625.992207,191.126571 C625.496915,188.036869 625.587537,183.658098 626.093765,180.58717 C626.885919,175.775058 627.160907,170.950431 628.320233,166.601383 C628.615533,165.495348 629.731111,162.533928 629.231132,161.737646 C626.262508,164.575477 623.292842,167.412788 620.322135,170.249577 C614.289578,175.067946 608.107028,179.787758 601.593241,184.133677 C593.759199,189.361921 585.456426,193.782931 577.195838,198.624767 C571.183593,202.149373 564.893235,205.72404 558.163833,208.455492 C547.129926,211.089951 536.094977,213.724932 525.058987,216.360434 C515.526578,219.18888 505.730119,220.828377 495.699294,223.149955 C493.669693,223.619277 486.054391,225.419907 484.159158,224.568871 L484.159158,224.467184 C484.191969,224.331081 484.226343,224.196542 484.260717,224.062003 C502.581815,214.642717 522.62784,206.639217 541.96452,198.321272 C560.09358,190.5216 577.681079,181.516059 594.609163,171.364998 C603.316606,166.136754 611.630316,160.80526 619.512794,154.846439 C623.237636,152.030508 627.606201,148.878231 630.042035,144.813905 C631.81696,141.850921 626.904668,132.944759 625.587537,130.322815 C622.747032,124.669053 620.511189,118.555981 618.197225,112.486713 C617.589438,110.426391 616.981651,108.36586 616.373865,106.30512 C615.437967,103.878727 612.928698,100.833142 612.425595,98.8059854 C611.661565,95.7189437 614.375512,82.3354531 615.462966,81.1729432 Z M70.4021711,83.3005349 L70.8071539,83.5039077 L68.8836417,89.6855003 C67.7569707,93.3102282 66.942474,96.9782902 66.2515658,100.933577 C65.6183114,104.558931 66.3542177,109.299706 69.2886245,109.750098 C72.1966262,110.19658 73.794371,104.145771 74.9579154,104.480554 C74.9511969,108.53784 72.8662854,114.007785 70.4021711,115.830474 C68.3589765,117.34169 65.363166,116.218446 64.3280536,114.614461 C62.8482726,112.321512 62.5832839,107.08967 63.2143509,103.467132 C64.6155414,95.4243661 67.1091857,89.2778162 70.4021711,83.3010043 L70.4021711,83.3005349 Z M282.19116,88.6720783 C282.905192,89.2495004 281.580248,92.3797197 281.278698,93.3340072 C280.353738,96.2680501 275.744558,109.901846 281.784927,110.358965 C284.064518,109.030784 284.036394,107.318386 285.733197,105.900409 L286.037872,106.406963 C285.106661,109.888861 284.486375,115.991764 280.166245,115.932942 C278.925673,115.916047 277.967901,115.340971 277.431986,114.615556 C276.027358,112.712613 275.761745,108.263287 276.319534,105.089577 C277.419487,98.8219423 279.170975,93.0876133 282.19116,88.6720783 Z M406.610884,89.1786328 C407.190547,89.6240191 405.078137,96.1558822 404.687528,97.2858524 C403.082909,101.938864 399.778361,112.282715 402.257944,117.959161 C405.201569,124.695648 409.951367,116.228302 411.368495,113.905473 L411.874723,114.006846 C411.902847,118.133122 409.138902,125.47394 406.814,127.28161 C404.514098,129.069726 400.86269,128.404854 399.423689,126.26944 C397.681575,123.683477 397.201908,117.473725 398.006561,113.196171 C399.75805,103.878101 402.122012,95.7541428 406.610884,89.1786328 Z M242.808455,89.7867173 C243.300621,90.3782191 242.549091,92.0995347 242.303788,92.8269833 C241.577257,94.9680289 238.777375,103.318201 241.999114,104.58224 L242.808455,104.683614 C243.945906,104.100716 244.583379,103.006415 245.138043,101.846095 L245.441155,101.846095 C245.475529,101.879886 245.50834,101.913677 245.542714,101.947468 C245.561463,104.661869 242.720958,111.40039 239.772646,108.129217 C236.214984,104.182691 240.981969,92.2964934 242.808455,89.7867173 Z M164.046169,98.5018649 C164.182101,98.5694473 164.31647,98.6370296 164.45084,98.7052377 C163.472756,101.913938 162.494152,105.123003 161.515026,108.332434 C160.233831,112.446821 159.685417,116.545564 158.883888,121.202956 C158.297975,124.596152 160.011965,130.518992 163.539941,129.613201 C166.163267,128.940506 167.55852,125.368968 168.805342,123.228861 C168.974085,123.263278 169.142828,123.297695 169.311571,123.330547 C169.369381,127.656129 166.588249,134.822672 164.147727,136.70778 C161.918134,138.430191 158.337036,137.652681 156.960532,135.694046 C155.160608,133.133113 154.655942,127.044447 155.441847,122.721994 C157.212084,112.976372 160.061963,105.723474 164.046169,98.5018649 Z M494.788395,103.872939 C496.733625,104.369794 498.488238,107.59247 499.647564,109.041266 C503.74739,114.163443 509.283093,118.07696 512.909502,123.633416 C512.775132,123.90458 512.640242,124.175222 512.504831,124.445343 C510.709595,124.431263 506.056667,122.963851 505.51919,123.431608 C506.734764,125.626469 507.949816,127.821852 509.164348,130.017756 C511.358005,134.307356 513.551662,138.597478 515.745319,142.888121 C518.004598,147.244991 520.832603,153.22415 519.693589,160.522102 C518.284274,169.545594 516.182801,176.774713 512.201719,183.119942 C509.290905,187.75997 504.491109,191.52393 500.255351,194.876451 C490.129027,202.899952 479.437653,210.181353 468.26452,216.663929 C461.438247,220.639084 446.73262,227.489616 435.261232,225.581041 C420.944651,223.200016 414.862097,213.287941 411.571611,199.941997 C408.087384,185.813849 412.59813,167.718368 416.02611,156.873908 C417.330742,152.743877 418.652561,148.541884 420.783721,145.219086 C420.952463,145.186233 421.121206,145.151817 421.289949,145.1174 C421.391507,145.253503 421.493066,145.388042 421.594624,145.524145 C421.653996,148.812526 420.461859,151.520512 419.671268,154.137763 C417.865094,160.101277 417.182311,166.005344 415.924552,172.580541 C415.215207,176.292876 414.685542,181.888755 415.621439,185.856088 C416.765141,190.704181 418.604126,194.715317 421.088395,198.219586 C423.683598,201.883424 427.392815,205.239074 432.122302,206.733082 C439.529801,209.071868 448.976275,206.647039 455.10414,204.705612 C470.359743,199.871598 483.029519,190.9451 494.889953,182.512953 C499.864742,178.975832 504.302054,175.110185 508.961232,171.364998 C510.345548,170.082185 511.729344,168.79833 513.112618,167.513431 C516.518724,163.103372 510.870526,156.401458 508.861236,153.022341 C504.622353,145.896474 501.170937,138.341959 496.914868,131.133177 C495.175879,128.188966 492.382247,124.66436 491.54947,121.100644 C490.876061,118.223076 493.666568,104.955977 494.788395,103.872939 Z M582.258124,104.176903 C582.35812,104.210694 582.459678,104.244485 582.561236,104.278276 C582.828412,106.466724 581.108173,109.264976 580.536322,111.27117 C579.052003,116.392789 577.902225,121.60572 577.09428,126.876899 C576.536491,130.503191 578.142673,136.217965 581.853453,135.187022 C584.492404,134.45488 585.732976,130.878648 587.117293,128.802682 L587.420405,128.802682 C587.454778,128.869952 587.48759,128.938785 587.521963,129.006055 C588.051628,132.763757 584.30335,141.092653 582.055007,142.585096 C580.123839,143.867909 576.833354,143.373557 575.575595,141.774734 C573.405374,139.010429 572.92102,132.871701 573.753797,128.094006 C575.374041,118.792832 577.828624,110.69891 582.258124,104.176903 Z M14.1144015,106.913049 C14.5400085,107.465909 13.7706661,109.388095 13.5069273,110.155905 C12.7521155,112.347168 10.151757,120.218788 13.2031902,121.709197 L13.7094187,121.911006 C15.1890435,121.368157 15.7083964,120.238656 16.4427403,118.972426 L16.8477231,118.972426 L16.8477231,119.580511 C16.2460299,121.729535 13.9117539,129.298129 10.7734494,124.95221 C7.84341743,120.892578 12.164328,108.992144 14.1144015,106.913049 Z M664.564009,116.945739 L664.765563,117.047112 C664.715565,119.805159 663.234378,122.287871 662.539095,124.647151 C661.225088,129.108836 660.261066,133.446933 659.400165,138.429565 C658.528327,143.476338 660.98916,150.636623 665.474908,147.144869 C667.262332,145.752548 667.726375,143.14312 669.32162,141.570892 C669.423178,141.672578 669.524736,141.774265 669.624732,141.875951 C670.138773,143.222904 668.948198,145.844848 668.612275,147.043183 C667.482635,151.080914 664.162463,159.500545 658.387708,155.149933 C655.875315,153.258567 654.997227,147.266893 655.75657,142.584627 C657.128387,134.105548 658.981433,127.872956 662.032866,121.505825 C662.782834,119.939542 663.393746,118.103868 664.564009,116.945739 Z M455.002582,122.012692 C449.559063,129.363834 444.451467,137.068532 440.221959,145.725953 C439.054821,148.114801 436.439307,153.18504 438.601715,156.163668 C440.503197,158.782483 446.292014,159.134474 450.143413,157.987765 C457.071244,155.925878 462.288211,152.418481 467.252063,148.462099 C468.983239,147.083858 471.778433,145.247245 472.111232,142.584627 C468.133275,136.226882 465.211524,131.624401 460.064868,126.471248 C458.838357,125.244754 456.927501,122.298978 455.002582,122.012692 Z M705.766949,123.128113 C703.779534,123.879028 702.038982,123.608386 700.604668,124.748838 C697.97978,126.835755 700.142188,130.724867 702.324908,131.640045 C706.232555,133.279542 714.78063,132.976047 719.738232,133.260769 C719.805417,133.160647 719.872601,133.058961 719.939786,132.957274 C718.00393,128.290652 712.519788,123.082746 705.766949,123.128113 Z M83.5630193,133.058961 C89.5727645,133.022979 91.9601632,142.030827 87.9165847,145.82764 C87.7478418,145.793223 87.579099,145.76037 87.4103562,145.725953 C85.8494848,144.940622 84.5948505,141.264268 82.2469813,141.875951 C79.4574121,142.323371 78.6785389,146.725609 77.8937284,149.272461 C75.7942862,156.088577 75.404459,168.300327 70.9083996,172.580541 C70.3426424,172.550818 70.3173309,172.477291 69.9973445,172.277047 C69.7611045,170.656322 69.5248645,169.035077 69.2886245,167.413309 C68.1386733,163.017329 66.4354643,158.835673 64.7328802,154.948125 C63.966194,153.195991 63.1888832,150.473925 61.4933301,149.677642 C61.3245872,149.64479 61.1558444,149.610373 60.9871015,149.57752 C60.4135842,150.084388 59.8399106,150.590734 59.2660808,151.096558 C56.6638474,151.875632 52.2371601,147.226218 51.8757691,145.624267 C51.489848,143.914372 55.5484259,137.672393 56.5327592,137.214022 C59.0918694,136.552278 61.3811473,138.687692 62.7081223,139.746795 C66.5118673,142.784871 68.4781902,148.016243 70.1996797,153.124028 L71.819611,160.31873 L72.1231919,160.31873 C72.1569404,160.217043 72.190689,160.116921 72.2244376,160.015235 L73.3381403,154.036076 C75.3482114,145.599237 76.3916046,136.425562 83.5630193,133.058961 Z M279.861571,141.875951 C278.158518,142.512664 275.76487,141.921319 274.294619,142.686313 L274.294619,142.989808 C277.196059,145.219086 280.098019,147.448364 283.0005,149.677642 C284.214511,150.860333 285.429564,152.043024 286.645658,153.225714 C290.053326,151.43447 293.461515,149.643747 296.870225,147.853545 L301.627835,145.624267 C301.595024,145.455311 301.560651,145.286355 301.526277,145.1174 C295.824957,142.381254 288.600263,141.891595 279.861571,141.875951 Z M730.975255,199.436694 C736.528145,199.324056 737.073434,204.987205 735.328196,209.469227 C732.915798,215.661145 727.975383,221.8734 722.269375,224.770679 C722.133443,224.70341 721.999074,224.63614 721.863142,224.568871 C722.627172,223.062348 723.995864,222.079901 725.002071,220.81899 C727.347284,217.876343 730.025296,214.966549 731.6846,211.393446 C732.797053,208.996777 731.797096,205.511281 728.444113,206.326336 C727.130106,206.647039 726.564505,207.800006 725.205188,207.948625 L725.205188,207.745252 C724.363036,205.580115 727.305099,201.123123 728.444113,200.348742 C729.287827,200.043683 730.131541,199.739667 730.975255,199.436694 Z M190.266932,199.740188 C195.954191,199.618165 196.3323,204.898034 194.822989,209.569349 C193.182434,214.648974 189.343534,219.245198 185.509322,222.237906 C184.342184,223.14839 183.0688,224.817611 181.357935,225.074174 L181.357935,224.770679 C182.034469,223.459707 183.214106,222.625879 184.092194,221.527666 C186.504592,218.506799 189.663833,215.382681 191.177831,211.596819 C192.126229,209.226744 191.268452,205.900818 187.938906,206.631395 C186.573339,206.930197 186.035862,208.058133 184.698418,208.25212 L184.496865,208.050311 C184.585923,203.27731 186.857702,201.31398 190.266932,199.740188 Z M596.227844,225.682728 C596.466896,224.107371 598.123076,223.193758 598.962103,222.13622 C601.296379,219.193573 604.291565,216.218073 605.846186,212.610554 C606.863331,210.248301 606.435224,206.52658 602.910373,207.238385 C601.474497,207.529364 600.863585,208.638528 599.56989,208.96236 C599.501143,208.89509 599.433958,208.826256 599.366773,208.758987 C599.304276,205.23751 601.215132,201.770787 603.719714,200.753923 C606.214921,199.740188 609.081986,200.685089 609.896014,202.57802 C612.919324,209.611588 604.611863,219.387559 601.188571,222.13622 C599.844878,223.21566 598.235571,225.435552 596.227844,225.682728 Z M280.266241,200.955731 C285.553517,201.101221 285.29884,207.060042 283.911399,211.191638 C282.098976,216.591966 275.76487,224.248168 270.75102,226.392968 C270.683835,226.358551 270.615088,226.324134 270.547903,226.291281 C270.871327,224.590772 272.838431,223.433112 273.788391,222.237906 C275.991423,219.465779 278.861613,216.555985 280.266241,213.117421 C281.206826,210.819309 280.76622,207.164858 277.330428,207.846938 C275.894552,208.133225 275.260204,209.229873 273.989945,209.569349 C272.85718,207.354151 275.896114,202.642161 277.330428,201.766094 C278.186642,201.245147 279.1866,201.351526 280.266241,200.955731 Z M395.170744,200.955731 C400.045537,201.084013 400.612701,206.567255 399.019018,210.786457 C397.159722,215.704948 394.005169,220.024272 390.210017,223.048268 C388.963195,224.041666 387.460134,226.117632 385.553964,226.291281 L385.553964,225.986222 C388.158541,221.383741 393.003649,218.273702 395.272302,213.015735 C396.258198,210.731703 395.697284,207.219612 392.336489,207.846938 C390.859989,208.123838 390.222516,209.237695 388.894448,209.569349 C388.860074,209.469227 388.827263,209.367541 388.79289,209.265854 C388.499152,208.485216 389.025692,207.485561 389.19756,206.833204 C390.345949,202.506058 391.227161,202.415322 395.170744,200.955731 Z" id="Shape"></path>
            </g>
        </g>
    </g>
</svg>