<?xml version="1.0" encoding="UTF-8"?>
<svg width="260px" height="372px" viewBox="0 0 260 372" version="1.1" xmlns="http://www.w3.org/2000/svg" xmlns:xlink="http://www.w3.org/1999/xlink">
    <!-- Generator: Sketch 52.4 (67378) - http://www.bohemiancoding.com/sketch -->
    <title>mdpi/ع</title>
    <desc>Created with Sketch.</desc>
    <g id="Welcome" stroke="none" stroke-width="1" fill="none" fill-rule="evenodd">
        <path d="M259.60538,315.052622 C235.830306,335.772798 207.93818,351.578336 175.928165,362.469711 C155.34081,368.313863 134.421716,371.235895 113.170253,371.235895 C81.1602378,371.235895 54.2974639,362.536208 32.5811257,345.136573 C10.8647874,327.736938 0.00678119349,299.512763 0.00678119349,260.463201 C0.00678119349,244.258961 2.53035451,228.553037 7.57757685,213.344959 C12.6247992,198.136881 21.6565353,182.763007 34.6730561,167.222875 C40.9156732,160.31615 45.5975658,155.169389 48.7188743,151.782437 C51.8401829,148.395485 54.5961906,145.971526 56.9869801,144.510488 C39.8529885,129.634464 31.2861212,115.157123 31.2861212,101.078029 C30.622013,84.7409671 42.0445027,60.5677912 65.5539331,28.5577758 C81.7581732,9.82992444 99.6224159,0.466139241 119.147197,0.466139241 C128.975999,0.466139241 138.837857,3.35496659 148.73307,9.13270796 C158.628282,14.9104493 165.866953,19.7583665 170.449299,23.6766049 C175.031646,27.5948433 178.883416,31.845072 182.004724,36.4274186 C185.126033,41.0097652 186.686664,45.4260185 186.686664,49.676311 C186.553842,50.3404192 186.221793,50.6724684 185.690506,50.6724684 C167.36112,44.0313863 151.821221,40.7108951 139.070344,40.7108951 C134.023121,40.7108951 127.548163,41.873067 119.645276,44.1974458 C111.742388,46.5218245 103.540775,50.7388483 95.0401899,56.8486438 C86.5396049,62.9584392 82.2893761,69.1345529 82.2893761,75.37717 C82.2893761,81.6197871 88.1998505,88.2607695 100.020976,95.3003165 C111.842103,102.339863 118.947954,106.324453 121.338743,107.254204 C126.385966,106.590096 144.980716,102.207048 177.123553,94.1049277 C187.483641,92.1126031 195.220386,90.618382 200.334019,89.6222197 C205.447652,88.6260574 212.387479,87.0654265 221.153707,84.9402803 L202.625181,142.518174 L201.230561,142.518174 C196.050517,142.518174 184.096748,144.377649 165.368897,148.096655 C75.3158246,169.082474 30.2899638,203.748402 30.2899638,252.095479 C30.2899638,260.728886 35.137881,270.42472 44.8338608,281.183273 C66.3509665,296.856227 92.8484864,306.552061 124.327215,310.271067 C134.288838,312.13057 143.320574,313.325947 151.422694,313.857233 C159.524814,314.38852 173.470878,314.986208 193.261302,315.650316 C221.286668,315.11903 243.40114,314.9198 259.60538,315.052622 Z" id="ع" fill="#FFFFFF"></path>
    </g>
</svg>