<?xml version="1.0" encoding="UTF-8"?>
<svg width="371px" height="200px" viewBox="0 0 371 200" version="1.1" xmlns="http://www.w3.org/2000/svg" xmlns:xlink="http://www.w3.org/1999/xlink">
    <!-- Generator: Sketch 52.5 (67469) - http://www.bohemiancoding.com/sketch -->
    <title>xxxhdpi/najiz-dark</title>
    <desc>Created with Sketch.</desc>
    <g id="Welcome" stroke="none" stroke-width="1" fill="none" fill-rule="evenodd">
        <g id="najiz-dark">
            <g id="Group-4" transform="translate(0.000000, 169.724771)" fill="#00736C">
                <path d="M5.18273259,3.93027523 L5.8377079,3.93027523 C5.93938938,3.93027523 6.02916222,3.89633028 6.10702642,3.83302752 C6.18489062,3.75963303 6.22794494,3.67706422 6.22794494,3.57431193 L6.22794494,2.66697248 C6.22794494,2.55779817 6.18489062,2.46146789 6.10702642,2.4 C6.02916222,2.33027523 5.93938938,2.30091743 5.8377079,2.30091743 L5.18273259,2.30091743 C5.07921901,2.30091743 4.99036222,2.33027523 4.90608568,2.4 C4.82180914,2.46146789 4.77967086,2.55779817 4.77967086,2.66697248 L4.77967086,3.57431193 C4.77967086,3.67706422 4.82180914,3.75963303 4.90608568,3.83302752 C4.99036222,3.89633028 5.07921901,3.93027523 5.18273259,3.93027523" id="Fill-78"></path>
                <path d="M2.42743926,3.93027523 L3.08058247,3.93027523 C3.1795158,3.93027523 3.27295284,3.89633028 3.35081704,3.83302752 C3.42684914,3.75963303 3.46532321,3.67706422 3.46532321,3.57431193 L3.46532321,2.66697248 C3.46532321,2.55779817 3.42959728,2.46146789 3.35814543,2.4 C3.28577753,2.33027523 3.18959235,2.30091743 3.08058247,2.30091743 L2.42743926,2.30091743 C2.31293309,2.30091743 2.21949605,2.33027523 2.14438,2.4 C2.0756763,2.46146789 2.03720222,2.55779817 2.03720222,2.66697248 L2.03720222,3.57431193 C2.03720222,3.67706422 2.0756763,3.75963303 2.14438,3.83302752 C2.21949605,3.89633028 2.31293309,3.93027523 2.42743926,3.93027523" id="Fill-80"></path>
                <path d="M10.0573062,16.7778899 C10.1589877,16.7778899 10.2496765,16.7448624 10.3275407,16.6733028 C10.4054049,16.6008257 10.4475432,16.5173394 10.4475432,16.4292661 L10.4475432,15.5219266 C10.4475432,15.4072477 10.4109012,15.316422 10.3385333,15.250367 C10.2625012,15.1824771 10.1708963,15.1457798 10.0573062,15.1457798 L9.40324691,15.1457798 C9.28965679,15.1457798 9.1989679,15.1824771 9.12568395,15.250367 C9.05514815,15.316422 9.01575802,15.4072477 9.01575802,15.5219266 L9.01575802,16.4292661 C9.01575802,16.5173394 9.05514815,16.6008257 9.12568395,16.6733028 C9.1989679,16.7448624 9.28965679,16.7778899 9.40324691,16.7778899 L10.0573062,16.7778899 Z" id="Fill-82"></path>
                <path d="M12.8184622,15.1455963 L12.1625709,15.1455963 C12.0636375,15.1455963 11.9656202,15.1822936 11.8831758,15.2501835 C11.8007314,15.317156 11.7549289,15.4070642 11.7549289,15.5217431 L11.7549289,16.4290826 C11.7549289,16.517156 11.8007314,16.6006422 11.8831758,16.6731193 C11.9656202,16.7455963 12.0636375,16.7777064 12.1625709,16.7777064 L12.8184622,16.7777064 C12.9146474,16.7777064 13.0053363,16.7455963 13.0886968,16.6731193 C13.167477,16.6006422 13.203203,16.517156 13.203203,16.4290826 L13.203203,15.5217431 C13.203203,15.4070642 13.167477,15.317156 13.0886968,15.2501835 C13.0053363,15.1822936 12.9146474,15.1455963 12.8184622,15.1455963" id="Fill-84"></path>
                <path d="M5.82195185,11.0055046 C5.82195185,11.1834862 5.77798148,11.333945 5.68637654,11.446789 C5.5966037,11.5688073 5.47934938,11.6605505 5.33094938,11.7275229 C5.18896173,11.793578 5.02590494,11.8394495 4.84635926,11.859633 C4.66681358,11.8834862 4.49184815,11.8963303 4.32512716,11.8963303 L4.00634198,11.8963303 C3.27533457,11.8963303 2.76417901,11.7110092 2.45547037,11.333945 C2.15592222,10.9614679 2.00385802,10.4321101 2.00385802,9.75779817 L2.00385802,9.40642202 C2.00385802,8.95963303 2.07530988,8.58256881 2.21454938,8.2853211 C2.35562099,7.98807339 2.54341111,7.75321101 2.78708025,7.57614679 C3.02800123,7.40733945 3.31564074,7.27981651 3.65183086,7.2146789 C3.98710494,7.14862385 4.35993704,7.11192661 4.76299877,7.11192661 C4.90590247,7.11192661 5.06529506,7.12201835 5.23201605,7.12844037 C5.39965309,7.14311927 5.5966037,7.1587156 5.82195185,7.18165138 L5.82195185,11.0055046 Z M15.6401691,13.5431193 C15.842616,13.5256881 16.0304062,13.5045872 16.1989593,13.4889908 C16.3638481,13.4715596 16.4930111,13.446789 16.5837,13.4110092 C16.7174432,13.359633 16.805384,13.2908257 16.8530185,13.212844 C16.8960728,13.1330275 16.9308827,13.0366972 16.9565321,12.9238532 C16.9766852,12.7889908 16.992258,12.6376147 17.0032506,12.4697248 C17.0160753,12.3055046 17.0215716,12.1293578 17.0316481,11.946789 C17.0343963,11.7697248 17.0353123,11.5963303 17.0353123,11.4229358 L17.0353123,10.9724771 L17.0353123,1.25412844 C17.0353123,1.16055046 17.0087469,1.08715596 16.9565321,1.02477064 C16.8960728,0.965137615 16.825537,0.931192661 16.7357642,0.931192661 L15.9122358,0.931192661 C15.8197148,0.931192661 15.7418506,0.965137615 15.6832235,1.02477064 C15.6218481,1.08715596 15.5925346,1.16055046 15.5925346,1.25412844 L15.5925346,11.5266055 C15.5925346,11.8192661 15.5503963,11.9954128 15.4661198,12.0458716 C15.3818432,12.1027523 15.1775642,12.133945 14.8541988,12.133945 L13.6065395,12.133945 L13.5066901,12.133945 L13.3711148,12.133945 C13.2694333,12.133945 13.152179,12.1293578 13.0166037,12.1183486 C12.8846926,12.1027523 12.7536975,12.0853211 12.6245346,12.0568807 C12.4944556,12.0302752 12.3744531,11.9853211 12.2727716,11.9385321 C12.1655938,11.8889908 12.0923099,11.8192661 12.0629963,11.7275229 L12.0629963,7.09724771 C12.0629963,7.00825688 12.0291025,6.93027523 11.9658951,6.87247706 C11.9063519,6.81192661 11.8321519,6.77889908 11.7442111,6.77889908 L10.9710654,6.77889908 C10.8794605,6.77889908 10.8025123,6.81192661 10.740221,6.87247706 C10.6779296,6.93027523 10.648616,7.00825688 10.648616,7.09724771 L10.648616,11.5110092 C10.648616,11.6550459 10.6073938,11.7752294 10.5194531,11.8559633 C10.4351765,11.9385321 10.3334951,12.0036697 10.2125765,12.040367 C10.0870778,12.0798165 9.95974691,12.1027523 9.8241716,12.1183486 C9.69134444,12.1293578 9.56859383,12.133945 9.45408765,12.133945 L8.7963642,12.133945 L8.69743086,12.133945 L8.41345556,12.133945 C8.05161605,12.133945 7.76580864,12.0669725 7.55420123,11.9385321 C7.33709753,11.8119266 7.23541605,11.5238532 7.23541605,11.0706422 L7.23541605,6.34036697 C7.23541605,6.25045872 7.21892716,6.18165138 7.19510988,6.13211009 C7.16304815,6.07981651 7.09251235,6.04220183 6.98441852,6.02110092 C6.8580037,5.98623853 6.71418395,5.95321101 6.54563086,5.92752294 C6.37707778,5.90091743 6.19661605,5.87431193 6.01249012,5.85045872 C5.8320284,5.82844037 5.64240617,5.8146789 5.45278395,5.80183486 C5.26041358,5.79082569 5.09277654,5.78715596 4.94804074,5.78715596 C4.30955432,5.78715596 3.72328272,5.85688073 3.18922593,5.99724771 C2.65516914,6.13577982 2.19806049,6.3559633 1.8124037,6.64954128 C1.42399877,6.95045872 1.12445062,7.33853211 0.913759259,7.80091743 C0.698487654,8.27522936 0.589477778,8.84495413 0.589477778,9.50275229 L0.589477778,9.94220183 C0.589477778,11.033945 0.872537037,11.859633 1.43315926,12.4366972 C1.99194938,13.0073394 2.79532469,13.293578 3.83778889,13.293578 L3.98710494,13.293578 C4.46070247,13.293578 4.89307778,13.2394495 5.28972716,13.1330275 C5.69004074,13.0302752 5.98317654,12.8486239 6.17371481,12.6027523 C6.35234444,12.9633028 6.61525062,13.2155963 6.95968519,13.3623853 C7.29770741,13.5100917 7.72183827,13.5798165 8.22658148,13.5798165 L8.69743086,13.5798165 L8.7963642,13.5798165 L9.25347284,13.5798165 C9.56859383,13.5798165 9.9130284,13.5458716 10.3050975,13.4715596 C10.6907543,13.3990826 11.0232802,13.2513761 11.3026753,13.0275229 C11.5646654,13.2513761 11.8880309,13.3990826 12.2883444,13.4715596 C12.6868259,13.5458716 13.058742,13.5798165 13.4050086,13.5798165 L13.5066901,13.5798165 L13.6065395,13.5798165 L14.3980062,13.5798165 C14.5885444,13.5798165 14.7946556,13.5798165 15.0126753,13.5733945 C15.2334432,13.5678899 15.4423025,13.5550459 15.6401691,13.5431193 Z" id="Fill-86"></path>
                <path d="M41.0357146,9.36724771 C41.0357146,10.0553211 40.8671615,10.6617431 40.5364677,11.1727523 C40.2057738,11.6874312 39.7504973,12.0158716 39.1678899,12.1498165 L37.9248109,12.1498165 L36.2090504,7.73422018 C36.6231047,7.45807339 37.0618923,7.27550459 37.519917,7.20119266 C37.9806899,7.12137615 38.353522,7.07917431 38.6466578,7.07917431 C39.3868257,7.07917431 39.9666849,7.24706422 40.3963121,7.57550459 C40.8195269,7.90577982 41.0357146,8.44431193 41.0357146,9.18284404 L41.0357146,9.36724771 Z M47.8245565,0.93146789 L47.0028602,0.93146789 C46.9130874,0.93146789 46.8407195,0.965412844 46.7738479,1.02504587 C46.7143047,1.08743119 46.6849911,1.16082569 46.6849911,1.25440367 L46.6849911,11.5268807 C46.6849911,11.8195413 46.6428528,11.9947706 46.5594923,12.0461468 C46.4742998,12.1021101 46.2691047,12.1342202 45.9466553,12.1342202 L44.697164,12.1342202 L44.5954825,12.1342202 L41.2867121,12.1342202 C41.4552652,12.0195413 41.6054973,11.8589908 41.749317,11.6525688 C41.8885565,11.4443119 42.0067269,11.216789 42.1084084,10.9644954 C42.211922,10.7076147 42.2897862,10.4433945 42.3465812,10.1599083 C42.4042923,9.88284404 42.4308578,9.60761468 42.4308578,9.33422018 L42.4308578,9.01862385 C42.4308578,8.44431193 42.3374207,7.95256881 42.1523788,7.53605505 C41.9655047,7.12137615 41.7071788,6.77917431 41.3709886,6.5140367 C41.0357146,6.25348624 40.6326528,6.05807339 40.1672998,5.93788991 C39.7019467,5.81495413 39.1990356,5.74798165 38.6466578,5.74798165 C38.3095516,5.74798165 37.9733615,5.77733945 37.6390035,5.83422018 C37.3018973,5.89201835 36.9766998,5.96357798 36.6634109,6.06266055 C36.350122,6.15990826 36.0579022,6.27642202 35.793164,6.41220183 C35.5302578,6.55715596 35.3085738,6.70944954 35.1152874,6.87550459 C34.9366578,7.02229358 34.8386405,7.16908257 34.8276479,7.31678899 L34.8120751,7.80119266 C34.8120751,7.84889908 34.8148232,7.89752294 34.8221516,7.9553211 C34.8276479,8.01220183 34.8386405,8.05715596 34.8642899,8.09018349 L36.442643,12.1342202 L33.8364825,12.1342202 L33.734801,12.1342202 L30.2235837,12.1342202 L30.1209862,12.1342202 L26.6051886,12.1342202 L26.5062553,12.1342202 L25.498601,12.1342202 L25.48028,9.97733945 C25.4564627,9.36724771 25.3721862,8.81770642 25.2155417,8.30944954 C25.0643936,7.80119266 24.8326331,7.36541284 24.5046874,6.99568807 C24.1776578,6.6259633 23.7526109,6.33972477 23.2295467,6.13605505 C22.7000701,5.93788991 22.0615837,5.83422018 21.3076751,5.83422018 C21.1876726,5.83422018 20.9925541,5.84431193 20.73148,5.85073394 C20.4685738,5.86174312 20.1910109,5.89201835 19.896043,5.93788991 C19.7769565,5.94889908 19.6862677,5.98376147 19.6386331,6.03238532 C19.5891664,6.09110092 19.562601,6.16541284 19.562601,6.25348624 L19.562601,6.94706422 C19.562601,7.12412844 19.6706948,7.20394495 19.896043,7.18100917 C20.0655121,7.15807339 20.2633788,7.14614679 20.4951393,7.13697248 C20.7259837,7.13422018 20.9000331,7.1287156 21.0255319,7.1287156 C22.0881491,7.1287156 22.8557985,7.37550459 23.32848,7.85715596 C23.7993294,8.33880734 24.0448306,9.07550459 24.0668158,10.0608257 L24.0851368,12.1342202 L19.4938973,12.1342202 C19.4041244,12.1342202 19.3271763,12.1589908 19.2538923,12.216789 C19.191601,12.2736697 19.1577072,12.3433945 19.1577072,12.4369725 L19.1577072,13.2929358 C19.1577072,13.3865138 19.191601,13.4562385 19.2538923,13.503945 C19.3271763,13.5553211 19.4041244,13.5791743 19.4938973,13.5791743 L26.5062553,13.5791743 L26.6051886,13.5791743 L30.1209862,13.5791743 L30.2235837,13.5791743 L33.734801,13.5791743 L33.8364825,13.5791743 L44.5954825,13.5791743 L44.697164,13.5791743 L45.4886306,13.5791743 C45.6828331,13.5791743 45.886196,13.5791743 46.1051319,13.5736697 C46.3240677,13.5681651 46.5310948,13.5553211 46.7344578,13.5424771 C46.9378207,13.5259633 47.1237788,13.503945 47.2904998,13.4892661 C47.4581368,13.4718349 47.5836356,13.4461468 47.6761565,13.4112844 C47.8108158,13.3599083 47.9005886,13.2901835 47.9454751,13.2122018 C47.9931096,13.1333028 48.0224232,13.0369725 48.0462405,12.923211 C48.0691417,12.7892661 48.0828825,12.6378899 48.0947911,12.4690826 C48.1076158,12.3048624 48.1140281,12.129633 48.1195244,11.9470642 C48.1286849,11.77 48.1314331,11.5956881 48.1314331,11.423211 L48.1314331,10.9727523 L48.1314331,1.25440367 C48.1314331,1.16082569 48.1012035,1.08743119 48.0462405,1.02504587 C47.9931096,0.965412844 47.9189096,0.93146789 47.8245565,0.93146789 Z" id="Fill-88"></path>
                <path d="M52.1293474,0.915504587 L51.3067351,0.915504587 C51.2169622,0.915504587 51.1427622,0.951284404 51.0786388,1.01917431 C51.0200116,1.0833945 50.989782,1.16045872 50.989782,1.2540367 L50.989782,13.2448624 C50.989782,13.3393578 51.0200116,13.4109174 51.0786388,13.4806422 C51.1427622,13.5485321 51.2169622,13.5797248 51.3067351,13.5797248 L52.1293474,13.5797248 C52.2200363,13.5797248 52.2951523,13.5485321 52.3510314,13.4806422 C52.4059943,13.4109174 52.436224,13.3393578 52.436224,13.2448624 L52.436224,1.2540367 C52.436224,1.16045872 52.4059943,1.0833945 52.3510314,1.01917431 C52.2951523,0.951284404 52.2200363,0.915504587 52.1293474,0.915504587" id="Fill-90"></path>
                <path d="M67.0782657,13.5736697 C67.3961348,13.5681651 67.6929348,13.5553211 67.9659175,13.5424771 C68.2425644,13.5259633 68.4834854,13.503945 68.6932607,13.4892661 C68.8975398,13.4718349 69.0477719,13.4461468 69.1366286,13.4112844 C69.2694558,13.3599083 69.365641,13.2901835 69.4141916,13.2122018 C69.4618262,13.1333028 69.5039644,13.0369725 69.5241175,12.9241284 C69.5580114,12.6644954 69.5754163,12.3085321 69.5818286,11.8461468 C69.5873249,11.3874312 69.5873249,10.8865138 69.5873249,10.3443119 L69.5873249,9.47091743 L69.5873249,8.78100917 C69.5873249,8.55899083 69.5873249,8.31495413 69.5818286,8.05715596 C69.5754163,7.79844037 69.5662558,7.48009174 69.5580114,7.09752294 C69.5580114,7.00853211 69.5286978,6.93055046 69.4728188,6.87275229 C69.4169398,6.8112844 69.3363274,6.77917431 69.235562,6.77917431 L68.4468435,6.77917431 C68.3561546,6.77917431 68.2856188,6.8112844 68.2288237,6.87275229 C68.1711126,6.93055046 68.1445472,7.00853211 68.1445472,7.09752294 C68.1527916,7.53605505 68.1647002,7.93513761 68.1711126,8.2993578 C68.1766089,8.66724771 68.179357,9.0287156 68.179357,9.36724771 L68.179357,10.4140367 L68.179357,11.5268807 C68.179357,11.8195413 68.1317225,11.9947706 68.0456138,12.0461468 C67.9549249,12.1021101 67.751562,12.1342202 67.4391891,12.1342202 L62.2754188,12.1342202 C61.3914311,12.1342202 60.6814928,12.0516514 60.1511002,11.8892661 C59.6161274,11.7277982 59.2066533,11.4920183 58.922678,11.1920183 C58.6341225,10.8865138 58.4463323,10.5250459 58.3583916,10.110367 C58.2677027,9.69844037 58.2228163,9.23513761 58.2228163,8.73422018 C58.2228163,8.53788991 58.2283126,8.3553211 58.2411373,8.17825688 C58.2512138,7.9966055 58.2677027,7.77733945 58.290604,7.51770642 C58.3135052,7.29293578 58.2283126,7.18100917 58.0368583,7.18100917 L57.3342484,7.18100917 C57.1391299,7.18100917 57.0282879,7.28743119 56.9953101,7.50394495 C56.9385151,7.82504587 56.9018731,8.11954128 56.8835521,8.37183486 C56.8679793,8.62504587 56.8615669,8.86908257 56.8615669,9.10394495 C56.8615669,9.7846789 56.9385151,10.4076147 57.0887472,10.9644954 C57.2389793,11.516789 57.5156262,11.9855963 57.9113595,12.3773394 C58.3070928,12.763578 58.8530583,13.0626606 59.5428435,13.2709174 C60.2344607,13.476422 61.1166163,13.5791743 62.1911422,13.5791743 L66.1255743,13.5791743 C66.4425274,13.5791743 66.7576484,13.5791743 67.0782657,13.5736697" id="Fill-92"></path>
                <path d="M64.293384,5.53449541 L64.9492753,5.53449541 C65.0482086,5.53449541 65.1398136,5.49229358 65.2204259,5.4253211 C65.2937099,5.36293578 65.3376802,5.28220183 65.3376802,5.18036697 L65.3376802,4.26752294 C65.3376802,4.15834862 65.2937099,4.06752294 65.2204259,3.99779817 C65.1398136,3.92990826 65.0482086,3.8959633 64.9492753,3.8959633 L64.293384,3.8959633 C64.1944506,3.8959633 64.1010136,3.92990826 64.015821,3.99779817 C63.9306284,4.06752294 63.8903222,4.15834862 63.8903222,4.26752294 L63.8903222,5.18036697 C63.8903222,5.28220183 63.9306284,5.36293578 64.015821,5.4253211 C64.1010136,5.49229358 64.1944506,5.53449541 64.293384,5.53449541" id="Fill-94"></path>
                <path d="M61.5363501,5.53449541 L62.1913254,5.53449541 C62.2930069,5.53449541 62.3827798,5.49229358 62.460644,5.4253211 C62.5403402,5.36293578 62.5751501,5.28220183 62.5751501,5.18036697 L62.5751501,4.26752294 C62.5751501,4.15834862 62.5430884,4.06752294 62.4679723,3.99779817 C62.3956044,3.92990826 62.3021674,3.8959633 62.1913254,3.8959633 L61.5363501,3.8959633 C61.42276,3.8959633 61.3329872,3.92990826 61.2578711,3.99779817 C61.1827551,4.06752294 61.1461131,4.15834862 61.1461131,4.26752294 L61.1461131,5.18036697 C61.1461131,5.28220183 61.1827551,5.36293578 61.2578711,5.4253211 C61.3329872,5.49229358 61.42276,5.53449541 61.5363501,5.53449541" id="Fill-96"></path>
                <path d="M78.6058311,11.2401835 C78.5609447,10.9814679 78.5380435,10.6722936 78.5380435,10.3144954 L78.5380435,9.57229358 C78.5380435,8.79889908 78.6983521,8.20715596 79.0189694,7.79889908 C79.3368385,7.38605505 79.865399,7.18146789 80.606483,7.18146789 C81.3347422,7.18146789 81.8468138,7.38880734 82.146362,7.80073394 C82.4422459,8.21908257 82.5897299,8.81082569 82.5897299,9.57229358 L82.5897299,10.1943119 C82.5897299,11.0310092 82.4422459,11.6181651 82.1353694,11.9741284 C81.8349052,12.3255046 81.311841,12.5034862 80.5735052,12.5034862 C80.0467768,12.5034862 79.6125694,12.42 79.2763793,12.2411009 C78.9392731,12.066789 78.7166731,11.732844 78.6058311,11.2401835 M80.5735052,13.8355963 C81.7826904,13.8355963 82.6575175,13.5337615 83.1979867,12.9310092 C83.7357077,12.3319266 84.0050262,11.4475229 84.0050262,10.2823853 L84.0050262,9.41816514 C84.0050262,8.25302752 83.7201348,7.36495413 83.1430237,6.75761468 C82.573241,6.15669725 81.7258953,5.85027523 80.606483,5.85027523 C79.4834064,5.85027523 78.623236,6.16036697 78.0268879,6.7787156 C77.4241274,7.39247706 77.1245793,8.28513761 77.1245793,9.43651376 L77.1245793,11.0530275 C77.1245793,11.2456881 77.1099225,11.4117431 77.0751126,11.5420183 C77.0412188,11.6768807 76.9770953,11.7814679 76.8809101,11.8557798 C76.785641,11.9282569 76.6775472,11.9851376 76.5520484,12.0300917 C76.4311299,12.0805505 76.3047151,12.1025688 76.1856286,12.1181651 C76.0601299,12.1291743 75.9611965,12.1337615 75.8787521,12.1337615 L75.4445447,12.1337615 L75.3419472,12.1337615 L75.0204138,12.1337615 C74.8445323,12.1337615 74.6842237,12.1209174 74.5440681,12.0970642 C74.4029965,12.0805505 74.2857422,12.0300917 74.189557,11.9612844 C74.09612,11.8961468 74.0246681,11.7998165 73.9687891,11.6677064 C73.9220706,11.5420183 73.8982533,11.3631193 73.8982533,11.1383486 L73.8982533,1.25394495 C73.8982533,1.16036697 73.8689398,1.08330275 73.8103126,1.01908257 C73.7571817,0.951192661 73.6820657,0.915412844 73.5932089,0.915412844 L72.7687644,0.915412844 C72.6799077,0.915412844 72.6047916,0.951192661 72.5406681,1.01908257 C72.4811249,1.08330275 72.4508953,1.16036697 72.4508953,1.25394495 L72.4508953,11.4566972 C72.4508953,11.8833028 72.4994459,12.2355963 72.5919669,12.5034862 C72.6909002,12.773211 72.8292237,12.9878899 73.0215941,13.1511927 C73.2139644,13.3172477 73.4411447,13.4291743 73.7086311,13.4888073 C73.9816138,13.5484404 74.2939867,13.579633 74.6549101,13.579633 L75.3419472,13.579633 L75.4445447,13.579633 L75.6112657,13.579633 C76.0839472,13.579633 76.5135743,13.5255046 76.9065595,13.4025688 C77.2986286,13.2851376 77.5899323,13.0768807 77.7786385,12.773211 C78.0598657,13.132844 78.4391101,13.3998165 78.9172879,13.573211 C79.3908854,13.7502752 79.9432632,13.8355963 80.5735052,13.8355963" id="Fill-98"></path>
                <path d="M108.772803,4.11577982 L109.496482,4.11577982 C109.606408,4.11577982 109.697097,4.08550459 109.772213,4.01394495 C109.847329,3.94422018 109.882139,3.86256881 109.882139,3.75981651 L109.882139,2.85247706 C109.882139,2.74238532 109.847329,2.65155963 109.772213,2.58550459 C109.697097,2.51577982 109.61282,2.48275229 109.511139,2.48275229 L108.772803,2.48275229 C108.671121,2.48275229 108.580433,2.51577982 108.502568,2.58550459 C108.423788,2.65155963 108.385314,2.74238532 108.385314,2.85247706 L108.385314,3.75981651 C108.385314,3.86256881 108.423788,3.94422018 108.49524,4.01394495 C108.56944,4.08550459 108.658297,4.11577982 108.772803,4.11577982" id="Fill-100"></path>
                <path d="M117.848745,0.931192661 L117.026133,0.931192661 C116.937276,0.931192661 116.86216,0.965137615 116.798953,1.02477064 C116.73941,1.08715596 116.70918,1.16055046 116.70918,1.25412844 L116.70918,11.5266055 C116.70918,11.8192661 116.667042,11.9954128 116.581849,12.0458716 C116.498489,12.1027523 116.29421,12.133945 115.969928,12.133945 L114.739674,12.133945 L114.625168,12.133945 C114.535395,12.133945 114.475852,12.1211009 114.43921,12.0972477 C114.406232,12.0798165 114.361345,12.0192661 114.30455,11.9357798 L113.631254,10.2293578 L113.448044,9.79082569 C113.121015,9.00642202 112.772916,8.36330275 112.404664,7.86055046 C112.030916,7.36238532 111.629686,6.97522936 111.194563,6.6853211 C110.755775,6.39816514 110.291338,6.20458716 109.795755,6.09357798 C109.306585,5.98899083 108.778024,5.93853211 108.217402,5.93853211 C107.95816,5.93853211 107.685178,5.94954128 107.400286,5.96788991 C107.115395,5.99633028 106.851573,6.03027523 106.61798,6.08807339 C106.496145,6.10917431 106.411869,6.14770642 106.367899,6.19724771 C106.322096,6.24678899 106.298279,6.31559633 106.298279,6.40183486 L106.298279,7.09724771 C106.298279,7.27614679 106.424694,7.35229358 106.672027,7.33853211 C106.862565,7.31100917 107.086081,7.28715596 107.343491,7.2733945 C107.601817,7.26055046 107.775866,7.25045872 107.863807,7.25045872 C108.917264,7.25045872 109.750869,7.4587156 110.36279,7.8706422 C110.972879,8.28807339 111.461133,8.92844037 111.833965,9.79082569 L112.219622,10.6834862 L112.824215,12.133945 L105.10375,12.133945 L105.02039,12.133945 L101.490852,12.133945 L101.387338,12.133945 L96.5835751,12.133945 L96.4809775,12.133945 L92.964264,12.133945 L92.8625825,12.133945 L91.8567602,12.133945 L91.8430195,9.97706422 C91.8182862,9.36697248 91.7312615,8.81743119 91.5782812,8.30917431 C91.4289652,7.80091743 91.1880442,7.36513761 90.8637627,6.99541284 C90.5394812,6.6266055 90.1144343,6.34036697 89.5849578,6.13577982 C89.0591454,5.93853211 88.420659,5.83486239 87.6694985,5.83486239 C87.5467479,5.83486239 87.3516294,5.8440367 87.0887232,5.85045872 C86.8267331,5.86146789 86.547338,5.89266055 86.2560343,5.93853211 C86.1323677,5.94954128 86.0499232,5.98348624 85.9958763,6.03302752 C85.9473257,6.09082569 85.9207602,6.16605505 85.9207602,6.25321101 L85.9207602,6.94770642 C85.9207602,7.12385321 86.0316022,7.20366972 86.2560343,7.18165138 C86.4236714,7.1587156 86.6252022,7.14587156 86.8542146,7.13761468 C87.085059,7.13394495 87.2581923,7.12844037 87.3827751,7.12844037 C88.4499726,7.12844037 89.2148738,7.37522936 89.6866393,7.85779817 C90.1565726,8.33944954 90.4075701,9.07522936 90.4258911,10.0614679 L90.443296,12.133945 L85.8538886,12.133945 C85.7595356,12.133945 85.6835035,12.159633 85.6166319,12.2174312 C85.5515923,12.2743119 85.5176985,12.3431193 85.5176985,12.4366972 L85.5176985,13.293578 C85.5176985,13.387156 85.5515923,13.4559633 85.6166319,13.5045872 C85.6835035,13.5550459 85.7595356,13.5798165 85.8538886,13.5798165 L92.8625825,13.5798165 L92.964264,13.5798165 L96.4809775,13.5798165 L96.5835751,13.5798165 L101.387338,13.5798165 L101.490852,13.5798165 L105.02039,13.5798165 L105.10375,13.5798165 L114.625168,13.5798165 L114.739674,13.5798165 L115.513736,13.5798165 C115.706106,13.5798165 115.910385,13.5798165 116.130237,13.5733945 C116.34734,13.5678899 116.559864,13.5550459 116.757731,13.5431193 C116.961094,13.5256881 117.147968,13.5045872 117.315605,13.4889908 C117.483242,13.4715596 117.60874,13.446789 117.698513,13.4110092 C117.837753,13.359633 117.924778,13.2908257 117.97058,13.212844 C118.01455,13.1330275 118.046612,13.0366972 118.072261,12.9238532 C118.096995,12.7889908 118.108903,12.6376147 118.121728,12.4697248 C118.131805,12.3045872 118.141881,12.1293578 118.145545,11.946789 C118.152874,11.7697248 118.155622,11.5963303 118.155622,11.4229358 L118.155622,10.9724771 L118.155622,1.25412844 C118.155622,1.16055046 118.126308,1.08715596 118.072261,1.02477064 C118.01455,0.965137615 117.939434,0.931192661 117.848745,0.931192661" id="Fill-102"></path>
                <path d="M121.330924,13.5794495 L122.158117,13.5794495 C122.249721,13.5794495 122.322089,13.5482569 122.376136,13.480367 C122.432015,13.4106422 122.460413,13.3390826 122.460413,13.2455046 L122.460413,1.25376147 C122.460413,1.16018349 122.432015,1.08311927 122.376136,1.01889908 C122.322089,0.951009174 122.249721,0.915229358 122.158117,0.915229358 L121.330924,0.915229358 C121.244815,0.915229358 121.169699,0.951009174 121.106492,1.01889908 C121.0442,1.08311927 121.013055,1.16018349 121.013055,1.25376147 L121.013055,13.2455046 C121.013055,13.3390826 121.0442,13.4106422 121.106492,13.480367 C121.169699,13.5482569 121.244815,13.5794495 121.330924,13.5794495" id="Fill-104"></path>
                <path d="M129.544956,4.58706422 L130.26497,4.58706422 C130.374896,4.58706422 130.469249,4.55770642 130.544365,4.48798165 C130.614901,4.42284404 130.654291,4.33568807 130.654291,4.23568807 L130.654291,3.32651376 C130.654291,3.21366972 130.614901,3.12284404 130.544365,3.0540367 C130.469249,2.98889908 130.382225,2.95495413 130.283291,2.95495413 L129.544956,2.95495413 C129.441442,2.95495413 129.352585,2.98889908 129.273805,3.0540367 C129.195941,3.12284404 129.152886,3.21366972 129.152886,3.32651376 L129.152886,4.23568807 C129.152886,4.33568807 129.193193,4.42284404 129.264644,4.48798165 C129.337012,4.55770642 129.430449,4.58706422 129.544956,4.58706422" id="Fill-106"></path>
                <path d="M143.895785,13.5611009 C144.20083,13.5555963 144.493965,13.5455046 144.7642,13.5427523 C145.027106,13.5344954 145.254286,13.5225688 145.435664,13.4987156 C145.646356,13.4886239 145.769106,13.3711927 145.802084,13.1647706 C145.813993,13.0372477 145.831398,12.8730275 145.84697,12.6647706 C145.861627,12.4546789 145.870788,12.2390826 145.870788,12.0161468 L145.903765,11.3611009 L145.903765,10.7877064 L145.903765,10.499633 C145.903765,8.90422018 145.486047,7.75834862 144.652442,7.0546789 C143.815173,6.35559633 142.565681,6.00055046 140.908548,6.00055046 C140.619993,6.00055046 140.296627,6.00605505 139.932956,6.02165138 C139.575696,6.02990826 139.12042,6.04550459 138.572622,6.0693578 C138.586363,5.9253211 138.652319,5.68587156 138.783314,5.34550459 C138.909728,5.00880734 139.070953,4.6666055 139.261491,4.31981651 L140.843509,1.32073394 C140.879235,1.25376147 140.892975,1.19321101 140.892975,1.13724771 C140.892975,1.08036697 140.873738,1.02990826 140.833432,0.987706422 C140.794042,0.952844037 140.729002,0.930825688 140.642894,0.930825688 L139.852343,0.930825688 C139.726844,0.930825688 139.63524,0.967522936 139.5702,1.03449541 C139.513405,1.10238532 139.449281,1.18220183 139.397067,1.27119266 L138.134751,3.57486239 C137.955205,3.90513761 137.803141,4.20513761 137.673062,4.48770642 C137.543899,4.76844037 137.437637,5.03633028 137.351528,5.29688073 C137.270916,5.55284404 137.20496,5.80422018 137.163738,6.05284404 C137.114272,6.30330275 137.09137,6.55926606 137.09137,6.82715596 L137.09137,7.00972477 C137.09137,7.10422018 137.096867,7.15834862 137.108775,7.1812844 C137.143585,7.34917431 137.258091,7.43449541 137.447714,7.43449541 C137.510005,7.43449541 137.658405,7.43174312 137.881921,7.42440367 C138.105437,7.41889908 138.375672,7.41889908 138.687128,7.41889908 C139.005914,7.41889908 139.342104,7.4133945 139.708523,7.4106422 C140.070363,7.40697248 140.422126,7.40238532 140.759232,7.40238532 C141.319854,7.40238532 141.827346,7.44733945 142.287202,7.53633028 C142.745227,7.61981651 143.142793,7.7840367 143.466158,8.01798165 C143.791356,8.24642202 144.043269,8.56293578 144.221899,8.95926606 C144.40236,9.35651376 144.493965,9.85651376 144.493965,10.4647706 C144.493965,11.0106422 144.473812,11.5620183 144.439002,12.0968807 C144.318084,12.1097248 144.150447,12.1179817 143.937007,12.1244037 C143.723568,12.133578 143.5028,12.133578 143.262795,12.133578 L142.606904,12.133578 L142.121398,12.133578 L135.74661,12.133578 L135.644012,12.133578 L132.130963,12.133578 L132.028365,12.133578 L130.583756,12.133578 L130.583756,7.09779817 C130.583756,7.00788991 130.558106,6.92990826 130.502227,6.87211009 C130.445432,6.81155963 130.374896,6.77853211 130.301612,6.77853211 L129.471672,6.77853211 C129.385563,6.77853211 129.313195,6.81155963 129.255484,6.87211009 C129.198689,6.92990826 129.172123,7.00788991 129.172123,7.09779817 L129.172123,14.5592661 C129.172123,14.9299083 129.144642,15.2244037 129.087847,15.4427523 C129.030136,15.6592661 128.931202,15.8308257 128.785551,15.94 C128.641731,16.0500917 128.452109,16.1253211 128.214852,16.1583486 C127.977595,16.1913761 127.677131,16.2097248 127.304299,16.2097248 L126.953452,16.2097248 C126.76383,16.2097248 126.667644,16.2913761 126.667644,16.4482569 L126.667644,17.1684404 C126.667644,17.246422 126.683217,17.3069725 126.718027,17.3427523 C126.750089,17.3849541 126.823373,17.4179817 126.936047,17.4390826 C127.049637,17.4574312 127.197121,17.4785321 127.383079,17.486789 C127.564457,17.499633 127.68904,17.5088073 127.74217,17.5088073 C128.391649,17.5088073 128.91563,17.4244037 129.315943,17.2702752 C129.711677,17.1124771 130.024049,16.8344954 130.246649,16.4482569 C130.372148,16.2216514 130.457341,15.9565138 130.502227,15.6537615 C130.547114,15.3491743 130.568183,15.0188991 130.568183,14.6611009 L130.568183,13.5794495 L132.028365,13.5794495 L132.130963,13.5794495 L135.644012,13.5794495 L135.74661,13.5794495 L142.086588,13.5794495 L142.961415,13.5794495 C143.273788,13.5794495 143.587993,13.573945 143.895785,13.5611009" id="Fill-108"></path>
                <path d="M160.380185,10.1942202 C160.380185,11.0309174 160.229953,11.6180734 159.927657,11.9740367 C159.628109,12.3254128 159.102297,12.5033945 158.363961,12.5033945 C157.838148,12.5033945 157.403941,12.4199083 157.069583,12.2410092 C156.733393,12.0676147 156.505297,11.7327523 156.396287,11.2400917 C156.349568,10.9813761 156.328499,10.6722018 156.328499,10.3144037 L156.328499,9.57220183 C156.328499,8.79880734 156.487892,8.20706422 156.809425,7.79880734 C157.127294,7.3859633 157.654022,7.18137615 158.397855,7.18137615 C159.130694,7.18137615 159.640934,7.3887156 159.937734,7.80155963 C160.234534,8.21899083 160.380185,8.81073394 160.380185,9.57220183 L160.380185,10.1942202 Z M160.935311,6.75752294 C160.36278,6.15752294 159.519099,5.85018349 158.397855,5.85018349 C157.272946,5.85018349 156.41644,6.16027523 155.815511,6.77862385 C155.214583,7.39238532 154.915035,8.28504587 154.915035,9.43642202 L154.915035,11.0538532 C154.915035,11.2455963 154.900378,11.4116514 154.866484,11.5419266 C154.830758,11.676789 154.767551,11.7813761 154.671366,11.8566055 C154.578845,11.9281651 154.470751,11.9850459 154.345252,12.03 C154.221585,12.0804587 154.097919,12.1024771 153.974252,12.1180734 C153.853334,12.1290826 153.751652,12.1336697 153.671956,12.1336697 L153.234084,12.1336697 L153.131487,12.1336697 L150.393415,12.1336697 L150.393415,7.09788991 C150.393415,7.00798165 150.364101,6.93 150.310055,6.87220183 C150.252343,6.81165138 150.184556,6.77862385 150.106692,6.77862385 L149.284079,6.77862385 C149.195222,6.77862385 149.121022,6.81165138 149.066976,6.87220183 C149.006516,6.93 148.979951,7.00798165 148.979951,7.09788991 L148.979951,14.5593578 C148.979951,14.93 148.954301,15.2244954 148.899339,15.442844 C148.839795,15.6593578 148.737198,15.8309174 148.592462,15.9400917 C148.449558,16.0501835 148.25902,16.1254128 148.022679,16.1575229 C147.788171,16.1914679 147.48221,16.2098165 147.116706,16.2098165 L146.763111,16.2098165 C146.568909,16.2098165 146.477304,16.2914679 146.477304,16.4483486 L146.477304,17.1685321 C146.477304,17.2465138 146.492877,17.3070642 146.524939,17.342844 C146.557916,17.3850459 146.633032,17.4180734 146.74479,17.4391743 C146.859297,17.4575229 147.004948,17.4786239 147.189074,17.4868807 C147.374116,17.4997248 147.495951,17.5088991 147.55183,17.5088991 C148.204057,17.5088991 148.725289,17.4244954 149.125603,17.270367 C149.521336,17.1125688 149.836457,16.8345872 150.058141,16.4483486 C150.184556,16.2217431 150.26242,15.9566055 150.310055,15.6538532 C150.355857,15.3492661 150.376926,15.0189908 150.376926,14.6611927 L150.376926,13.5795413 L153.131487,13.5795413 L153.234084,13.5795413 L153.401721,13.5795413 C153.872571,13.5795413 154.301282,13.5254128 154.697931,13.4024771 C155.089084,13.2850459 155.375808,13.076789 155.571842,12.7740367 C155.850321,13.1336697 156.229566,13.3997248 156.705911,13.5740367 C157.184089,13.7501835 157.736467,13.8355046 158.363961,13.8355046 C159.574978,13.8355046 160.450721,13.5345872 160.988442,12.9309174 C161.525247,12.3318349 161.795482,11.4474312 161.795482,10.2822936 L161.795482,9.41807339 C161.795482,8.25293578 161.506926,7.36577982 160.935311,6.75752294 Z" id="Fill-110"></path>
                <path d="M3.10595704,19.0616514 L2.37678173,19.0616514 C2.29983358,19.0616514 2.24120642,19.0900917 2.1926558,19.1469725 C2.14502123,19.2029358 2.12486815,19.2699083 2.12486815,19.3423853 L2.12486815,27.6955963 C2.12486815,28.0515596 2.08272988,28.2836697 1.99387309,28.3983486 C1.91142864,28.5111927 1.73279901,28.5689908 1.46348049,28.5689908 L0.889117531,28.5689908 C0.691250864,28.5689908 0.589569383,28.6350459 0.589569383,28.7644037 L0.589569383,29.2827523 C0.589569383,29.4075229 0.677510123,29.4855046 0.844231111,29.5093578 C0.985302716,29.5304587 1.11263358,29.5433028 1.22255951,29.5533945 C1.33431753,29.5634862 1.46348049,29.5662385 1.6045521,29.5662385 C1.88486321,29.5662385 2.13219654,29.5359633 2.35571259,29.4855046 C2.57739654,29.4212844 2.75694222,29.3258716 2.90259407,29.1781651 C3.04549778,29.0322936 3.16000395,28.8414679 3.2387842,28.6020183 C3.31573235,28.3653211 3.35787062,28.0598165 3.35787062,27.6955963 L3.35787062,19.3423853 C3.35787062,19.2699083 3.33405333,19.2029358 3.28825086,19.1469725 C3.24336444,19.0900917 3.17924099,19.0616514 3.10595704,19.0616514" id="Fill-112"></path>
                <path d="M3.10595704,16.1409174 L2.39052247,16.1409174 C2.31265827,16.1409174 2.24670272,16.1675229 2.1926558,16.2216514 C2.13494469,16.2794495 2.10929531,16.3491743 2.10929531,16.4198165 L2.10929531,17.5592661 C2.10929531,17.6344954 2.13494469,17.6977982 2.1926558,17.7455046 C2.24670272,17.8005505 2.31265827,17.8244037 2.39052247,17.8244037 L3.10595704,17.8244037 C3.17924099,17.8244037 3.24611259,17.8005505 3.3038237,17.7455046 C3.35787062,17.6977982 3.3871842,17.6344954 3.3871842,17.5592661 L3.3871842,16.4198165 C3.3871842,16.3491743 3.35787062,16.2794495 3.3038237,16.2216514 C3.24611259,16.1675229 3.17924099,16.1409174 3.10595704,16.1409174" id="Fill-114"></path>
                <path d="M12.0509044,20.3414679 L11.3592872,20.3414679 C11.2878353,20.3414679 11.2209637,20.3717431 11.1614205,20.4277064 C11.1082896,20.48 11.078976,20.546055 11.078976,20.6222018 L11.078976,26.5543119 C10.7528625,26.7157798 10.428581,26.8451376 10.1107119,26.9515596 C9.79284272,27.0506422 9.48505012,27.1056881 9.18825012,27.1056881 C8.91068716,27.1056881 8.68167481,27.0744954 8.49113654,27.0130275 C8.29876617,26.9515596 8.13662543,26.8515596 8.01570691,26.7130275 C7.88746,26.5689908 7.79402296,26.3809174 7.73447975,26.1423853 C7.67127235,25.9020183 7.64195877,25.6047706 7.64195877,25.2506422 L7.64195877,20.6222018 C7.64195877,20.546055 7.61447728,20.48 7.55768222,20.4277064 C7.49997111,20.3717431 7.4349316,20.3414679 7.36164765,20.3414679 L6.68285506,20.3414679 C6.61231926,20.3414679 6.54544765,20.3717431 6.49048469,20.4277064 C6.43094148,20.48 6.40437605,20.546055 6.40437605,20.6222018 L6.40437605,25.2506422 C6.40437605,26.1882569 6.59949457,26.9102752 6.98789951,27.4185321 C7.37722049,27.9166972 7.99921802,28.1744954 8.8483958,28.1744954 C9.27161062,28.1744954 9.64902296,28.120367 9.98521309,28.0130275 C10.3214032,27.9038532 10.687823,27.7423853 11.078976,27.5249541 L11.078976,27.7891743 C11.078976,27.867156 11.1082896,27.933211 11.1559242,27.9919266 C11.2099711,28.0478899 11.2731785,28.0754128 11.3455464,28.0754128 L12.0509044,28.0754128 C12.1232723,28.0754128 12.1873958,28.0478899 12.2359464,27.9919266 C12.2909094,27.933211 12.3156427,27.867156 12.3156427,27.7891743 L12.3156427,20.6222018 C12.3156427,20.546055 12.2909094,20.48 12.2359464,20.4277064 C12.1873958,20.3717431 12.1232723,20.3414679 12.0509044,20.3414679" id="Fill-116"></path>
                <path d="M19.6584198,27.0063303 C19.4138346,27.0255963 19.1408519,27.0421101 18.8367235,27.063211 C18.5344272,27.0788073 18.2586963,27.0898165 18.0141111,27.0898165 C17.3215778,27.0898165 16.8452321,26.8815596 16.583242,26.4687156 C16.3212519,26.0586239 16.1884247,25.4733028 16.1884247,24.7026606 L16.1884247,23.6870642 C16.1884247,23.3136697 16.2232346,22.9806422 16.2818617,22.6824771 C16.3395728,22.3843119 16.4449185,22.1402752 16.583242,21.9356881 C16.7206494,21.7320183 16.9102716,21.5815596 17.1447802,21.4806422 C17.3774568,21.3742202 17.6705926,21.3255963 18.0141111,21.3255963 C18.2403753,21.3255963 18.513358,21.3356881 18.828479,21.3384404 C19.1463481,21.3476147 19.4239111,21.3742202 19.6584198,21.4237615 L19.6584198,27.0063303 Z M20.6395086,17.4999083 L19.9268222,17.4999083 C19.848958,17.4999083 19.7903309,17.5265138 19.7344519,17.5778899 C19.6831531,17.6292661 19.6584198,17.6953211 19.6584198,17.7677982 L19.6584198,20.3815596 C19.3872691,20.3375229 19.0987136,20.3044954 18.791837,20.2751376 C18.4922889,20.256789 18.2275506,20.243945 18.0141111,20.243945 C16.9863037,20.243945 16.2168222,20.5430275 15.7139111,21.1347706 C15.2082519,21.7292661 14.9535901,22.5797248 14.9535901,23.6870642 L14.9535901,24.7026606 C14.9535901,25.2255963 15.0158815,25.703578 15.1368,26.1329358 C15.2568025,26.5668807 15.4455086,26.9338532 15.7010864,27.2311009 C15.953,27.5320183 16.2708691,27.7622936 16.6556099,27.9246789 C17.0357704,28.0879817 17.4892148,28.1742202 18.0141111,28.1742202 C18.4455704,28.1742202 18.8761136,28.1540367 19.2993284,28.1173394 C19.7262074,28.0824771 20.1558346,28.0155046 20.6001185,27.9338532 C20.7283654,27.916422 20.8089778,27.8769725 20.8456198,27.8283486 C20.8795136,27.7778899 20.8941704,27.7054128 20.8941704,27.6127523 L20.8941704,17.7677982 C20.8941704,17.6953211 20.869437,17.6292661 20.8245506,17.5778899 C20.7732519,17.5265138 20.7127926,17.4999083 20.6395086,17.4999083 Z" id="Fill-118"></path>
                <path d="M24.9216731,17.4180734 L24.2080706,17.4180734 C24.1311225,17.4180734 24.066083,17.4446789 24.0092879,17.4997248 C23.956157,17.5566055 23.9250114,17.6263303 23.9250114,17.6978899 L23.9250114,18.8208257 C23.9250114,18.9006422 23.956157,18.9630275 24.0092879,19.0180734 C24.066083,19.0749541 24.1311225,19.1079817 24.2080706,19.1079817 L24.9216731,19.1079817 C24.9977052,19.1079817 25.0645768,19.0749541 25.1195398,19.0180734 C25.1745027,18.9630275 25.2029002,18.9006422 25.2029002,18.8208257 L25.2029002,17.6978899 C25.2029002,17.6263303 25.1745027,17.5566055 25.1195398,17.4997248 C25.0645768,17.4446789 24.9977052,17.4180734 24.9216731,17.4180734" id="Fill-120"></path>
                <path d="M24.8920847,20.3414679 L24.2206205,20.3414679 C24.1445884,20.3414679 24.0786328,20.3717431 24.0209217,20.4277064 C23.9668748,20.48 23.9403094,20.546055 23.9403094,20.6222018 L23.9403094,27.7891743 C23.9403094,27.867156 23.9668748,27.933211 24.0209217,27.9919266 C24.0786328,28.0478899 24.1445884,28.0754128 24.2206205,28.0754128 L24.8920847,28.0754128 C24.9708649,28.0754128 25.0331563,28.0478899 25.0926995,27.9919266 C25.1458304,27.933211 25.175144,27.867156 25.175144,27.7891743 L25.175144,20.6222018 C25.175144,20.546055 25.1458304,20.48 25.0926995,20.4277064 C25.0331563,20.3717431 24.9708649,20.3414679 24.8920847,20.3414679" id="Fill-122"></path>
                <path d="M32.7268719,20.3983486 C32.4951114,20.3515596 32.2276249,20.3130275 31.9225805,20.2891743 C31.615704,20.2570642 31.2978348,20.2442202 30.9735533,20.2442202 C30.4990398,20.2442202 30.0694126,20.3249541 29.6956644,20.4873394 C29.3200842,20.6533945 29.0067953,20.8827523 28.7548817,21.18 C28.5029681,21.4726606 28.3087657,21.8350459 28.1823509,22.2488073 C28.0486077,22.673578 27.9835681,23.1423853 27.9835681,23.6607339 L27.9835681,24.7533945 C27.9835681,25.2708257 28.0486077,25.7387156 28.1823509,26.1634862 C28.3087657,26.5818349 28.5066323,26.9442202 28.7612941,27.2368807 C29.020536,27.5341284 29.3310768,27.7625688 29.7011607,27.9249541 C30.0739928,28.0882569 30.4990398,28.1744954 30.9735533,28.1744954 C31.2978348,28.1744954 31.615704,28.1625688 31.9225805,28.1322936 C32.2276249,28.0992661 32.4951114,28.0625688 32.7268719,28.0157798 C32.840462,27.9974312 32.9164941,27.967156 32.9549681,27.9166972 C32.989778,27.873578 33.0099311,27.8047706 33.0099311,27.7084404 L33.0099311,27.2001835 C33.0099311,27.1277064 32.9842817,27.0744954 32.9366472,27.0414679 C32.8908447,27.0066055 32.8340496,26.9910092 32.7690101,26.9910092 L32.7140472,26.9910092 C32.4044225,27.0286239 32.1259435,27.0524771 31.8703657,27.0662385 C31.6184521,27.0827523 31.318904,27.0891743 30.9735533,27.0891743 C30.4037706,27.0891743 29.9640669,26.9001835 29.6672669,26.5222018 C29.3668027,26.1423853 29.2211509,25.5533945 29.2211509,24.7533945 L29.2211509,23.6607339 C29.2211509,22.8662385 29.3695509,22.2726606 29.6755114,21.8946789 C29.9759756,21.5157798 30.411099,21.3258716 30.9735533,21.3258716 C31.318904,21.3258716 31.6184521,21.3350459 31.8703657,21.3469725 C32.1259435,21.3598165 32.4044225,21.386422 32.7140472,21.4231193 L32.7690101,21.4231193 C32.8340496,21.4231193 32.8908447,21.4075229 32.9366472,21.373578 C32.9842817,21.3414679 33.0099311,21.2900917 33.0099311,21.2121101 L33.0099311,20.7066055 C33.0099311,20.6047706 32.989778,20.5322936 32.9549681,20.4873394 C32.9164941,20.4451376 32.840462,20.4176147 32.7268719,20.3983486" id="Fill-124"></path>
                <path d="M36.6996864,17.4180734 L35.987,17.4180734 C35.911884,17.4180734 35.8459284,17.4446789 35.7873012,17.4997248 C35.7341704,17.5566055 35.7076049,17.6263303 35.7076049,17.6978899 L35.7076049,18.8208257 C35.7076049,18.9006422 35.7341704,18.9630275 35.7873012,19.0180734 C35.8459284,19.0749541 35.911884,19.1079817 35.987,19.1079817 L36.6996864,19.1079817 C36.7757185,19.1079817 36.8453383,19.0749541 36.8975531,19.0180734 C36.952516,18.9630275 36.9827457,18.9006422 36.9827457,18.8208257 L36.9827457,17.6978899 C36.9827457,17.6263303 36.952516,17.5566055 36.8975531,17.4997248 C36.8453383,17.4446789 36.7757185,17.4180734 36.6996864,17.4180734" id="Fill-126"></path>
                <path d="M36.6728462,20.3414679 L35.9986338,20.3414679 C35.9235178,20.3414679 35.8593943,20.3717431 35.8007672,20.4277064 C35.7467202,20.48 35.7183227,20.546055 35.7183227,20.6222018 L35.7183227,27.7891743 C35.7183227,27.867156 35.7467202,27.933211 35.8007672,27.9919266 C35.8593943,28.0478899 35.9235178,28.0754128 35.9986338,28.0754128 L36.6728462,28.0754128 C36.7488783,28.0754128 36.8139178,28.0478899 36.8707128,27.9919266 C36.9256758,27.933211 36.9531573,27.867156 36.9531573,27.7891743 L36.9531573,20.6222018 C36.9531573,20.546055 36.9256758,20.48 36.8707128,20.4277064 C36.8139178,20.3717431 36.7488783,20.3414679 36.6728462,20.3414679" id="Fill-128"></path>
                <path d="M44.157336,26.6 C43.8174817,26.7853211 43.5023607,26.9247706 43.2028126,27.0229358 C42.8986842,27.1165138 42.5890595,27.1623853 42.2601978,27.1623853 C41.8479756,27.1623853 41.5319385,27.0743119 41.3056743,26.9 C41.0812422,26.7284404 40.9694842,26.3862385 40.9694842,25.8807339 L40.9694842,25.7091743 C40.9694842,25.4559633 40.9987978,25.2477064 41.0675015,25.0715596 C41.1297928,24.8981651 41.2461311,24.7559633 41.4046077,24.6477064 C41.5630842,24.5422018 41.7792719,24.4614679 42.0614151,24.4110092 C42.3435583,24.3633028 42.6953212,24.3357798 43.1148719,24.3357798 L44.157336,24.3357798 L44.157336,26.6 Z M42.653183,20.2440367 C42.1750052,20.2440367 41.7664472,20.2623853 41.4247607,20.3018349 C41.0839904,20.3376147 40.7679533,20.3752294 40.4766496,20.4275229 C40.279699,20.4504587 40.1816817,20.5458716 40.1816817,20.6917431 L40.1816817,21.187156 C40.1816817,21.2788991 40.205499,21.3385321 40.261378,21.3651376 C40.3090126,21.3954128 40.3694719,21.4110092 40.4345114,21.4110092 L40.5068793,21.4110092 C40.7826101,21.3834862 41.0977311,21.3541284 41.4467459,21.3357798 C41.7920965,21.3082569 42.1933262,21.2963303 42.653183,21.2963303 C43.2083089,21.2963303 43.5930496,21.4165138 43.8174817,21.6486239 C44.0428299,21.8816514 44.157336,22.2944954 44.157336,22.8862385 L44.157336,23.446789 L43.1148719,23.446789 C42.487378,23.446789 41.9606496,23.4963303 41.5319385,23.5908257 C41.0977311,23.6834862 40.7542126,23.8247706 40.483062,24.0174312 C40.2183237,24.2082569 40.0259533,24.4495413 39.9068669,24.7394495 C39.7896126,25.0238532 39.7337336,25.3495413 39.7337336,25.7275229 L39.7337336,25.893578 C39.7337336,26.333945 39.7960249,26.6990826 39.9215237,26.9908257 C40.0470225,27.2825688 40.2183237,27.512844 40.4290151,27.6926606 C40.6397064,27.8743119 40.8824595,27.9972477 41.1591064,28.0697248 C41.4339212,28.1385321 41.7197286,28.1743119 42.0201928,28.1743119 C42.4159262,28.1743119 42.7869262,28.1055046 43.1460175,27.9733945 C43.5023607,27.8440367 43.8449632,27.6816514 44.1811533,27.4862385 L44.1811533,27.7889908 C44.1811533,27.8669725 44.211383,27.933945 44.2690941,27.9917431 C44.3258891,28.0486239 44.3918447,28.0752294 44.4632965,28.0752294 L45.1091114,28.0752294 C45.1851435,28.0752294 45.250183,28.0486239 45.306062,27.9917431 C45.362857,27.933945 45.3930867,27.8669725 45.3930867,27.7889908 L45.3930867,22.8862385 C45.3930867,22.0633028 45.175983,21.4165138 44.750936,20.9477064 C44.3258891,20.4761468 43.6269435,20.2440367 42.653183,20.2440367 Z" id="Fill-130"></path>
                <path d="M49.4036425,17.5000917 L48.6772153,17.5000917 C48.5993511,17.5000917 48.5398079,17.5266972 48.4903412,17.5780734 C48.4463709,17.6294495 48.4253017,17.6955046 48.4253017,17.7679817 L48.4253017,27.7890826 C48.4253017,27.8670642 48.4463709,27.9340367 48.4903412,27.9918349 C48.5398079,28.0487156 48.5993511,28.0753211 48.6772153,28.0753211 L49.4036425,28.0753211 C49.4815067,28.0753211 49.5419659,28.0487156 49.5905165,27.9918349 C49.635403,27.9340367 49.6619684,27.8670642 49.6619684,27.7890826 L49.6619684,17.7679817 C49.6619684,17.6955046 49.635403,17.6294495 49.5905165,17.5780734 C49.5419659,17.5266972 49.4815067,17.5000917 49.4036425,17.5000917" id="Fill-132"></path>
                <path d="M59.9726538,24.007156 L58.5830069,23.1823853 C58.2559773,22.9906422 58.0132242,22.8236697 57.8538316,22.6704587 C57.6953551,22.513578 57.6147427,22.3310092 57.6147427,22.1099083 C57.6147427,21.7557798 57.7338291,21.5291743 57.9738341,21.4346789 C58.2110909,21.3475229 58.528044,21.2961468 58.9201131,21.2961468 C59.3140143,21.2961468 59.7115798,21.3089908 60.1201378,21.3383486 C60.5286958,21.3658716 60.8529773,21.3924771 61.0957304,21.4108257 L61.1378686,21.4108257 C61.2963452,21.4108257 61.3778736,21.3355963 61.3778736,21.1695413 L61.3778736,20.707156 C61.3778736,20.5456881 61.2881007,20.4511927 61.1113032,20.4282569 C60.7815254,20.3713761 60.4352588,20.3245872 60.0660909,20.2924771 C59.6941748,20.2594495 59.3140143,20.2438532 58.9201131,20.2438532 C58.5536933,20.2438532 58.2193353,20.2722936 57.9087946,20.3291743 C57.601918,20.3814679 57.3344316,20.4805505 57.1090835,20.6291743 C56.8837353,20.773211 56.7069378,20.9686239 56.5741106,21.2025688 C56.4449477,21.4429358 56.3808242,21.7502752 56.3808242,22.1099083 C56.3808242,22.5649541 56.5118193,22.9466055 56.7692291,23.2585321 C57.0348835,23.5713761 57.3829822,23.8631193 57.8098612,24.1218349 L59.2315699,24.9704587 C59.6337156,25.2108257 59.9076143,25.4144954 60.0560143,25.5704587 C60.2071625,25.7300917 60.2804464,25.9172477 60.2804464,26.132844 C60.2804464,26.5172477 60.1650242,26.7823853 59.9323477,26.9209174 C59.696923,27.0631193 59.3479081,27.1319266 58.8926316,27.1319266 C58.7598044,27.1319266 58.6068242,27.1282569 58.4263625,27.12 C58.2541452,27.1108257 58.0617748,27.0979817 57.8538316,27.0833028 C57.6458884,27.0658716 57.4425254,27.0502752 57.2419106,27.0355963 C57.0403798,27.013578 56.8544217,26.9933945 56.6886168,26.9777982 L56.6309057,26.9777982 C56.5567057,26.9777982 56.4953304,26.9933945 56.4495279,27.0355963 C56.4046415,27.0713761 56.3808242,27.1227523 56.3808242,27.1888073 L56.3808242,27.6814679 C56.3808242,27.82 56.4770094,27.9163303 56.67396,27.960367 C56.8425131,28.0053211 57.0284711,28.0420183 57.2354983,28.0695413 C57.4425254,28.0878899 57.6458884,28.1080734 57.8455872,28.1319266 C58.0498662,28.1502752 58.2404044,28.1631193 58.4208662,28.1658716 C58.6068242,28.1686239 58.7598044,28.1741284 58.8926316,28.1741284 C59.2856168,28.1741284 59.64196,28.1319266 59.9671575,28.0511927 C60.2896069,27.973211 60.5644217,27.8530275 60.7934341,27.686055 C61.0242785,27.5245872 61.20016,27.3126606 61.330239,27.0530275 C61.4557378,26.7979817 61.5189452,26.4906422 61.5189452,26.132844 C61.5189452,25.7236697 61.404439,25.3493578 61.1772588,25.0236697 C60.9555748,24.6943119 60.5525131,24.360367 59.9726538,24.007156" id="Fill-134"></path>
                <path d="M68.858058,23.6604587 L65.1398136,23.6604587 L65.1398136,23.5329358 C65.1398136,22.7723853 65.3010383,22.216422 65.6253198,21.8595413 C65.9431889,21.4999083 66.4112901,21.3255963 67.020463,21.3255963 C67.6369642,21.3255963 68.097737,21.4925688 68.4009494,21.8356881 C68.7041617,22.1687156 68.858058,22.7329358 68.858058,23.5329358 L68.858058,23.6604587 Z M69.3307395,21.1347706 C69.0714975,20.8485321 68.7508802,20.6292661 68.3688877,20.476055 C67.9841469,20.316422 67.5352827,20.243945 67.020463,20.243945 C66.0100605,20.243945 65.2378309,20.5356881 64.7046901,21.1246789 C64.1715494,21.7210092 63.9031469,22.5191743 63.9031469,23.5329358 L63.9031469,24.7989908 C63.9031469,25.4549541 63.9920037,26.0008257 64.1788778,26.4320183 C64.3584235,26.8577064 64.5984284,27.2044954 64.8924802,27.4622936 C65.1865321,27.7182569 65.5263864,27.903578 65.9102111,28.0127523 C66.2949519,28.1200917 66.687937,28.1742202 67.0891667,28.1742202 C67.5673444,28.1742202 68.0024679,28.150367 68.4009494,28.1081651 C68.801263,28.069633 69.1979123,28.0054128 69.6055543,27.9338532 C69.7136481,27.916422 69.7915123,27.8769725 69.8281543,27.8283486 C69.8675444,27.7778899 69.8858654,27.7054128 69.8858654,27.6127523 L69.8858654,27.1320183 C69.8858654,27.0531193 69.860216,27.0063303 69.8125815,26.9778899 C69.7676951,26.9512844 69.7136481,26.9366055 69.6596012,26.9366055 L69.5872333,26.9366055 C69.2638679,26.9806422 68.8681346,27.0237615 68.4009494,27.0476147 C67.9392605,27.0742202 67.5050531,27.0898165 67.0891667,27.0898165 C66.445184,27.0898165 65.9560136,26.9136697 65.630816,26.5687156 C65.3010383,26.222844 65.1398136,25.6338532 65.1398136,24.7989908 L65.1398136,24.6008257 L69.840979,24.6008257 C70.0186926,24.6008257 70.1112136,24.4989908 70.1112136,24.2934862 L70.1112136,23.5329358 C70.1112136,23.0375229 70.044342,22.5833945 69.9124309,22.1769725 C69.7786877,21.7659633 69.5872333,21.4210092 69.3307395,21.1347706 Z" id="Fill-136"></path>
                <path d="M75.95112,20.2438532 C75.6295867,20.2438532 75.3117175,20.2952294 74.98652,20.3979817 C74.6631546,20.4998165 74.3242163,20.6741284 73.9687891,20.9181651 L73.9687891,20.6218349 C73.9687891,20.5456881 73.946804,20.4805505 73.892757,20.4282569 C73.8432904,20.3713761 73.7782509,20.3411009 73.7003867,20.3411009 L73.0426632,20.3411009 C72.9666311,20.3411009 72.9043398,20.3713761 72.853957,20.4282569 C72.8026583,20.4805505 72.7760928,20.5456881 72.7760928,20.6218349 L72.7760928,27.7897248 C72.7760928,27.8677064 72.8026583,27.9337615 72.853957,27.9915596 C72.9043398,28.0484404 72.9666311,28.0750459 73.0426632,28.0750459 L73.7297002,28.0750459 C73.8048163,28.0750459 73.874436,28.0484404 73.928483,27.9915596 C73.9816138,27.9337615 74.0109274,27.8677064 74.0109274,27.7897248 L74.0109274,21.9034862 C74.3663546,21.6869725 74.6970484,21.5337615 74.9993447,21.4429358 C75.3062212,21.353945 75.6213422,21.3089908 75.95112,21.3089908 C76.1434904,21.3089908 76.2451719,21.232844 76.2451719,21.0704587 L76.2451719,20.4961468 C76.2451719,20.3291743 76.1434904,20.2438532 75.95112,20.2438532" id="Fill-138"></path>
                <path d="M84.2725126,20.3414679 L83.5030311,20.3414679 C83.3802805,20.3414679 83.2941719,20.4313761 83.2364607,20.6084404 L81.6187175,26.7387156 C81.571999,26.9102752 81.5280286,27.0157798 81.4858904,27.0662385 C81.4446681,27.1194495 81.3906212,27.1488073 81.3246657,27.1488073 C81.2522978,27.1488073 81.1964188,27.1194495 81.1597768,27.0662385 C81.1194706,27.0157798 81.0791644,26.9102752 81.0287817,26.7387156 L79.4147027,20.6084404 C79.3606558,20.4313761 79.271799,20.3414679 79.1499644,20.3414679 L78.3768188,20.3414679 C78.2265867,20.3414679 78.1551348,20.420367 78.1551348,20.5809174 C78.1551348,20.6166972 78.1597151,20.6488073 78.1688756,20.68 L80.0632657,27.373578 C80.1557867,27.6900917 80.3170114,27.9038532 80.5368632,28.0130275 C80.7631274,28.120367 81.0278657,28.1744954 81.3246657,28.1744954 C81.6242138,28.1744954 81.8889521,28.120367 82.110636,28.0130275 C82.3396484,27.9038532 82.4953768,27.6900917 82.5897299,27.373578 L84.48412,20.68 C84.4941965,20.6488073 84.5006089,20.6166972 84.5006089,20.5809174 C84.5006089,20.420367 84.4227447,20.3414679 84.2725126,20.3414679" id="Fill-140"></path>
                <path d="M88.0910644,20.3414679 L87.4168521,20.3414679 C87.3463163,20.3414679 87.2766965,20.3717431 87.2244817,20.4277064 C87.1667706,20.48 87.1392891,20.546055 87.1392891,20.6222018 L87.1392891,27.7891743 C87.1392891,27.867156 87.1667706,27.933211 87.2244817,27.9919266 C87.2766965,28.0478899 87.3463163,28.0754128 87.4168521,28.0754128 L88.0910644,28.0754128 C88.1689286,28.0754128 88.2339681,28.0478899 88.2889311,27.9919266 C88.3484743,27.933211 88.3722916,27.867156 88.3722916,27.7891743 L88.3722916,20.6222018 C88.3722916,20.546055 88.3484743,20.48 88.2889311,20.4277064 C88.2339681,20.3717431 88.1689286,20.3414679 88.0910644,20.3414679" id="Fill-142"></path>
                <path d="M88.1205612,17.4180734 L87.4051267,17.4180734 C87.3300106,17.4180734 87.2649711,17.4446789 87.20726,17.4997248 C87.1532131,17.5566055 87.1257316,17.6263303 87.1257316,17.6978899 L87.1257316,18.8208257 C87.1257316,18.9006422 87.1532131,18.9630275 87.20726,19.0180734 C87.2649711,19.0749541 87.3300106,19.1079817 87.4051267,19.1079817 L88.1205612,19.1079817 C88.1956773,19.1079817 88.2616328,19.0749541 88.3184279,19.0180734 C88.3724748,18.9630275 88.4036205,18.9006422 88.4036205,18.8208257 L88.4036205,17.6978899 C88.4036205,17.6263303 88.3724748,17.5566055 88.3184279,17.4997248 C88.2616328,17.4446789 88.1956773,17.4180734 88.1205612,17.4180734" id="Fill-144"></path>
                <path d="M95.9243859,20.3983486 C95.6944575,20.3515596 95.424223,20.3130275 95.1219267,20.2891743 C94.8150501,20.2570642 94.4990131,20.2442202 94.1710674,20.2442202 C93.6947217,20.2442202 93.272423,20.3249541 92.8931785,20.4873394 C92.5212625,20.6533945 92.2061415,20.8827523 91.955144,21.18 C91.7041464,21.4726606 91.5081119,21.8350459 91.3798649,22.2488073 C91.2479538,22.673578 91.1810822,23.1423853 91.1810822,23.6607339 L91.1810822,24.7533945 C91.1810822,25.2708257 91.2479538,25.7387156 91.3798649,26.1634862 C91.5081119,26.5818349 91.7041464,26.9442202 91.9615563,27.2368807 C92.2207983,27.5341284 92.5331711,27.7625688 92.902339,27.9249541 C93.272423,28.0882569 93.6947217,28.1744954 94.1710674,28.1744954 C94.4990131,28.1744954 94.8150501,28.1625688 95.1219267,28.1322936 C95.424223,28.0992661 95.6944575,28.0625688 95.9243859,28.0157798 C96.037976,27.9974312 96.1167563,27.967156 96.1524822,27.9166972 C96.1891242,27.873578 96.2074452,27.8047706 96.2074452,27.7084404 L96.2074452,27.2001835 C96.2074452,27.1277064 96.1836279,27.0744954 96.1378254,27.0414679 C96.0901909,27.0066055 96.0333958,26.9910092 95.9665242,26.9910092 L95.9133933,26.9910092 C95.6019365,27.0286239 95.3252896,27.0524771 95.071544,27.0662385 C94.8187143,27.0827523 94.516418,27.0891743 94.1710674,27.0891743 C93.6012847,27.0891743 93.1679933,26.9001835 92.8684452,26.5222018 C92.5652328,26.1423853 92.4150007,25.5533945 92.4150007,24.7533945 L92.4150007,23.6607339 C92.4150007,22.8662385 92.567981,22.2726606 92.8748575,21.8946789 C93.1771538,21.5157798 93.6104452,21.3258716 94.1710674,21.3258716 C94.516418,21.3258716 94.8187143,21.3350459 95.071544,21.3469725 C95.3252896,21.3598165 95.6019365,21.386422 95.9133933,21.4231193 L95.9665242,21.4231193 C96.0333958,21.4231193 96.0901909,21.4075229 96.1378254,21.373578 C96.1836279,21.3414679 96.2074452,21.2900917 96.2074452,21.2121101 L96.2074452,20.7066055 C96.2074452,20.6047706 96.1891242,20.5322936 96.1524822,20.4873394 C96.1167563,20.4451376 96.037976,20.4176147 95.9243859,20.3983486" id="Fill-146"></path>
                <path d="M103.465304,23.6604587 L99.7433958,23.6604587 L99.7433958,23.5329358 C99.7433958,22.7723853 99.9082847,22.216422 100.227986,21.8595413 C100.553183,21.4999083 101.021285,21.3255963 101.627709,21.3255963 C102.246959,21.3255963 102.702235,21.4925688 103.008196,21.8356881 C103.314156,22.1687156 103.465304,22.7329358 103.465304,23.5329358 L103.465304,23.6604587 Z M103.940734,21.1347706 C103.680576,20.8485321 103.356295,20.6292661 102.971554,20.476055 C102.588645,20.316422 102.142529,20.243945 101.627709,20.243945 C100.617307,20.243945 99.8423291,20.5356881 99.3119365,21.1246789 C98.7769637,21.7210092 98.5113094,22.5191743 98.5113094,23.5329358 L98.5113094,24.7989908 C98.5113094,25.4549541 98.6038304,26.0008257 98.781544,26.4320183 C98.968418,26.8577064 99.209339,27.2044954 99.4997267,27.4622936 C99.7965267,27.7182569 100.134549,27.903578 100.517458,28.0127523 C100.902198,28.1200917 101.292435,28.1742202 101.696413,28.1742202 C102.174591,28.1742202 102.612462,28.150367 103.008196,28.1081651 C103.408509,28.069633 103.807907,28.0054128 104.210053,27.9338532 C104.323643,27.916422 104.396011,27.8769725 104.438149,27.8283486 C104.473875,27.7778899 104.492196,27.7054128 104.492196,27.6127523 L104.492196,27.1320183 C104.492196,27.0531193 104.467462,27.0063303 104.418912,26.9778899 C104.374941,26.9512844 104.323643,26.9366055 104.2641,26.9366055 L104.198144,26.9366055 C103.868366,26.9806422 103.470801,27.0237615 103.008196,27.0476147 C102.546507,27.0742202 102.108635,27.0898165 101.696413,27.0898165 C101.05243,27.0898165 100.564176,26.9136697 100.235314,26.5687156 C99.9110328,26.222844 99.7433958,25.6338532 99.7433958,24.7989908 L99.7433958,24.6008257 L104.450974,24.6008257 C104.625023,24.6008257 104.71846,24.4989908 104.71846,24.2934862 L104.71846,23.5329358 C104.71846,23.0375229 104.64884,22.5833945 104.516013,22.1769725 C104.390514,21.7659633 104.19448,21.4210092 103.940734,21.1347706 Z" id="Fill-148"></path>
                <path d="M110.723439,24.007156 L109.33654,23.1823853 C109.005846,22.9906422 108.763093,22.8236697 108.604616,22.6704587 C108.444308,22.513578 108.363695,22.3310092 108.363695,22.1099083 C108.363695,21.7557798 108.484614,21.5291743 108.724619,21.4346789 C108.96554,21.3475229 109.276997,21.2961468 109.673646,21.2961468 C110.062967,21.2961468 110.466029,21.3089908 110.873671,21.3383486 C111.280397,21.3658716 111.602846,21.3924771 111.846515,21.4108257 L111.888653,21.4108257 C112.050794,21.4108257 112.128658,21.3355963 112.128658,21.1695413 L112.128658,20.707156 C112.128658,20.5456881 112.040718,20.4511927 111.860256,20.4282569 C111.534142,20.3713761 111.184211,20.3245872 110.813211,20.2924771 C110.444043,20.2594495 110.062967,20.2438532 109.673646,20.2438532 C109.307226,20.2438532 108.97012,20.2722936 108.658663,20.3291743 C108.351787,20.3814679 108.0843,20.4805505 107.860784,20.6291743 C107.637268,20.773211 107.457722,20.9686239 107.324895,21.2025688 C107.197564,21.4429358 107.129777,21.7502752 107.129777,22.1099083 C107.129777,22.5649541 107.262604,22.9466055 107.522762,23.2585321 C107.7875,23.5713761 108.131019,23.8631193 108.562478,24.1218349 L109.97869,24.9704587 C110.3845,25.2108257 110.657483,25.4144954 110.808631,25.5704587 C110.957031,25.7300917 111.035811,25.9172477 111.035811,26.132844 C111.035811,26.5172477 110.913977,26.7823853 110.6813,26.9209174 C110.446792,27.0631193 110.101441,27.1319266 109.643416,27.1319266 C109.510589,27.1319266 109.357609,27.1282569 109.180811,27.12 C109.00035,27.1108257 108.81256,27.0979817 108.604616,27.0833028 C108.400337,27.0658716 108.196058,27.0502752 107.992695,27.0355963 C107.793913,27.013578 107.607955,26.9933945 107.439401,26.9777982 L107.385355,26.9777982 C107.306574,26.9777982 107.247031,26.9933945 107.199397,27.0355963 C107.155426,27.0713761 107.129777,27.1227523 107.129777,27.1888073 L107.129777,27.6814679 C107.129777,27.82 107.22871,27.9163303 107.425661,27.960367 C107.593298,28.0053211 107.782004,28.0420183 107.985367,28.0695413 C108.19331,28.0878899 108.393925,28.1080734 108.59912,28.1319266 C108.796071,28.1502752 108.992105,28.1631193 109.174399,28.1658716 C109.354861,28.1686239 109.510589,28.1741284 109.643416,28.1741284 C110.035485,28.1741284 110.392745,28.1319266 110.717026,28.0511927 C111.040392,27.973211 111.317039,27.8530275 111.546051,27.686055 C111.774147,27.5245872 111.953693,27.3126606 112.081024,27.0530275 C112.206522,26.7979817 112.271562,26.4906422 112.271562,26.132844 C112.271562,25.7236697 112.157056,25.3493578 111.929876,25.0236697 C111.707276,24.6943119 111.306046,24.360367 110.723439,24.007156" id="Fill-150"></path>
                <path d="M123.340187,20.3983486 C123.108426,20.3515596 122.840024,20.3130275 122.534063,20.2891743 C122.229019,20.2570642 121.912982,20.2442202 121.58412,20.2442202 C121.110522,20.2442202 120.683643,20.3249541 120.309895,20.4873394 C119.932483,20.6533945 119.62011,20.8827523 119.369113,21.18 C119.112619,21.4726606 118.923913,21.8350459 118.792001,22.2488073 C118.663755,22.673578 118.594135,23.1423853 118.594135,23.6607339 L118.594135,24.7533945 C118.594135,25.2708257 118.663755,25.7387156 118.792001,26.1634862 C118.923913,26.5818349 119.115367,26.9442202 119.374609,27.2368807 C119.632019,27.5341284 119.944392,27.7625688 120.317224,27.9249541 C120.68914,28.0882569 121.110522,28.1744954 121.58412,28.1744954 C121.912982,28.1744954 122.229019,28.1625688 122.534063,28.1322936 C122.840024,28.0992661 123.108426,28.0625688 123.340187,28.0157798 C123.452861,27.9974312 123.527977,27.967156 123.564619,27.9166972 C123.604925,27.873578 123.623246,27.8047706 123.623246,27.7084404 L123.623246,27.2001835 C123.623246,27.1277064 123.597597,27.0744954 123.551794,27.0414679 C123.505076,27.0066055 123.450113,26.9910092 123.382325,26.9910092 L123.327362,26.9910092 C123.017737,27.0286239 122.734678,27.0524771 122.484597,27.0662385 C122.231767,27.0827523 121.932219,27.0891743 121.58412,27.0891743 C121.012505,27.0891743 120.58013,26.9001835 120.280582,26.5222018 C119.981034,26.1423853 119.830801,25.5533945 119.830801,24.7533945 L119.830801,23.6607339 C119.830801,22.8662385 119.983782,22.2726606 120.28791,21.8946789 C120.592955,21.5157798 121.026246,21.3258716 121.58412,21.3258716 C121.932219,21.3258716 122.231767,21.3350459 122.484597,21.3469725 C122.734678,21.3598165 123.017737,21.386422 123.327362,21.4231193 L123.382325,21.4231193 C123.450113,21.4231193 123.505076,21.4075229 123.551794,21.373578 C123.597597,21.3414679 123.623246,21.2900917 123.623246,21.2121101 L123.623246,20.7066055 C123.623246,20.6047706 123.604925,20.5322936 123.564619,20.4873394 C123.527977,20.4451376 123.452861,20.4176147 123.340187,20.3983486" id="Fill-152"></path>
                <path d="M130.878357,23.6604587 L127.161029,23.6604587 L127.161029,23.5329358 C127.161029,22.7723853 127.322253,22.216422 127.640122,21.8595413 C127.96532,21.4999083 128.434337,21.3255963 129.040762,21.3255963 C129.659095,21.3255963 130.11712,21.4925688 130.423997,21.8356881 C130.726293,22.1687156 130.878357,22.7329358 130.878357,23.5329358 L130.878357,23.6604587 Z M131.350122,21.1347706 C131.092713,20.8485321 130.769347,20.6292661 130.390103,20.476055 C130.007194,20.316422 129.556498,20.243945 129.040762,20.243945 C128.028527,20.243945 127.257214,20.5356881 126.721325,21.1246789 C126.187268,21.7210092 125.924362,22.5191743 125.924362,23.5329358 L125.924362,24.7989908 C125.924362,25.4549541 126.015051,26.0008257 126.197345,26.4320183 C126.380555,26.8577064 126.618727,27.2044954 126.915527,27.4622936 C127.207747,27.7182569 127.544853,27.903578 127.928678,28.0127523 C128.313419,28.1200917 128.709152,28.1742202 129.112214,28.1742202 C129.585811,28.1742202 130.023683,28.150367 130.423997,28.1081651 C130.820646,28.069633 131.220043,28.0054128 131.622189,27.9338532 C131.734863,27.916422 131.813643,27.8769725 131.849369,27.8283486 C131.886011,27.7778899 131.903416,27.7054128 131.903416,27.6127523 L131.903416,27.1320183 C131.903416,27.0531193 131.878683,27.0063303 131.831048,26.9778899 C131.78891,26.9512844 131.734863,26.9366055 131.680816,26.9366055 L131.609364,26.9366055 C131.282335,26.9806422 130.886601,27.0237615 130.423997,27.0476147 C129.95956,27.0742202 129.520772,27.0898165 129.112214,27.0898165 C128.463651,27.0898165 127.977229,26.9136697 127.651115,26.5687156 C127.322253,26.222844 127.161029,25.6338532 127.161029,24.7989908 L127.161029,24.6008257 L131.862194,24.6008257 C132.038992,24.6008257 132.130597,24.4989908 132.130597,24.2934862 L132.130597,23.5329358 C132.130597,23.0375229 132.062809,22.5833945 131.929982,22.1769725 C131.800819,21.7659633 131.609364,21.4210092 131.350122,21.1347706 Z" id="Fill-154"></path>
                <path d="M138.26483,20.2438532 C137.842531,20.2438532 137.463286,20.3016514 137.127096,20.4007339 C136.790906,20.5126606 136.425402,20.6741284 136.031501,20.8897248 L136.031501,20.6218349 C136.031501,20.5456881 136.00402,20.4805505 135.956385,20.4282569 C135.902338,20.3713761 135.841879,20.3411009 135.764015,20.3411009 L135.061405,20.3411009 C134.989037,20.3411009 134.923998,20.3713761 134.873615,20.4282569 C134.8214,20.4805505 134.796667,20.5456881 134.796667,20.6218349 L134.796667,27.7897248 C134.796667,27.8677064 134.8214,27.9337615 134.873615,27.9915596 C134.923998,28.0484404 134.989037,28.0750459 135.061405,28.0750459 L135.753022,28.0750459 C135.823558,28.0750459 135.889514,28.0484404 135.950889,27.9915596 C136.00402,27.9337615 136.031501,27.8677064 136.031501,27.7897248 L136.031501,21.8594495 C136.357615,21.6979817 136.682812,21.5658716 136.999765,21.466789 C137.319467,21.3622018 137.624511,21.3089908 137.92864,21.3089908 C138.188798,21.3089908 138.415978,21.3411009 138.615677,21.4053211 C138.813543,21.4622018 138.975684,21.5658716 139.097519,21.7053211 C139.227598,21.8466055 139.318286,22.0337615 139.380578,22.273211 C139.436457,22.513578 139.474015,22.8126606 139.474015,23.1686239 L139.474015,27.7897248 C139.474015,27.8677064 139.499664,27.9337615 139.555543,27.9915596 C139.612338,28.0484404 139.677378,28.0750459 139.749746,28.0750459 L140.424874,28.0750459 C140.500906,28.0750459 140.566862,28.0484404 140.619993,27.9915596 C140.681368,27.9337615 140.705185,27.8677064 140.705185,27.7897248 L140.705185,23.1686239 C140.705185,22.2319266 140.511899,21.5044037 140.125326,20.9988991 C139.737837,20.4961468 139.114923,20.2438532 138.26483,20.2438532" id="Fill-156"></path>
                <path d="M147.122111,27.1774312 L146.336141,27.1774312 C146.053081,27.1774312 145.861627,27.1223853 145.748037,27.0233028 C145.633531,26.9141284 145.579484,26.6737615 145.579484,26.2902752 L145.579484,21.3838532 L147.09921,21.3838532 C147.170662,21.3838532 147.235701,21.3508257 147.293412,21.2957798 C147.350207,21.2388991 147.374025,21.1755963 147.374025,21.100367 L147.374025,20.6214679 C147.374025,20.5453211 147.350207,20.4801835 147.293412,20.4278899 C147.235701,20.3719266 147.170662,20.3416514 147.09921,20.3416514 L145.579484,20.3416514 L145.579484,18.8113761 C145.579484,18.7370642 145.558415,18.6746789 145.516277,18.6297248 C145.475054,18.5902752 145.426504,18.5700917 145.370625,18.5700917 L145.326654,18.5700917 L144.595647,18.6811009 C144.42801,18.7077064 144.342817,18.806789 144.342817,18.9627523 L144.342817,20.3416514 L142.982484,20.3416514 C142.802938,20.3416514 142.714998,20.4278899 142.714998,20.5921101 L142.714998,20.9719266 C142.714998,21.1233028 142.802938,21.2095413 142.982484,21.2269725 L144.342817,21.3838532 L144.342817,26.2902752 C144.342817,26.6737615 144.384956,26.9902752 144.461904,27.2315596 C144.543432,27.4746789 144.660686,27.6691743 144.816415,27.8077064 C144.967563,27.9462385 145.16543,28.0425688 145.405435,28.0966972 C145.639027,28.1444037 145.927583,28.1737615 146.25278,28.1737615 C146.383775,28.1737615 146.534007,28.166422 146.703477,28.1508257 C146.870198,28.1388991 147.025926,28.1205505 147.164249,28.0994495 C147.332802,28.0755963 147.416163,27.9930275 147.416163,27.8645872 L147.416163,27.372844 C147.416163,27.2370642 147.319978,27.1774312 147.122111,27.1774312" id="Fill-158"></path>
                <path d="M154.409742,23.6604587 L150.687833,23.6604587 L150.687833,23.5329358 C150.687833,22.7723853 150.851806,22.216422 151.175172,21.8595413 C151.499453,21.4999083 151.961142,21.3255963 152.573979,21.3255963 C153.189564,21.3255963 153.647589,21.4925688 153.954465,21.8356881 C154.256762,22.1687156 154.409742,22.7329358 154.409742,23.5329358 L154.409742,23.6604587 Z M154.877843,21.1347706 C154.620433,20.8485321 154.300732,20.6292661 153.917823,20.476055 C153.534915,20.316422 153.082386,20.243945 152.573979,20.243945 C151.559912,20.243945 150.786767,20.5356881 150.256374,21.1246789 C149.722317,21.7210092 149.454831,22.5191743 149.454831,23.5329358 L149.454831,24.7989908 C149.454831,25.4549541 149.548268,26.0008257 149.727814,26.4320183 C149.907359,26.8577064 150.147364,27.2044954 150.443248,27.4622936 C150.740048,27.7182569 151.078986,27.903578 151.461895,28.0127523 C151.843888,28.1200917 152.236873,28.1742202 152.639935,28.1742202 C153.119028,28.1742202 153.557816,28.150367 153.954465,28.1081651 C154.351115,28.069633 154.752344,28.0054128 155.15449,27.9338532 C155.267164,27.916422 155.341364,27.8769725 155.375258,27.8283486 C155.415564,27.7778899 155.433885,27.7054128 155.433885,27.6127523 L155.433885,27.1320183 C155.433885,27.0531193 155.413732,27.0063303 155.365181,26.9778899 C155.315715,26.9512844 155.267164,26.9366055 155.210369,26.9366055 L155.140749,26.9366055 C154.812804,26.9806422 154.41707,27.0237615 153.954465,27.0476147 C153.492777,27.0742202 153.053989,27.0898165 152.639935,27.0898165 C151.997784,27.0898165 151.507698,26.9136697 151.180668,26.5687156 C150.851806,26.222844 150.687833,25.6338532 150.687833,24.7989908 L150.687833,24.6008257 L155.395411,24.6008257 C155.56946,24.6008257 155.658317,24.4989908 155.658317,24.2934862 L155.658317,23.5329358 C155.658317,23.0375229 155.593278,22.5833945 155.460451,22.1769725 C155.32854,21.7659633 155.138001,21.4210092 154.877843,21.1347706 Z" id="Fill-160"></path>
                <path d="M161.499781,20.2438532 C161.182828,20.2438532 160.861295,20.2952294 160.539761,20.3979817 C160.216396,20.4998165 159.874709,20.6741284 159.519282,20.9181651 L159.519282,20.6218349 C159.519282,20.5456881 159.495465,20.4805505 159.441418,20.4282569 C159.393783,20.3713761 159.328744,20.3411009 159.249048,20.3411009 L158.595904,20.3411009 C158.517124,20.3411009 158.454833,20.3713761 158.402618,20.4282569 C158.3559,20.4805505 158.324754,20.5456881 158.324754,20.6218349 L158.324754,27.7897248 C158.324754,27.8677064 158.3559,27.9337615 158.402618,27.9915596 C158.454833,28.0484404 158.517124,28.0750459 158.595904,28.0750459 L159.282025,28.0750459 C159.354393,28.0750459 159.423097,28.0484404 159.477144,27.9915596 C159.534855,27.9337615 159.56142,27.8677064 159.56142,27.7897248 L159.56142,21.9034862 C159.915016,21.6869725 160.245709,21.5337615 160.552586,21.4429358 C160.854882,21.353945 161.170919,21.3089908 161.499781,21.3089908 C161.693067,21.3089908 161.795665,21.232844 161.795665,21.0704587 L161.795665,20.4961468 C161.795665,20.3291743 161.693067,20.2438532 161.499781,20.2438532" id="Fill-162"></path>
            </g>
            <g id="Group-2" transform="translate(113.590123, 0.000000)">
                <polygon id="Fill-49" fill="#00736C" points="183.179464 0.162477064 79.3480143 199.290917 153.242054 199.290917 257.077167 0.162477064"></polygon>
                <polygon id="Fill-50" fill="#00A47A" points="78.4009109 199.290734 152.297699 199.290734 100.186397 100.61367 26.3051825 100.61367"></polygon>
                <polygon id="Fill-51" fill="#F3B335" points="74.1337696 51.2783486 0.14079679 51.2783486 19.8468511 88.7966972 93.8425721 88.7966972"></polygon>
            </g>
            <g id="Group-3" transform="translate(0.000000, 50.458716)">
                <path d="M12.4042247,13.8061468 L15.3713086,13.8061468 C15.8293333,13.8061468 16.2085778,13.6731193 16.5053778,13.3997248 C16.8113383,13.1180734 16.9579062,12.7731193 16.9579062,12.3602752 L16.9579062,8.62174312 C16.9579062,8.16394495 16.8113383,7.79422018 16.5053778,7.51715596 C16.2085778,7.24376147 15.8540667,7.10247706 15.4418444,7.10247706 L12.4042247,7.10247706 C11.9846741,7.10247706 11.6182543,7.24376147 11.3003852,7.51715596 C10.9751877,7.79422018 10.813963,8.16394495 10.813963,8.62174312 L10.813963,12.3602752 C10.813963,12.7731193 10.963279,13.1180734 11.2628272,13.3997248 C11.5605432,13.6731193 11.9416198,13.8061468 12.4042247,13.8061468" id="Fill-52" fill="#56666D"></path>
                <path d="M98.5397069,13.8061468 L101.505875,13.8061468 C101.9639,13.8061468 102.34864,13.6731193 102.648188,13.3997248 C102.944988,13.1180734 103.093388,12.7731193 103.093388,12.3602752 L103.093388,8.62174312 C103.093388,8.16394495 102.944988,7.79422018 102.648188,7.51715596 C102.34864,7.24376147 101.989549,7.10247706 101.575495,7.10247706 L98.5397069,7.10247706 C98.1256526,7.10247706 97.7564847,7.24376147 97.4367835,7.51715596 C97.1106699,7.79422018 96.9512773,8.16394495 96.9512773,8.62174312 L96.9512773,12.3602752 C96.9512773,12.7731193 97.095097,13.1180734 97.4019736,13.3997248 C97.6987736,13.6731193 98.0761859,13.8061468 98.5397069,13.8061468" id="Fill-56" fill="#56666D"></path>
                <path d="M103.195528,27.986422 C103.171711,26.9286239 103.139649,25.6148624 103.093846,24.0433028 C103.093846,23.6790826 102.97934,23.3662385 102.751244,23.113945 C102.516735,22.8579817 102.198866,22.7322936 101.780232,22.7322936 L98.4687131,22.7322936 C98.0986291,22.7322936 97.8109896,22.8579817 97.6030464,23.113945 C97.4015156,23.3662385 97.2934217,23.6790826 97.2934217,24.0433028 C97.3383081,25.8469725 97.3776983,27.5038532 97.4015156,29.0212844 C97.4235007,30.5478899 97.4372415,32.0277064 97.4372415,33.4524771 L97.4372415,37.733211 L97.4372415,42.3047706 C97.4372415,43.5029358 97.2521995,44.2148624 96.8802835,44.4433028 C96.5129477,44.673578 95.6610217,44.7882569 94.3281699,44.7882569 L93.9425131,44.7882569 L92.214844,44.7882569 C91.4774242,44.7882569 90.8279452,44.7433028 90.2526662,44.6515596 C89.6755551,44.5634862 89.191881,44.373578 88.7988958,44.0983486 C88.4150711,43.8212844 88.1109427,43.4185321 87.9011674,42.8855046 C87.6941402,42.3598165 87.5915427,41.6350459 87.5915427,40.7093578 L87.5915427,2.19926606 C87.5915427,1.82954128 87.4788686,1.50844037 87.2498563,1.23137615 C87.0098514,0.95706422 86.7148835,0.819449541 86.3457156,0.819449541 L82.9636612,0.819449541 C82.5981575,0.819449541 82.2848686,0.95706422 82.0329551,1.23137615 C81.7810415,1.50844037 81.6537106,1.82954128 81.6537106,2.19926606 L81.6537106,42.020367 C81.6537106,43.7790826 81.8433328,45.2011009 82.2408983,46.313945 C82.6265551,47.4166972 83.2146588,48.3056881 83.9997131,48.9763303 C84.7811032,49.6433028 85.7255501,50.0983486 86.8330538,50.3561468 C87.2196267,50.446055 87.6584143,50.5001835 88.0917057,50.5588991 C88.4993477,50.6708257 88.9527921,50.7377982 89.489597,50.7377982 L90.6987822,50.7377982 L92.5977526,50.7377982 L93.9425131,50.7377982 L93.9425131,50.720367 C94.3245057,50.7148624 94.6845131,50.7157798 95.0848267,50.7056881 C95.9614859,50.6790826 96.8106637,50.6359633 97.6415205,50.567156 C98.4687131,50.4974312 99.208881,50.4249541 99.8519477,50.3561468 C100.494098,50.2891743 100.998841,50.186422 101.367093,50.0469725 C101.921303,49.8176147 102.303296,49.5423853 102.503911,49.220367 C102.714602,48.8919266 102.86575,48.5011009 102.954607,48.039633 C103.093846,46.9809174 103.171711,45.5084404 103.195528,43.6166972 C103.219345,41.7258716 103.235834,39.6763303 103.235834,37.4570642 L103.235834,33.892844 L103.235834,30.9965138 C103.235834,30.0515596 103.219345,29.0451376 103.195528,27.986422" id="Fill-58" fill="#56666D"></path>
                <path d="M29.6561827,107.539541 C29.6561827,107.901927 29.5233556,108.230367 29.2503728,108.506514 C28.9682296,108.777156 28.6494444,108.921193 28.2775284,108.921193 L24.967842,108.921193 C24.5950099,108.921193 24.2725605,108.777156 23.9968296,108.506514 C23.7238469,108.230367 23.5827753,107.901927 23.5827753,107.539541 L23.5827753,84.7872477 C23.5827753,83.0322018 23.4398716,81.5707339 23.1329951,80.3927523 C22.8389432,79.2202752 22.3754222,78.2844954 21.7552568,77.596422 C21.1341753,76.9046789 20.3427086,76.402844 19.3735284,76.1055963 C18.4052642,75.8138532 17.2785235,75.6578899 15.9878099,75.6578899 C14.5175506,75.6578899 12.9959926,75.9101835 11.4313802,76.4156881 C9.8667679,76.9266972 8.28017037,77.5716514 6.66883951,78.356055 L6.66883951,107.539541 C6.66883951,107.901927 6.5332642,108.230367 6.25753333,108.506514 C5.97905432,108.777156 5.65385679,108.921193 5.29018519,108.921193 L1.90171852,108.921193 C1.53255062,108.921193 1.22292593,108.777156 0.973760494,108.506514 C0.718182716,108.230367 0.589935802,107.901927 0.589935802,107.539541 L0.589935802,72.2670642 C0.589935802,71.9000917 0.718182716,71.5744037 0.973760494,71.3010092 C1.22292593,71.0248624 1.53255062,70.8918349 1.90171852,70.8918349 L5.35705679,70.8918349 C5.72530864,70.8918349 6.03493333,71.0248624 6.28684691,71.3010092 C6.54334074,71.5744037 6.66883951,71.9000917 6.66883951,72.2670642 L6.66883951,73.5817431 C8.59803951,72.523945 10.3971605,71.7211927 12.0533778,71.196422 C13.7123432,70.6670642 15.5746716,70.4019266 17.6394469,70.4019266 C21.8349531,70.4019266 24.8890617,71.649633 26.7944444,74.1386239 C28.7044074,76.6221101 29.6561827,80.1725688 29.6561827,84.7872477 L29.6561827,107.539541 Z" id="Fill-60" fill="#56666D"></path>
                <path d="M59.4215585,90.523211 L54.3090869,90.523211 C52.2369832,90.523211 50.5120622,90.6525688 49.13524,90.9057798 C47.7520054,91.163578 46.6664869,91.5544037 45.8860128,92.0782569 C45.1055388,92.6066972 44.553161,93.303945 44.2297956,94.1544037 C43.904598,95.0057798 43.7461215,96.0553211 43.7461215,97.2966055 L43.7461215,98.1323853 C43.7461215,100.624128 44.293919,102.293853 45.4050869,103.143394 C46.5098425,104.003945 48.0717067,104.421376 50.100756,104.421376 C51.7093388,104.421376 53.2519659,104.194771 54.7240573,103.73055 C56.1988968,103.276422 57.7671733,102.582844 59.4215585,101.658073 L59.4215585,90.523211 Z M65.495882,107.539725 C65.495882,107.90211 65.3593906,108.23055 65.0845758,108.506697 C64.8033486,108.776422 64.4836474,108.921376 64.1126474,108.921376 L60.9394523,108.921376 C60.5702844,108.921376 60.246919,108.776422 59.9702721,108.506697 C59.6972894,108.23055 59.5553017,107.90211 59.5553017,107.539725 L59.5553017,106.014037 C57.8990844,106.988349 56.1988968,107.788349 54.4464943,108.431468 C52.7005042,109.080092 50.8564968,109.403028 48.9254647,109.403028 C47.446961,109.403028 46.0362449,109.228716 44.6814079,108.885596 C43.3219906,108.54156 42.1210499,107.93055 41.084998,107.049817 C40.0507783,106.177339 39.2263338,105.025046 38.6070844,103.592018 C37.9805067,102.16633 37.671798,100.368165 37.671798,98.1984404 L37.671798,97.37 C37.671798,95.5259633 37.9621857,93.9030275 38.5319684,92.4929358 C39.1072474,91.0966055 40.0507783,89.9158716 41.3653091,88.9690826 C42.6743437,88.0222936 44.3919363,87.3250459 46.5098425,86.8617431 C48.6231684,86.3984404 51.2229165,86.1681651 54.3090869,86.1681651 L59.4215585,86.1681651 L59.4215585,83.4011927 C59.4215585,80.5002752 58.8673486,78.4709174 57.7671733,77.3158716 C56.6633338,76.1681651 54.7460425,75.5883486 52.0345363,75.5883486 C49.7764746,75.5883486 47.7978079,75.6452294 46.0957881,75.7654128 C44.3919363,75.8791743 42.8520573,76.0094495 41.4669906,76.1452294 L41.1243881,76.1452294 C40.8010227,76.1452294 40.5106351,76.0755046 40.2605536,75.9314679 C40.007724,75.7920183 39.879477,75.4947706 39.879477,75.0406422 L39.879477,72.6177064 C39.879477,71.876422 40.3622351,71.4397248 41.3286672,71.3011927 C42.7577042,71.07 44.3067437,70.8626606 45.9931906,70.6846789 C47.6686449,70.4956881 49.6867017,70.4021101 52.0345363,70.4021101 C56.8218104,70.4021101 60.2588277,71.5534862 62.3538326,73.8599083 C64.4488375,76.1681651 65.495882,79.3461468 65.495882,83.4011927 L65.495882,107.539725 Z" id="Fill-62" fill="#56666D"></path>
                <path d="M98.0803081,107.539541 C98.0803081,107.901927 97.9447328,108.230367 97.6644217,108.506514 C97.3877748,108.777156 97.0653254,108.921193 96.6934094,108.921193 L93.3782267,108.921193 C93.013639,108.921193 92.6893575,108.777156 92.4154588,108.506514 C92.142476,108.230367 92.0041526,107.901927 92.0041526,107.539541 L92.0041526,72.2670642 C92.0041526,71.9000917 92.142476,71.5744037 92.4154588,71.3010092 C92.6893575,71.0248624 93.013639,70.8918349 93.3782267,70.8918349 L96.6934094,70.8918349 C97.0653254,70.8918349 97.3877748,71.0248624 97.6644217,71.3010092 C97.9447328,71.5744037 98.0803081,71.9000917 98.0803081,72.2670642 L98.0803081,107.539541 Z" id="Fill-66" fill="#56666D"></path>
                <path d="M74.9160758,58.6899083 C74.9160758,58.2321101 75.0745523,57.8605505 75.3933375,57.5770642 C75.7203672,57.3110092 76.0895351,57.1724771 76.5008412,57.1724771 L79.4725054,57.1724771 C79.8810635,57.1724771 80.2529795,57.3110092 80.5735968,57.5770642 C80.8987943,57.8605505 81.0572709,58.2321101 81.0572709,58.6899083 L81.0572709,62.4266055 C81.0572709,62.7899083 80.8987943,63.1238532 80.5735968,63.4247706 C80.2529795,63.7266055 79.8810635,63.8761468 79.4725054,63.8761468 L76.5008412,63.8761468 C76.0895351,63.8761468 75.7203672,63.7266055 75.3933375,63.4247706 C75.0745523,63.1238532 74.9160758,62.7899083 74.9160758,62.4266055 L74.9160758,58.6899083 Z" id="Fill-70" fill="#00A47A"></path>
                <path d="M91.9265632,58.6899083 C91.9265632,58.2321101 92.0877879,57.8605505 92.4129854,57.5770642 C92.7363509,57.3110092 93.1027706,57.1724771 93.5168249,57.1724771 L96.4884891,57.1724771 C96.9071237,57.1724771 97.2762916,57.3110092 97.5868323,57.5770642 C97.9120299,57.8605505 98.080583,58.2321101 98.080583,58.6899083 L98.080583,62.4266055 C98.080583,62.7899083 97.9120299,63.1238532 97.5868323,63.4247706 C97.2762916,63.7266055 96.9071237,63.8761468 96.4884891,63.8761468 L93.5168249,63.8761468 C93.1027706,63.8761468 92.7363509,63.7266055 92.4129854,63.4247706 C92.0877879,63.1238532 91.9265632,62.7899083 91.9265632,62.4266055 L91.9265632,58.6899083 Z" id="Fill-72" fill="#AED285"></path>
                <path d="M57.8931301,58.6899083 C57.8931301,58.2321101 58.0525227,57.8605505 58.374056,57.5770642 C58.6974215,57.3110092 59.0620091,57.1724771 59.4778956,57.1724771 L62.4495598,57.1724771 C62.8562857,57.1724771 63.2300338,57.3110092 63.5552314,57.5770642 C63.8749326,57.8605505 64.0334091,58.2321101 64.0334091,58.6899083 L64.0334091,62.4266055 C64.0334091,62.7899083 63.8749326,63.1238532 63.5552314,63.4247706 C63.2300338,63.7266055 62.8562857,63.8761468 62.4495598,63.8761468 L59.4778956,63.8761468 C59.0620091,63.8761468 58.6974215,63.7266055 58.374056,63.4247706 C58.0525227,63.1238532 57.8931301,62.7899083 57.8931301,62.4266055 L57.8931301,58.6899083 Z" id="Fill-74" fill="#00736C"></path>
                <path d="M81.0573625,108.482569 C81.0573625,110.280734 80.862244,111.763303 80.4655946,112.93578 C80.0762736,114.113761 79.526644,115.057798 78.8148736,115.775229 C78.0976069,116.485321 77.2007946,116.981651 76.1189402,117.263303 C75.038918,117.541284 73.8049995,117.676147 72.4263452,117.676147 C71.7383921,117.676147 71.1154785,117.651376 70.5594365,117.606422 C70.011639,117.561468 69.3823131,117.49633 68.6980242,117.4 C67.8699156,117.263303 67.451281,116.888991 67.451281,116.292661 L67.451281,113.73578 C67.451281,113.090826 67.9367872,112.769725 68.9077995,112.769725 L71.7383921,112.769725 C73.0758242,112.769725 73.9460711,112.486239 74.3601254,111.937615 C74.777844,111.380734 74.9793748,110.223853 74.9793748,108.482569 L74.9793748,72.2669725 C74.9793748,71.9 75.0957131,71.5743119 75.3265575,71.3009174 C75.5555699,71.0247706 75.855118,70.8917431 76.2206217,70.8917431 L79.8161156,70.8917431 C80.1779551,70.8917431 80.4848316,71.0247706 80.7129279,71.3009174 C80.9428563,71.5743119 81.0573625,71.9 81.0573625,72.2669725 L81.0573625,108.482569 Z" id="Fill-64" fill="#56666D"></path>
                <path d="M134.124286,107.539541 C134.124286,107.901927 133.986879,108.230367 133.711148,108.506514 C133.437249,108.777156 133.109304,108.921193 132.747464,108.921193 L111.894516,108.921193 C110.419677,108.921193 109.349731,108.530367 108.681931,107.745963 C108.015047,106.96156 107.679773,106.087248 107.679773,105.114771 L107.679773,103.804679 C107.679773,102.831284 107.794279,102.039541 108.027872,101.417523 C108.256884,100.795505 108.670938,100.089083 109.267286,99.3046789 L127.086279,77.1120183 C127.270405,76.8358716 127.359262,76.6221101 127.359262,76.4844954 C127.359262,76.1679817 127.128417,76.0092661 126.667644,76.0092661 L109.892032,76.0092661 C109.521948,76.0092661 109.200415,75.8615596 108.922852,75.5881651 C108.653533,75.3111009 108.506965,74.99 108.506965,74.6175229 L108.506965,72.2670642 C108.506965,71.9000917 108.653533,71.5744037 108.922852,71.3010092 C109.200415,71.0248624 109.521948,70.8918349 109.892032,70.8918349 L130.192602,70.8918349 C131.616143,70.8918349 132.618301,71.183578 133.19816,71.7909174 C133.770691,72.3872477 134.056499,73.2166055 134.056499,74.277156 L134.056499,75.9312844 C134.056499,76.6725688 133.92642,77.3285321 133.681835,77.9065138 C133.428089,78.4844954 133.019531,79.09 132.472649,79.736789 L114.310138,102.494587 C114.08021,102.716606 113.965704,102.978991 113.965704,103.249633 C113.965704,103.615688 114.150746,103.804679 114.523578,103.804679 L132.747464,103.804679 C133.109304,103.804679 133.437249,103.937706 133.711148,104.220275 C133.986879,104.490917 134.124286,104.81844 134.124286,105.184495 L134.124286,107.539541 Z" id="Fill-68" fill="#56666D"></path>
                <path d="M98.0803081,107.539541 C98.0803081,107.901927 97.9447328,108.230367 97.6644217,108.506514 C97.3877748,108.777156 97.0653254,108.921193 96.6934094,108.921193 L93.3782267,108.921193 C93.013639,108.921193 92.6893575,108.777156 92.4154588,108.506514 C92.142476,108.230367 92.0041526,107.901927 92.0041526,107.539541 L92.0041526,72.2670642 C92.0041526,71.9000917 92.142476,71.5744037 92.4154588,71.3010092 C92.6893575,71.0248624 93.013639,70.8918349 93.3782267,70.8918349 L96.6934094,70.8918349 C97.0653254,70.8918349 97.3877748,71.0248624 97.6644217,71.3010092 C97.9447328,71.5744037 98.0803081,71.9000917 98.0803081,72.2670642 L98.0803081,107.539541 Z" id="Fill-76" fill="#56666D"></path>
                <path d="M74.5797941,45.3397248 C74.5120064,45.0268807 74.4323101,44.6947706 74.3361249,44.3736697 L71.4349965,36.9727523 L70.7470435,35.1773394 C69.4105274,31.9498165 67.9842385,29.3158716 66.472757,27.2599083 C64.9493669,25.2057798 63.2922336,23.5938532 61.4949447,22.4222936 C59.6994879,21.2470642 57.7931891,20.4351376 55.7641398,19.9993578 C53.7387546,19.563578 51.5805422,19.3415596 49.2711817,19.3415596 C48.4439891,19.3415596 47.3987768,19.3920183 46.1318805,19.482844 C44.8649842,19.5755046 43.7318311,19.7378899 42.7131842,19.9599083 C42.2121052,20.0562385 41.8630904,20.2057798 41.6826286,20.4112844 C41.4975867,20.6222936 41.4004854,20.9066972 41.4004854,21.2837615 L41.4004854,24.1158716 C41.4004854,24.857156 41.9052286,25.1782569 42.9257077,25.0800917 C43.2902953,25.0342202 43.7135101,25.0048624 44.2008484,24.9773394 C44.6817743,24.9589908 45.1700286,24.9213761 45.6509546,24.8709174 C46.1318805,24.8277982 46.5761644,24.8002752 46.9673175,24.7709174 C47.3538904,24.7452294 47.6387817,24.7397248 47.8219916,24.7397248 C52.1503249,24.7397248 55.5690212,25.5975229 58.0799126,27.3314679 C60.5889719,29.0562385 62.5997002,31.6745872 64.1249225,35.1773394 L65.7096879,38.8461468 L68.1949299,44.7883486 L36.5683249,44.7883486 L36.1570188,44.7883486 L24.9784681,44.7883486 L18.408562,44.7883486 L16.6790607,44.7883486 L16.6790607,24.1158716 C16.6790607,23.7488991 16.5673027,23.436055 16.3373743,23.182844 C16.1065299,22.9277982 15.829883,22.7911009 15.5074336,22.7911009 L12.1290435,22.7911009 C11.7552953,22.7911009 11.452999,22.9277982 11.2276509,23.182844 C11.0004706,23.436055 10.8859644,23.7488991 10.8859644,24.1158716 L10.8859644,54.7479817 C10.8859644,56.27 10.765962,57.4819266 10.5369496,58.3810092 C10.3061052,59.2846789 9.88930272,59.9562385 9.29387062,60.4186239 C8.69752247,60.8791743 7.90972,61.1819266 6.95428049,61.3204587 C5.98143605,61.4589908 4.73469284,61.5213761 3.21954716,61.5213761 L1.76577679,61.5213761 C0.985302716,61.5213761 0.589569383,61.8488991 0.589569383,62.4929358 L0.589569383,65.463578 C0.589569383,65.7911009 0.661937284,66.0314679 0.800260741,66.1938532 C0.940416296,66.3553211 1.23813235,66.4855963 1.69798914,66.5727523 C2.15601383,66.6599083 2.76793481,66.7351376 3.5282558,66.7837615 C4.28766074,66.8250459 4.78415951,66.8479817 5.01500395,66.8479817 C7.68253975,66.8479817 9.83433975,66.5268807 11.4685719,65.8837615 C13.104636,65.2342202 14.3806928,64.1076147 15.3022385,62.4929358 C15.8069817,61.5727523 16.1523323,60.4883486 16.3373743,59.2424771 C16.5224163,58.0021101 16.6131052,56.6369725 16.6131052,55.163578 L16.6131052,50.7378899 L18.408562,50.7378899 L24.9784681,50.7378899 L36.1570188,50.7378899 L36.5683249,50.7378899 L72.6799077,50.7378899 C73.465878,50.7378899 73.9944385,50.5911009 74.2701694,50.2892661 C74.5459002,49.9892661 74.6814756,49.5874312 74.6814756,49.076422 L74.6814756,46.5929358 C74.6814756,46.0819266 74.6494138,45.663578 74.5797941,45.3397248" id="Fill-54" fill="#56666D"></path>
            </g>
        </g>
    </g>
</svg>