<?xml version="1.0" encoding="UTF-8"?>
<svg width="371px" height="200px" viewBox="0 0 371 200" version="1.1" xmlns="http://www.w3.org/2000/svg" xmlns:xlink="http://www.w3.org/1999/xlink">
    <!-- Generator: Sketch 52.5 (67469) - http://www.bohemiancoding.com/sketch -->
    <title>xxxhdpi/najiz-n</title>
    <desc>Created with Sketch.</desc>
    <g id="Welcome" stroke="none" stroke-width="1" fill="none" fill-rule="evenodd">
        <g id="najiz-n">
            <g id="Group-4" opacity="0.102422805" transform="translate(0.000000, 170.000000)" fill="#F1F1F1">
                <path d="M5.1782339,3.89454545 L5.83264068,3.89454545 C5.9342339,3.89454545 6.02392881,3.86090909 6.10172542,3.79818182 C6.17952203,3.72545455 6.22253898,3.64363636 6.22253898,3.54181818 L6.22253898,2.64272727 C6.22253898,2.53454545 6.17952203,2.43909091 6.10172542,2.37818182 C6.02392881,2.30909091 5.9342339,2.28 5.83264068,2.28 L5.1782339,2.28 C5.07481017,2.28 4.98603051,2.30909091 4.90182712,2.37818182 C4.81762373,2.43909091 4.77552203,2.53454545 4.77552203,2.64272727 L4.77552203,3.54181818 C4.77552203,3.64363636 4.81762373,3.72545455 4.90182712,3.79818182 C4.98603051,3.86090909 5.07481017,3.89454545 5.1782339,3.89454545" id="Fill-78"></path>
                <path d="M2.4253322,3.89454545 L3.07790847,3.89454545 C3.17675593,3.89454545 3.27011186,3.86090909 3.34790847,3.79818182 C3.42387458,3.72545455 3.46231525,3.64363636 3.46231525,3.54181818 L3.46231525,2.64272727 C3.46231525,2.53454545 3.42662034,2.43909091 3.35523051,2.37818182 C3.28292542,2.30909091 3.18682373,2.28 3.07790847,2.28 L2.4253322,2.28 C2.31092542,2.28 2.21756949,2.30909091 2.14251864,2.37818182 C2.07387458,2.43909091 2.0354339,2.53454545 2.0354339,2.64272727 L2.0354339,3.54181818 C2.0354339,3.64363636 2.07387458,3.72545455 2.14251864,3.79818182 C2.21756949,3.86090909 2.31092542,3.89454545 2.4253322,3.89454545" id="Fill-80"></path>
                <path d="M10.0485763,16.6253636 C10.1501695,16.6253636 10.2407797,16.5926364 10.3185763,16.5217273 C10.3963729,16.4499091 10.4384746,16.3671818 10.4384746,16.2799091 L10.4384746,15.3808182 C10.4384746,15.2671818 10.4018644,15.1771818 10.3295593,15.1117273 C10.2535932,15.0444545 10.1620678,15.0080909 10.0485763,15.0080909 L9.39508475,15.0080909 C9.28159322,15.0080909 9.19098305,15.0444545 9.11776271,15.1117273 C9.04728814,15.1771818 9.0079322,15.2671818 9.0079322,15.3808182 L9.0079322,16.2799091 C9.0079322,16.3671818 9.04728814,16.4499091 9.11776271,16.5217273 C9.19098305,16.5926364 9.28159322,16.6253636 9.39508475,16.6253636 L10.0485763,16.6253636 Z" id="Fill-82"></path>
                <path d="M12.8073356,15.0079091 L12.1520136,15.0079091 C12.0531661,15.0079091 11.9552339,15.0442727 11.872861,15.1115455 C11.7904881,15.1779091 11.7447254,15.267 11.7447254,15.3806364 L11.7447254,16.2797273 C11.7447254,16.367 11.7904881,16.4497273 11.872861,16.5215455 C11.9552339,16.5933636 12.0531661,16.6251818 12.1520136,16.6251818 L12.8073356,16.6251818 C12.9034373,16.6251818 12.9940475,16.5933636 13.0773356,16.5215455 C13.1560475,16.4497273 13.1917424,16.367 13.1917424,16.2797273 L13.1917424,15.3806364 C13.1917424,15.267 13.1560475,15.1779091 13.0773356,15.1115455 C12.9940475,15.0442727 12.9034373,15.0079091 12.8073356,15.0079091" id="Fill-84"></path>
                <path d="M5.81689831,10.9054545 C5.81689831,11.0818182 5.7729661,11.2309091 5.68144068,11.3427273 C5.59174576,11.4636364 5.47459322,11.5545455 5.32632203,11.6209091 C5.18445763,11.6863636 5.02154237,11.7318182 4.84215254,11.7518182 C4.66276271,11.7754545 4.48794915,11.7881818 4.32137288,11.7881818 L4.00286441,11.7881818 C3.27249153,11.7881818 2.76177966,11.6045455 2.45333898,11.2309091 C2.15405085,10.8618182 2.00211864,10.3372727 2.00211864,9.66909091 L2.00211864,9.32090909 C2.00211864,8.87818182 2.07350847,8.50454545 2.21262712,8.21 C2.35357627,7.91545455 2.54120339,7.68272727 2.78466102,7.50727273 C3.02537288,7.34 3.31276271,7.21363636 3.64866102,7.14909091 C3.98364407,7.08363636 4.35615254,7.04727273 4.75886441,7.04727273 C4.90164407,7.04727273 5.06089831,7.05727273 5.22747458,7.06363636 C5.3949661,7.07818182 5.59174576,7.09363636 5.81689831,7.11636364 L5.81689831,10.9054545 Z M15.6265932,13.42 C15.8288644,13.4027273 16.0164915,13.3818182 16.1848983,13.3663636 C16.3496441,13.3490909 16.4786949,13.3245455 16.5693051,13.2890909 C16.7029322,13.2381818 16.7907966,13.17 16.8383898,13.0927273 C16.8814068,13.0136364 16.9161864,12.9181818 16.9418136,12.8063636 C16.9619492,12.6727273 16.9775085,12.5227273 16.9884915,12.3563636 C17.0013051,12.1936364 17.0067966,12.0190909 17.0168644,11.8381818 C17.0196102,11.6627273 17.0205254,11.4909091 17.0205254,11.3190909 L17.0205254,10.8727273 L17.0205254,1.24272727 C17.0205254,1.15 16.9939831,1.07727273 16.9418136,1.01545455 C16.8814068,0.956363636 16.8109322,0.922727273 16.7212373,0.922727273 L15.8984237,0.922727273 C15.8059831,0.922727273 15.7281864,0.956363636 15.6696102,1.01545455 C15.6082881,1.07727273 15.579,1.15 15.579,1.24272727 L15.579,11.4218182 C15.579,11.7118182 15.5368983,11.8863636 15.4526949,11.9363636 C15.3684915,11.9927273 15.1643898,12.0236364 14.8413051,12.0236364 L13.5947288,12.0236364 L13.4949661,12.0236364 L13.3595085,12.0236364 C13.2579153,12.0236364 13.1407627,12.0190909 13.0053051,12.0081818 C12.8735085,11.9927273 12.7426271,11.9754545 12.6135763,11.9472727 C12.4836102,11.9209091 12.3637119,11.8763636 12.2621186,11.83 C12.1550339,11.7809091 12.0818136,11.7118182 12.0525254,11.6209091 L12.0525254,7.03272727 C12.0525254,6.94454545 12.018661,6.86727273 11.9555085,6.81 C11.8960169,6.75 11.8218814,6.71727273 11.7340169,6.71727273 L10.9615424,6.71727273 C10.8700169,6.71727273 10.7931356,6.75 10.7308983,6.81 C10.668661,6.86727273 10.6393729,6.94454545 10.6393729,7.03272727 L10.6393729,11.4063636 C10.6393729,11.5490909 10.5981864,11.6681818 10.510322,11.7481818 C10.4261186,11.83 10.3245254,11.8945455 10.2037119,11.9309091 C10.078322,11.97 9.95110169,11.9927273 9.81564407,12.0081818 C9.6829322,12.0190909 9.56028814,12.0236364 9.44588136,12.0236364 L8.78872881,12.0236364 L8.68988136,12.0236364 L8.40615254,12.0236364 C8.04462712,12.0236364 7.7590678,11.9572727 7.54764407,11.83 C7.33072881,11.7045455 7.22913559,11.4190909 7.22913559,10.97 L7.22913559,6.28272727 C7.22913559,6.19363636 7.21266102,6.12545455 7.18886441,6.07636364 C7.15683051,6.02454545 7.08635593,5.98727273 6.97835593,5.96636364 C6.85205085,5.93181818 6.70835593,5.89909091 6.53994915,5.87363636 C6.37154237,5.84727273 6.19123729,5.82090909 6.00727119,5.79727273 C5.8269661,5.77545455 5.63750847,5.76181818 5.44805085,5.74909091 C5.25584746,5.73818182 5.08835593,5.73454545 4.94374576,5.73454545 C4.30581356,5.73454545 3.72005085,5.80363636 3.18645763,5.94272727 C2.65286441,6.08 2.19615254,6.29818182 1.81083051,6.58909091 C1.42276271,6.88727273 1.12347458,7.27181818 0.912966102,7.73 C0.697881356,8.2 0.588966102,8.76454545 0.588966102,9.41636364 L0.588966102,9.85181818 C0.588966102,10.9336364 0.871779661,11.7518182 1.43191525,12.3236364 C1.99022034,12.8890909 2.79289831,13.1727273 3.83445763,13.1727273 L3.98364407,13.1727273 C4.45683051,13.1727273 4.88883051,13.1190909 5.28513559,13.0136364 C5.68510169,12.9118182 5.97798305,12.7318182 6.16835593,12.4881818 C6.34683051,12.8454545 6.60950847,13.0954545 6.95364407,13.2409091 C7.29137288,13.3872727 7.71513559,13.4563636 8.21944068,13.4563636 L8.68988136,13.4563636 L8.78872881,13.4563636 L9.24544068,13.4563636 C9.56028814,13.4563636 9.90442373,13.4227273 10.2961525,13.3490909 C10.6814746,13.2772727 11.0137119,13.1309091 11.2928644,12.9090909 C11.5546271,13.1309091 11.8777119,13.2772727 12.277678,13.3490909 C12.6758136,13.4227273 13.0474068,13.4563636 13.3933729,13.4563636 L13.4949661,13.4563636 L13.5947288,13.4563636 L14.3855085,13.4563636 C14.5758814,13.4563636 14.7818136,13.4563636 14.9996441,13.45 C15.2202203,13.4445455 15.4288983,13.4318182 15.6265932,13.42 Z" id="Fill-86"></path>
                <path d="M41.0000949,9.28209091 C41.0000949,9.96390909 40.8316881,10.5648182 40.5012814,11.0711818 C40.1708746,11.5811818 39.7159932,11.9066364 39.1338915,12.0393636 L37.8918915,12.0393636 L36.1776203,7.66390909 C36.5913153,7.39027273 37.029722,7.20936364 37.4873492,7.13572727 C37.947722,7.05663636 38.3202305,7.01481818 38.6131119,7.01481818 C39.3526373,7.01481818 39.9319932,7.18118182 40.3612475,7.50663636 C40.7840949,7.83390909 41.0000949,8.36754545 41.0000949,9.09936364 L41.0000949,9.28209091 Z M47.7830441,0.923 L46.962061,0.923 C46.8723661,0.923 46.800061,0.956636364 46.7332475,1.01572727 C46.6737559,1.07754545 46.6444678,1.15027273 46.6444678,1.243 L46.6444678,11.4220909 C46.6444678,11.7120909 46.6023661,11.8857273 46.519078,11.9366364 C46.4339593,11.9920909 46.2289424,12.0239091 45.9067729,12.0239091 L44.6583661,12.0239091 L44.5567729,12.0239091 L41.2508746,12.0239091 C41.4192814,11.9102727 41.5693831,11.7511818 41.713078,11.5466364 C41.8521966,11.3402727 41.9702644,11.1148182 42.0718576,10.8648182 C42.1752814,10.6102727 42.253078,10.3484545 42.3098237,10.0675455 C42.3674847,9.793 42.3940271,9.52027273 42.3940271,9.24936364 L42.3940271,8.93663636 C42.3940271,8.36754545 42.3006712,7.88027273 42.1157898,7.46754545 C41.929078,7.05663636 41.6709763,6.71754545 41.335078,6.45481818 C41.0000949,6.19663636 40.5973831,6.003 40.1324339,5.88390909 C39.6674847,5.76209091 39.1650102,5.69572727 38.6131119,5.69572727 C38.2762983,5.69572727 37.9404,5.72481818 37.6063322,5.78118182 C37.2695186,5.83845455 36.9446034,5.90936364 36.6315864,6.00754545 C36.3185695,6.10390909 36.0266034,6.21936364 35.7620949,6.35390909 C35.4994169,6.49754545 35.2779254,6.64845455 35.0848068,6.813 C34.9063322,6.95845455 34.8084,7.10390909 34.7974169,7.25027273 L34.7818576,7.73027273 C34.7818576,7.77754545 34.7846034,7.82572727 34.7919254,7.883 C34.7974169,7.93936364 34.8084,7.98390909 34.8340271,8.01663636 L36.4110102,12.0239091 L33.8071119,12.0239091 L33.7055186,12.0239091 L30.1973492,12.0239091 L30.0948407,12.0239091 L26.5820949,12.0239091 L26.4832475,12.0239091 L25.4764678,12.0239091 L25.4581627,9.88663636 C25.4343661,9.28209091 25.3501627,8.73754545 25.1936542,8.23390909 C25.0426373,7.73027273 24.811078,7.29845455 24.4834169,6.93209091 C24.1566712,6.56572727 23.7319932,6.28209091 23.2093831,6.08027273 C22.6803661,5.88390909 22.0424339,5.78118182 21.2891797,5.78118182 C21.1692814,5.78118182 20.9743322,5.79118182 20.7134847,5.79754545 C20.4508068,5.80845455 20.1734847,5.83845455 19.8787729,5.88390909 C19.7597898,5.89481818 19.6691797,5.92936364 19.6215864,5.97754545 C19.5721627,6.03572727 19.5456203,6.10936364 19.5456203,6.19663636 L19.5456203,6.88390909 C19.5456203,7.05936364 19.6536203,7.13845455 19.8787729,7.11572727 C20.0480949,7.093 20.2457898,7.08118182 20.4773492,7.07209091 C20.7079932,7.06936364 20.8818915,7.06390909 21.0072814,7.06390909 C22.0689763,7.06390909 22.8359593,7.30845455 23.3082305,7.78572727 C23.7786712,8.263 24.0239593,8.993 24.0459254,9.96936364 L24.0642305,12.0239091 L19.4769763,12.0239091 C19.3872814,12.0239091 19.3104,12.0484545 19.2371797,12.1057273 C19.1749424,12.1620909 19.141078,12.2311818 19.141078,12.3239091 L19.141078,13.1720909 C19.141078,13.2648182 19.1749424,13.3339091 19.2371797,13.3811818 C19.3104,13.4320909 19.3872814,13.4557273 19.4769763,13.4557273 L26.4832475,13.4557273 L26.5820949,13.4557273 L30.0948407,13.4557273 L30.1973492,13.4557273 L33.7055186,13.4557273 L33.8071119,13.4557273 L44.5567729,13.4557273 L44.6583661,13.4557273 L45.4491458,13.4557273 C45.6431797,13.4557273 45.8463661,13.4557273 46.0651119,13.4502727 C46.2838576,13.4448182 46.4907051,13.4320909 46.6938915,13.4193636 C46.897078,13.403 47.0828746,13.3811818 47.2494508,13.3666364 C47.4169424,13.3493636 47.5423322,13.3239091 47.6347729,13.2893636 C47.7693153,13.2384545 47.8590102,13.1693636 47.9038576,13.0920909 C47.9514508,13.0139091 47.980739,12.9184545 48.0045356,12.8057273 C48.0274169,12.673 48.0411458,12.523 48.0530441,12.3557273 C48.0658576,12.193 48.0722644,12.0193636 48.0777559,11.8384545 C48.0869085,11.663 48.0896542,11.4902727 48.0896542,11.3193636 L48.0896542,10.873 L48.0896542,1.243 C48.0896542,1.15027273 48.0594508,1.07754545 48.0045356,1.01572727 C47.9514508,0.956636364 47.8773153,0.923 47.7830441,0.923 Z" id="Fill-88"></path>
                <path d="M52.0840983,0.907181818 L51.2622,0.907181818 C51.1725051,0.907181818 51.0983695,0.942636364 51.0343017,1.00990909 C50.9757254,1.07354545 50.945522,1.14990909 50.945522,1.24263636 L50.945522,13.1244545 C50.945522,13.2180909 50.9757254,13.289 51.0343017,13.3580909 C51.0983695,13.4253636 51.1725051,13.4562727 51.2622,13.4562727 L52.0840983,13.4562727 C52.1747085,13.4562727 52.2497593,13.4253636 52.3055898,13.3580909 C52.3605051,13.289 52.3907085,13.2180909 52.3907085,13.1244545 L52.3907085,1.24263636 C52.3907085,1.14990909 52.3605051,1.07354545 52.3055898,1.00990909 C52.2497593,0.942636364 52.1747085,0.907181818 52.0840983,0.907181818" id="Fill-90"></path>
                <path d="M67.0200407,13.4502727 C67.3376339,13.4448182 67.6341763,13.4320909 67.906922,13.4193636 C68.1833288,13.403 68.4240407,13.3811818 68.6336339,13.3666364 C68.8377356,13.3493636 68.9878373,13.3239091 69.0766169,13.2893636 C69.2093288,13.2384545 69.3054305,13.1693636 69.353939,13.0920909 C69.4015322,13.0139091 69.4436339,12.9184545 69.4637695,12.8066364 C69.4976339,12.5493636 69.5150237,12.1966364 69.5214305,11.7384545 C69.526922,11.2839091 69.526922,10.7875455 69.526922,10.2502727 L69.526922,9.38481818 L69.526922,8.70118182 C69.526922,8.48118182 69.526922,8.23936364 69.5214305,7.98390909 C69.5150237,7.72754545 69.5058712,7.41209091 69.4976339,7.033 C69.4976339,6.94481818 69.4683458,6.86754545 69.4125153,6.81027273 C69.3566847,6.74936364 69.2761424,6.71754545 69.1754644,6.71754545 L68.3874305,6.71754545 C68.2968203,6.71754545 68.2263458,6.74936364 68.1696,6.81027273 C68.111939,6.86754545 68.0853966,6.94481818 68.0853966,7.033 C68.0936339,7.46754545 68.1055322,7.863 68.111939,8.22390909 C68.1174305,8.58845455 68.1201763,8.94663636 68.1201763,9.28209091 L68.1201763,10.3193636 L68.1201763,11.4220909 C68.1201763,11.7120909 68.0725831,11.8857273 67.9865492,11.9366364 C67.895939,11.9920909 67.6927525,12.0239091 67.3806508,12.0239091 L62.2213627,12.0239091 C61.3381424,12.0239091 60.6288203,11.9420909 60.0988881,11.7811818 C59.5643797,11.6211818 59.155261,11.3875455 58.8715322,11.0902727 C58.5832271,10.7875455 58.3956,10.4293636 58.3077356,10.0184545 C58.2171254,9.61027273 58.172278,9.15118182 58.172278,8.65481818 C58.172278,8.46027273 58.1777695,8.27936364 58.1905831,8.10390909 C58.2006508,7.92390909 58.2171254,7.70663636 58.2400068,7.44936364 C58.2628881,7.22663636 58.1777695,7.11572727 57.9864814,7.11572727 L57.2844814,7.11572727 C57.0895322,7.11572727 56.9787864,7.22118182 56.9458373,7.43572727 C56.8890915,7.75390909 56.8524814,8.04572727 56.8341763,8.29572727 C56.8186169,8.54663636 56.8122102,8.78845455 56.8122102,9.02118182 C56.8122102,9.69572727 56.8890915,10.313 57.0391932,10.8648182 C57.1892949,11.4120909 57.4657017,11.8766364 57.8610915,12.2648182 C58.2564814,12.6475455 58.8019729,12.9439091 59.4911593,13.1502727 C60.1821763,13.3539091 61.0635661,13.4557273 62.1371593,13.4557273 L66.0681763,13.4557273 C66.3848542,13.4557273 66.6997017,13.4557273 67.0200407,13.4502727" id="Fill-92"></path>
                <path d="M64.2375763,5.48418182 L64.8928983,5.48418182 C64.9917458,5.48418182 65.0832712,5.44236364 65.1638136,5.376 C65.2370339,5.31418182 65.2809661,5.23418182 65.2809661,5.13327273 L65.2809661,4.22872727 C65.2809661,4.12054545 65.2370339,4.03054545 65.1638136,3.96145455 C65.0832712,3.89418182 64.9917458,3.86054545 64.8928983,3.86054545 L64.2375763,3.86054545 C64.1387288,3.86054545 64.0453729,3.89418182 63.9602542,3.96145455 C63.8751356,4.03054545 63.8348644,4.12054545 63.8348644,4.22872727 L63.8348644,5.13327273 C63.8348644,5.23418182 63.8751356,5.31418182 63.9602542,5.376 C64.0453729,5.44236364 64.1387288,5.48418182 64.2375763,5.48418182" id="Fill-94"></path>
                <path d="M61.4829356,5.48418182 L62.1373424,5.48418182 C62.2389356,5.48418182 62.3286305,5.44236364 62.4064271,5.376 C62.4860542,5.31418182 62.5208339,5.23418182 62.5208339,5.13327273 L62.5208339,4.22872727 C62.5208339,4.12054545 62.4888,4.03054545 62.4137492,3.96145455 C62.3414441,3.89418182 62.2480881,3.86054545 62.1373424,3.86054545 L61.4829356,3.86054545 C61.3694441,3.86054545 61.2797492,3.89418182 61.2046983,3.96145455 C61.1296475,4.03054545 61.0930373,4.12054545 61.0930373,4.22872727 L61.0930373,5.13327273 C61.0930373,5.23418182 61.1296475,5.31418182 61.2046983,5.376 C61.2797492,5.44236364 61.3694441,5.48418182 61.4829356,5.48418182" id="Fill-96"></path>
                <path d="M78.5376,11.138 C78.4927525,10.8816364 78.4698712,10.5752727 78.4698712,10.2207273 L78.4698712,9.48527273 C78.4698712,8.71890909 78.6300407,8.13254545 78.9503797,7.728 C79.2679729,7.31890909 79.7960746,7.11618182 80.5365153,7.11618182 C81.2641424,7.11618182 81.7757695,7.32163636 82.0750576,7.72981818 C82.3706847,8.14436364 82.5180407,8.73072727 82.5180407,9.48527273 L82.5180407,10.1016364 C82.5180407,10.9307273 82.3706847,11.5125455 82.0640746,11.8652727 C81.7638712,12.2134545 81.241261,12.3898182 80.5035661,12.3898182 C79.9772949,12.3898182 79.5434644,12.3070909 79.2075661,12.1298182 C78.8707525,11.9570909 78.6483458,11.6261818 78.5376,11.138 M80.5035661,13.7098182 C81.7117017,13.7098182 82.5857695,13.4107273 83.1257695,12.8134545 C83.6630237,12.2198182 83.9321085,11.3434545 83.9321085,10.1889091 L83.9321085,9.33254545 C83.9321085,8.178 83.6474644,7.298 83.0708542,6.69618182 C82.5015661,6.10072727 81.6549559,5.79709091 80.5365153,5.79709091 C79.4144136,5.79709091 78.5549898,6.10436364 77.9591593,6.71709091 C77.356922,7.32527273 77.0576339,8.20981818 77.0576339,9.35072727 L77.0576339,10.9525455 C77.0576339,11.1434545 77.0429898,11.308 77.0082102,11.4370909 C76.9743458,11.5707273 76.910278,11.6743636 76.8141763,11.748 C76.7189898,11.8198182 76.6109898,11.8761818 76.4856,11.9207273 C76.3647864,11.9707273 76.2384814,11.9925455 76.1194983,12.008 C75.9941085,12.0189091 75.895261,12.0234545 75.8128881,12.0234545 L75.3790576,12.0234545 L75.2765492,12.0234545 L74.9552949,12.0234545 C74.7795661,12.0234545 74.6193966,12.0107273 74.4793627,11.9870909 C74.3384136,11.9707273 74.221261,11.9207273 74.1251593,11.8525455 C74.0318034,11.788 73.9604136,11.6925455 73.9045831,11.5616364 C73.8579051,11.4370909 73.8341085,11.2598182 73.8341085,11.0370909 L73.8341085,1.24254545 C73.8341085,1.14981818 73.8048203,1.07345455 73.7462441,1.00981818 C73.6931593,0.942545455 73.6181085,0.907090909 73.5293288,0.907090909 L72.7056,0.907090909 C72.6168203,0.907090909 72.5417695,0.942545455 72.4777017,1.00981818 C72.4182102,1.07345455 72.3880068,1.14981818 72.3880068,1.24254545 L72.3880068,11.3525455 C72.3880068,11.7752727 72.4365153,12.1243636 72.5289559,12.3898182 C72.6278034,12.6570909 72.7660068,12.8698182 72.9582102,13.0316364 C73.1504136,13.1961818 73.3773966,13.3070909 73.6446508,13.3661818 C73.9173966,13.4252727 74.2294983,13.4561818 74.5901085,13.4561818 L75.2765492,13.4561818 L75.3790576,13.4561818 L75.5456339,13.4561818 C76.0179051,13.4561818 76.4471593,13.4025455 76.8398034,13.2807273 C77.2315322,13.1643636 77.5225831,12.958 77.7111254,12.6570909 C77.9921085,13.0134545 78.3710237,13.278 78.8487864,13.4498182 C79.3219729,13.6252727 79.8738712,13.7098182 80.5035661,13.7098182" id="Fill-98"></path>
                <path d="M108.678386,4.07836364 L109.401437,4.07836364 C109.511268,4.07836364 109.601878,4.04836364 109.676929,3.97745455 C109.75198,3.90836364 109.786759,3.82745455 109.786759,3.72563636 L109.786759,2.82654545 C109.786759,2.71745455 109.75198,2.62745455 109.676929,2.562 C109.601878,2.49290909 109.517675,2.46018182 109.416081,2.46018182 L108.678386,2.46018182 C108.576793,2.46018182 108.486183,2.49290909 108.408386,2.562 C108.329675,2.62745455 108.291234,2.71745455 108.291234,2.82654545 L108.291234,3.72563636 C108.291234,3.82745455 108.329675,3.90836364 108.401064,3.97745455 C108.4752,4.04836364 108.56398,4.07836364 108.678386,4.07836364" id="Fill-100"></path>
                <path d="M117.746451,0.922727273 L116.924553,0.922727273 C116.835773,0.922727273 116.760722,0.956363636 116.697569,1.01545455 C116.638078,1.07727273 116.607875,1.15 116.607875,1.24272727 L116.607875,11.4218182 C116.607875,11.7118182 116.565773,11.8863636 116.480654,11.9363636 C116.397366,11.9927273 116.193264,12.0236364 115.869264,12.0236364 L114.640078,12.0236364 L114.525671,12.0236364 C114.435976,12.0236364 114.376485,12.0109091 114.339875,11.9872727 C114.306925,11.97 114.262078,11.91 114.205332,11.8272727 L113.53262,10.1363636 L113.349569,9.70181818 C113.022824,8.92454545 112.675027,8.28727273 112.307095,7.78909091 C111.933671,7.29545455 111.53279,6.91181818 111.098044,6.62454545 C110.659637,6.34 110.195603,6.14818182 109.700451,6.03818182 C109.211705,5.93454545 108.683603,5.88454545 108.123468,5.88454545 C107.864451,5.88454545 107.591705,5.89545455 107.307061,5.91363636 C107.022417,5.94181818 106.758824,5.97545455 106.525434,6.03272727 C106.403705,6.05363636 106.319502,6.09181818 106.275569,6.14090909 C106.229807,6.19 106.20601,6.25818182 106.20601,6.34363636 L106.20601,7.03272727 C106.20601,7.21 106.332315,7.28545455 106.579434,7.27181818 C106.769807,7.24454545 106.993129,7.22090909 107.250315,7.20727273 C107.508417,7.19454545 107.682315,7.18454545 107.77018,7.18454545 C108.822722,7.18454545 109.655603,7.39090909 110.266993,7.79909091 C110.876553,8.21272727 111.364383,8.84727273 111.736892,9.70181818 L112.122214,10.5863636 L112.726281,12.0236364 L105.012519,12.0236364 L104.929231,12.0236364 L101.402756,12.0236364 L101.299332,12.0236364 L96.499739,12.0236364 L96.3972305,12.0236364 L92.8835695,12.0236364 L92.7819763,12.0236364 L91.7770271,12.0236364 L91.7632983,9.88636364 C91.7385864,9.28181818 91.6516373,8.73727273 91.4987898,8.23363636 C91.3496034,7.73 91.1088915,7.29818182 90.7848915,6.93181818 C90.4608915,6.56636364 90.0362136,6.28272727 89.5071966,6.08 C88.9818407,5.88454545 88.3439085,5.78181818 87.5934,5.78181818 C87.4707559,5.78181818 87.2758068,5.79090909 87.0131288,5.79727273 C86.7513661,5.80818182 86.4722136,5.83909091 86.1811627,5.88454545 C86.0576034,5.89545455 85.9752305,5.92909091 85.9212305,5.97818182 C85.872722,6.03545455 85.8461797,6.11 85.8461797,6.19636364 L85.8461797,6.88454545 C85.8461797,7.05909091 85.9569254,7.13818182 86.1811627,7.11636364 C86.3486542,7.09363636 86.5500102,7.08090909 86.7788237,7.07272727 C87.0094678,7.06909091 87.1824508,7.06363636 87.3069254,7.06363636 C88.3731966,7.06363636 89.1374339,7.30818182 89.6087898,7.78636364 C90.0783153,8.26363636 90.3290949,8.99272727 90.3474,9.97 L90.3647898,12.0236364 L85.7793661,12.0236364 C85.6850949,12.0236364 85.6091288,12.0490909 85.5423153,12.1063636 C85.4773322,12.1627273 85.4434678,12.2309091 85.4434678,12.3236364 L85.4434678,13.1727273 C85.4434678,13.2654545 85.4773322,13.3336364 85.5423153,13.3818182 C85.6091288,13.4318182 85.6850949,13.4563636 85.7793661,13.4563636 L92.7819763,13.4563636 L92.8835695,13.4563636 L96.3972305,13.4563636 L96.499739,13.4563636 L101.299332,13.4563636 L101.402756,13.4563636 L104.929231,13.4563636 L105.012519,13.4563636 L114.525671,13.4563636 L114.640078,13.4563636 L115.413468,13.4563636 C115.605671,13.4563636 115.809773,13.4563636 116.029434,13.45 C116.246349,13.4445455 116.458688,13.4318182 116.656383,13.42 C116.859569,13.4027273 117.046281,13.3818182 117.213773,13.3663636 C117.381264,13.3490909 117.506654,13.3245455 117.596349,13.2890909 C117.735468,13.2381818 117.822417,13.17 117.86818,13.0927273 C117.912112,13.0136364 117.944146,12.9181818 117.969773,12.8063636 C117.994485,12.6727273 118.006383,12.5227273 118.019197,12.3563636 C118.029264,12.1927273 118.039332,12.0190909 118.042993,11.8381818 C118.050315,11.6627273 118.053061,11.4909091 118.053061,11.3190909 L118.053061,10.8727273 L118.053061,1.24272727 C118.053061,1.15 118.023773,1.07727273 117.969773,1.01545455 C117.912112,0.956363636 117.837061,0.922727273 117.746451,0.922727273" id="Fill-102"></path>
                <path d="M121.225607,13.456 L122.052081,13.456 C122.143607,13.456 122.215912,13.4250909 122.269912,13.3578182 C122.325742,13.2887273 122.354115,13.2178182 122.354115,13.1250909 L122.354115,1.24236364 C122.354115,1.14963636 122.325742,1.07327273 122.269912,1.00963636 C122.215912,0.942363636 122.143607,0.906909091 122.052081,0.906909091 L121.225607,0.906909091 C121.139573,0.906909091 121.064522,0.942363636 121.001369,1.00963636 C120.939132,1.07327273 120.908014,1.14963636 120.908014,1.24236364 L120.908014,13.1250909 C120.908014,13.2178182 120.939132,13.2887273 121.001369,13.3578182 C121.064522,13.4250909 121.139573,13.456 121.225607,13.456" id="Fill-104"></path>
                <path d="M129.432508,4.54536364 L130.151898,4.54536364 C130.261729,4.54536364 130.356,4.51627273 130.431051,4.44718182 C130.501525,4.38263636 130.540881,4.29627273 130.540881,4.19718182 L130.540881,3.29627273 C130.540881,3.18445455 130.501525,3.09445455 130.431051,3.02627273 C130.356,2.96172727 130.269051,2.92809091 130.170203,2.92809091 L129.432508,2.92809091 C129.329085,2.92809091 129.240305,2.96172727 129.161593,3.02627273 C129.083797,3.09445455 129.04078,3.18445455 129.04078,3.29627273 L129.04078,4.19718182 C129.04078,4.29627273 129.081051,4.38263636 129.152441,4.44718182 C129.224746,4.51627273 129.318102,4.54536364 129.432508,4.54536364" id="Fill-106"></path>
                <path d="M143.770881,13.4378182 C144.075661,13.4323636 144.368542,13.4223636 144.638542,13.4196364 C144.90122,13.4114545 145.128203,13.3996364 145.309424,13.376 C145.519932,13.366 145.642576,13.2496364 145.675525,13.0450909 C145.687424,12.9187273 145.704814,12.756 145.720373,12.5496364 C145.735017,12.3414545 145.744169,12.1278182 145.744169,11.9069091 L145.777119,11.2578182 L145.777119,10.6896364 L145.777119,10.4041818 C145.777119,8.82327273 145.359763,7.68781818 144.526881,6.99054545 C143.690339,6.29781818 142.441932,5.946 140.786237,5.946 C140.497932,5.946 140.174847,5.95145455 139.811492,5.96690909 C139.454542,5.97509091 138.999661,5.99054545 138.452339,6.01418182 C138.466068,5.87145455 138.531966,5.63418182 138.662847,5.29690909 C138.789153,4.96327273 138.950237,4.62418182 139.14061,4.28054545 L140.721254,1.30872727 C140.756949,1.24236364 140.770678,1.18236364 140.770678,1.12690909 C140.770678,1.07054545 140.751458,1.02054545 140.711186,0.978727273 C140.671831,0.944181818 140.606847,0.922363636 140.520814,0.922363636 L139.730949,0.922363636 C139.605559,0.922363636 139.514034,0.958727273 139.449051,1.02509091 C139.392305,1.09236364 139.328237,1.17145455 139.276068,1.25963636 L138.014847,3.54236364 C137.835458,3.86963636 137.683525,4.16690909 137.553559,4.44690909 C137.424508,4.72509091 137.318339,4.99054545 137.232305,5.24872727 C137.151763,5.50236364 137.085864,5.75145455 137.044678,5.99781818 C136.995254,6.246 136.972373,6.49963636 136.972373,6.76509091 L136.972373,6.946 C136.972373,7.03963636 136.977864,7.09327273 136.989763,7.116 C137.024542,7.28236364 137.138949,7.36690909 137.328407,7.36690909 C137.390644,7.36690909 137.538915,7.36418182 137.762237,7.35690909 C137.985559,7.35145455 138.255559,7.35145455 138.566746,7.35145455 C138.885254,7.35145455 139.221153,7.346 139.587254,7.34327273 C139.94878,7.33963636 140.300237,7.33509091 140.637051,7.33509091 C141.197186,7.33509091 141.704237,7.37963636 142.163695,7.46781818 C142.621322,7.55054545 143.018542,7.71327273 143.341627,7.94509091 C143.666542,8.17145455 143.918237,8.48509091 144.096712,8.87781818 C144.277017,9.27145455 144.368542,9.76690909 144.368542,10.3696364 C144.368542,10.9105455 144.348407,11.4569091 144.313627,11.9869091 C144.192814,11.9996364 144.025322,12.0078182 143.812068,12.0141818 C143.598814,12.0232727 143.378237,12.0232727 143.138441,12.0232727 L142.483119,12.0232727 L141.998034,12.0232727 L135.62878,12.0232727 L135.526271,12.0232727 L132.016271,12.0232727 L131.913763,12.0232727 L130.470407,12.0232727 L130.470407,7.03327273 C130.470407,6.94418182 130.44478,6.86690909 130.388949,6.80963636 C130.332203,6.74963636 130.261729,6.71690909 130.188508,6.71690909 L129.359288,6.71690909 C129.273254,6.71690909 129.200949,6.74963636 129.143288,6.80963636 C129.086542,6.86690909 129.06,6.94418182 129.06,7.03327273 L129.06,14.4269091 C129.06,14.7941818 129.032542,15.086 128.975797,15.3023636 C128.918136,15.5169091 128.819288,15.6869091 128.673763,15.7950909 C128.530068,15.9041818 128.34061,15.9787273 128.103559,16.0114545 C127.866508,16.0441818 127.566305,16.0623636 127.193797,16.0623636 L126.843254,16.0623636 C126.653797,16.0623636 126.557695,16.1432727 126.557695,16.2987273 L126.557695,17.0123636 C126.557695,17.0896364 126.573254,17.1496364 126.608034,17.1850909 C126.640068,17.2269091 126.713288,17.2596364 126.825864,17.2805455 C126.939356,17.2987273 127.086712,17.3196364 127.272508,17.3278182 C127.453729,17.3405455 127.578203,17.3496364 127.631288,17.3496364 C128.280203,17.3496364 128.803729,17.266 129.203695,17.1132727 C129.599085,16.9569091 129.911186,16.6814545 130.133593,16.2987273 C130.258983,16.0741818 130.344102,15.8114545 130.388949,15.5114545 C130.433797,15.2096364 130.454847,14.8823636 130.454847,14.5278182 L130.454847,13.456 L131.913763,13.456 L132.016271,13.456 L135.526271,13.456 L135.62878,13.456 L141.963254,13.456 L142.837322,13.456 C143.149424,13.456 143.463356,13.4505455 143.770881,13.4378182" id="Fill-108"></path>
                <path d="M160.240973,10.1015455 C160.240973,10.9306364 160.090871,11.5124545 159.788837,11.8651818 C159.489549,12.2133636 158.964193,12.3897273 158.226498,12.3897273 C157.701142,12.3897273 157.267312,12.307 156.933244,12.1297273 C156.597346,11.9579091 156.369447,11.6260909 156.260532,11.1379091 C156.213854,10.8815455 156.192803,10.5751818 156.192803,10.2206364 L156.192803,9.48518182 C156.192803,8.71881818 156.352058,8.13245455 156.673312,7.72790909 C156.990905,7.31881818 157.517176,7.11609091 158.260363,7.11609091 C158.992566,7.11609091 159.502363,7.32154545 159.798905,7.73063636 C160.095447,8.14427273 160.240973,8.73063636 160.240973,9.48518182 L160.240973,10.1015455 Z M160.795617,6.69609091 C160.223583,6.10154545 159.380634,5.797 158.260363,5.797 C157.136431,5.797 156.280668,6.10427273 155.680261,6.717 C155.079854,7.32518182 154.780566,8.20972727 154.780566,9.35063636 L154.780566,10.9533636 C154.780566,11.1433636 154.765922,11.3079091 154.732058,11.437 C154.696363,11.5706364 154.63321,11.6742727 154.537108,11.7488182 C154.444668,11.8197273 154.336668,11.8760909 154.211278,11.9206364 C154.087719,11.9706364 153.964159,11.9924545 153.8406,12.0079091 C153.719786,12.0188182 153.618193,12.0233636 153.538566,12.0233636 L153.101075,12.0233636 L152.998566,12.0233636 L150.262871,12.0233636 L150.262871,7.03336364 C150.262871,6.94427273 150.233583,6.867 150.179583,6.80972727 C150.121922,6.74972727 150.054193,6.717 149.976397,6.717 L149.154498,6.717 C149.065719,6.717 148.991583,6.74972727 148.937583,6.80972727 C148.877176,6.867 148.850634,6.94427273 148.850634,7.03336364 L148.850634,14.427 C148.850634,14.7942727 148.825007,15.0860909 148.770092,15.3024545 C148.7106,15.517 148.608092,15.687 148.463481,15.7951818 C148.320702,15.9042727 148.130329,15.9788182 147.894193,16.0106364 C147.659888,16.0442727 147.354193,16.0624545 146.989007,16.0624545 L146.635719,16.0624545 C146.441685,16.0624545 146.350159,16.1433636 146.350159,16.2988182 L146.350159,17.0124545 C146.350159,17.0897273 146.365719,17.1497273 146.397753,17.1851818 C146.430702,17.227 146.505753,17.2597273 146.617414,17.2806364 C146.73182,17.2988182 146.877346,17.3197273 147.061312,17.3279091 C147.246193,17.3406364 147.367922,17.3497273 147.423753,17.3497273 C148.075414,17.3497273 148.596193,17.2660909 148.996159,17.1133636 C149.391549,16.957 149.706397,16.6815455 149.927888,16.2988182 C150.054193,16.0742727 150.13199,15.8115455 150.179583,15.5115455 C150.225346,15.2097273 150.246397,14.8824545 150.246397,14.5279091 L150.246397,13.4560909 L152.998566,13.4560909 L153.101075,13.4560909 L153.268566,13.4560909 C153.739007,13.4560909 154.167346,13.4024545 154.563651,13.2806364 C154.954464,13.1642727 155.240939,12.9579091 155.436803,12.6579091 C155.715041,13.0142727 156.093956,13.2779091 156.569888,13.4506364 C157.047651,13.6251818 157.599549,13.7097273 158.226498,13.7097273 C159.436464,13.7097273 160.311447,13.4115455 160.848702,12.8133636 C161.385041,12.2197273 161.655041,11.3433636 161.655041,10.1888182 L161.655041,9.33245455 C161.655041,8.17790909 161.366736,7.29881818 160.795617,6.69609091 Z" id="Fill-110"></path>
                <path d="M3.10326102,18.8883636 L2.37471864,18.8883636 C2.29783729,18.8883636 2.23926102,18.9165455 2.19075254,18.9729091 C2.14315932,19.0283636 2.12302373,19.0947273 2.12302373,19.1665455 L2.12302373,27.4438182 C2.12302373,27.7965455 2.08092203,28.0265455 1.99214237,28.1401818 C1.90976949,28.252 1.73129492,28.3092727 1.46221017,28.3092727 L0.888345763,28.3092727 C0.690650847,28.3092727 0.589057627,28.3747273 0.589057627,28.5029091 L0.589057627,29.0165455 C0.589057627,29.1401818 0.676922034,29.2174545 0.843498305,29.2410909 C0.984447458,29.262 1.1116678,29.2747273 1.22149831,29.2847273 C1.33315932,29.2947273 1.46221017,29.2974545 1.60315932,29.2974545 C1.88322712,29.2974545 2.13034576,29.2674545 2.3536678,29.2174545 C2.57515932,29.1538182 2.75454915,29.0592727 2.90007458,28.9129091 C3.04285424,28.7683636 3.15726102,28.5792727 3.23597288,28.342 C3.31285424,28.1074545 3.35495593,27.8047273 3.35495593,27.4438182 L3.35495593,19.1665455 C3.35495593,19.0947273 3.33115932,19.0283636 3.28539661,18.9729091 C3.24054915,18.9165455 3.17648136,18.8883636 3.10326102,18.8883636" id="Fill-112"></path>
                <path d="M3.10326102,15.9941818 L2.38844746,15.9941818 C2.31065085,15.9941818 2.24475254,16.0205455 2.19075254,16.0741818 C2.13309153,16.1314545 2.10746441,16.2005455 2.10746441,16.2705455 L2.10746441,17.3996364 C2.10746441,17.4741818 2.13309153,17.5369091 2.19075254,17.5841818 C2.24475254,17.6387273 2.31065085,17.6623636 2.38844746,17.6623636 L3.10326102,17.6623636 C3.17648136,17.6623636 3.24329492,17.6387273 3.30095593,17.5841818 C3.35495593,17.5369091 3.38424407,17.4741818 3.38424407,17.3996364 L3.38424407,16.2705455 C3.38424407,16.2005455 3.35495593,16.1314545 3.30095593,16.0741818 C3.24329492,16.0205455 3.17648136,15.9941818 3.10326102,15.9941818" id="Fill-114"></path>
                <path d="M12.0404441,20.1565455 L11.3494271,20.1565455 C11.2780373,20.1565455 11.2112237,20.1865455 11.1517322,20.242 C11.0986475,20.2938182 11.0693593,20.3592727 11.0693593,20.4347273 L11.0693593,26.3129091 C10.7435288,26.4729091 10.4195288,26.6010909 10.1019356,26.7065455 C9.78434237,26.8047273 9.47681695,26.8592727 9.18027458,26.8592727 C8.90295254,26.8592727 8.67413898,26.8283636 8.4837661,26.7674545 C8.29156271,26.7065455 8.12956271,26.6074545 8.00874915,26.4701818 C7.88061356,26.3274545 7.78725763,26.1410909 7.7277661,25.9047273 C7.66461356,25.6665455 7.63532542,25.372 7.63532542,25.0210909 L7.63532542,20.4347273 C7.63532542,20.3592727 7.6078678,20.2938182 7.55112203,20.242 C7.49346102,20.1865455 7.42847797,20.1565455 7.35525763,20.1565455 L6.67705424,20.1565455 C6.60657966,20.1565455 6.5397661,20.1865455 6.48485085,20.242 C6.42535932,20.2938182 6.39881695,20.3592727 6.39881695,20.4347273 L6.39881695,25.0210909 C6.39881695,25.9501818 6.5937661,26.6656364 6.9818339,27.1692727 C7.37081695,27.6629091 7.99227458,27.9183636 8.84071525,27.9183636 C9.26356271,27.9183636 9.64064746,27.8647273 9.97654576,27.7583636 C10.3124441,27.6501818 10.6785458,27.4901818 11.0693593,27.2747273 L11.0693593,27.5365455 C11.0693593,27.6138182 11.0986475,27.6792727 11.1462407,27.7374545 C11.2002407,27.7929091 11.2633932,27.8201818 11.3356983,27.8201818 L12.0404441,27.8201818 C12.1127492,27.8201818 12.1768169,27.7929091 12.2253254,27.7374545 C12.2802407,27.6792727 12.3049525,27.6138182 12.3049525,27.5365455 L12.3049525,20.4347273 C12.3049525,20.3592727 12.2802407,20.2938182 12.2253254,20.242 C12.1768169,20.1865455 12.1127492,20.1565455 12.0404441,20.1565455" id="Fill-116"></path>
                <path d="M19.6413559,26.7608182 C19.3969831,26.7799091 19.1242373,26.7962727 18.8203729,26.8171818 C18.518339,26.8326364 18.2428475,26.8435455 17.9984746,26.8435455 C17.3065424,26.8435455 16.8306102,26.6371818 16.5688475,26.2280909 C16.3070847,25.8217273 16.1743729,25.2417273 16.1743729,24.4780909 L16.1743729,23.4717273 C16.1743729,23.1017273 16.2091525,22.7717273 16.2677288,22.4762727 C16.3253898,22.1808182 16.4306441,21.939 16.5688475,21.7362727 C16.7061356,21.5344545 16.8955932,21.3853636 17.1298983,21.2853636 C17.3623729,21.1799091 17.6552542,21.1317273 17.9984746,21.1317273 C18.2245424,21.1317273 18.4972881,21.1417273 18.8121356,21.1444545 C19.1297288,21.1535455 19.4070508,21.1799091 19.6413559,21.229 L19.6413559,26.7608182 Z M20.6215932,17.3408182 L19.9095254,17.3408182 C19.8317288,17.3408182 19.7731525,17.3671818 19.717322,17.4180909 C19.6660678,17.469 19.6413559,17.5344545 19.6413559,17.6062727 L19.6413559,20.1962727 C19.3704407,20.1526364 19.0821356,20.1199091 18.7755254,20.0908182 C18.4762373,20.0726364 18.2117288,20.0599091 17.9984746,20.0599091 C16.9715593,20.0599091 16.2027458,20.3562727 15.7002712,20.9426364 C15.1950508,21.5317273 14.9406102,22.3744545 14.9406102,23.4717273 L14.9406102,24.4780909 C14.9406102,24.9962727 15.0028475,25.4699091 15.123661,25.8953636 C15.2435593,26.3253636 15.4321017,26.689 15.6874576,26.9835455 C15.9391525,27.2817273 16.2567458,27.5099091 16.6411525,27.6708182 C17.0209831,27.8326364 17.4740339,27.9180909 17.9984746,27.9180909 C18.4295593,27.9180909 18.8597288,27.8980909 19.2825763,27.8617273 C19.7090847,27.8271818 20.138339,27.7608182 20.5822373,27.6799091 C20.7103729,27.6626364 20.7909153,27.6235455 20.8275254,27.5753636 C20.8613898,27.5253636 20.8760339,27.4535455 20.8760339,27.3617273 L20.8760339,17.6062727 C20.8760339,17.5344545 20.851322,17.469 20.8064746,17.4180909 C20.7552203,17.3671818 20.6948136,17.3408182 20.6215932,17.3408182 Z" id="Fill-118"></path>
                <path d="M24.9000407,17.2597273 L24.1870576,17.2597273 C24.1101763,17.2597273 24.0451932,17.2860909 23.9884475,17.3406364 C23.9353627,17.397 23.9042441,17.4660909 23.9042441,17.537 L23.9042441,18.6497273 C23.9042441,18.7288182 23.9353627,18.7906364 23.9884475,18.8451818 C24.0451932,18.9015455 24.1101763,18.9342727 24.1870576,18.9342727 L24.9000407,18.9342727 C24.9760068,18.9342727 25.0428203,18.9015455 25.0977356,18.8451818 C25.1526508,18.7906364 25.1810237,18.7288182 25.1810237,18.6497273 L25.1810237,17.537 C25.1810237,17.4660909 25.1526508,17.397 25.0977356,17.3406364 C25.0428203,17.2860909 24.9760068,17.2597273 24.9000407,17.2597273" id="Fill-120"></path>
                <path d="M24.870478,20.1565455 L24.1995966,20.1565455 C24.1236305,20.1565455 24.0577322,20.1865455 24.0000712,20.242 C23.9460712,20.2938182 23.9195288,20.3592727 23.9195288,20.4347273 L23.9195288,27.5365455 C23.9195288,27.6138182 23.9460712,27.6792727 24.0000712,27.7374545 C24.0577322,27.7929091 24.1236305,27.8201818 24.1995966,27.8201818 L24.870478,27.8201818 C24.9491898,27.8201818 25.0114271,27.7929091 25.0709186,27.7374545 C25.1240034,27.6792727 25.1532915,27.6138182 25.1532915,27.5365455 L25.1532915,20.4347273 C25.1532915,20.3592727 25.1240034,20.2938182 25.0709186,20.242 C25.0114271,20.1865455 24.9491898,20.1565455 24.870478,20.1565455" id="Fill-122"></path>
                <path d="M32.6984644,20.2129091 C32.4669051,20.1665455 32.1996508,20.1283636 31.8948712,20.1047273 C31.588261,20.0729091 31.2706678,20.0601818 30.9466678,20.0601818 C30.4725661,20.0601818 30.0433119,20.1401818 29.6698881,20.3010909 C29.2946339,20.4656364 28.9816169,20.6929091 28.729922,20.9874545 C28.4782271,21.2774545 28.2841932,21.6365455 28.1578881,22.0465455 C28.024261,22.4674545 27.959278,22.932 27.959278,23.4456364 L27.959278,24.5283636 C27.959278,25.0410909 28.024261,25.5047273 28.1578881,25.9256364 C28.2841932,26.3401818 28.4818881,26.6992727 28.7363288,26.9892727 C28.9953458,27.2838182 29.3056169,27.5101818 29.6753797,27.6710909 C30.0478881,27.8329091 30.4725661,27.9183636 30.9466678,27.9183636 C31.2706678,27.9183636 31.588261,27.9065455 31.8948712,27.8765455 C32.1996508,27.8438182 32.4669051,27.8074545 32.6984644,27.7610909 C32.8119559,27.7429091 32.887922,27.7129091 32.9263627,27.6629091 C32.9611424,27.6201818 32.981278,27.552 32.981278,27.4565455 L32.981278,26.9529091 C32.981278,26.8810909 32.9556508,26.8283636 32.9080576,26.7956364 C32.8622949,26.7610909 32.8055492,26.7456364 32.7405661,26.7456364 L32.6856508,26.7456364 C32.3762949,26.7829091 32.0980576,26.8065455 31.8427017,26.8201818 C31.5910068,26.8365455 31.2917186,26.8429091 30.9466678,26.8429091 C30.3773797,26.8429091 29.9380576,26.6556364 29.6415153,26.2810909 C29.3413119,25.9047273 29.1957864,25.3210909 29.1957864,24.5283636 L29.1957864,23.4456364 C29.1957864,22.6583636 29.3440576,22.0701818 29.6497525,21.6956364 C29.9499559,21.3201818 30.3847017,21.132 30.9466678,21.132 C31.2917186,21.132 31.5910068,21.1410909 31.8427017,21.1529091 C32.0980576,21.1656364 32.3762949,21.192 32.6856508,21.2283636 L32.7405661,21.2283636 C32.8055492,21.2283636 32.8622949,21.2129091 32.9080576,21.1792727 C32.9556508,21.1474545 32.981278,21.0965455 32.981278,21.0192727 L32.981278,20.5183636 C32.981278,20.4174545 32.9611424,20.3456364 32.9263627,20.3010909 C32.887922,20.2592727 32.8119559,20.232 32.6984644,20.2129091" id="Fill-124"></path>
                <path d="M36.6678305,17.2597273 L35.9557627,17.2597273 C35.8807119,17.2597273 35.8148136,17.2860909 35.7562373,17.3406364 C35.7031525,17.397 35.6766102,17.4660909 35.6766102,17.537 L35.6766102,18.6497273 C35.6766102,18.7288182 35.7031525,18.7906364 35.7562373,18.8451818 C35.8148136,18.9015455 35.8807119,18.9342727 35.9557627,18.9342727 L36.6678305,18.9342727 C36.7437966,18.9342727 36.8133559,18.9015455 36.8655254,18.8451818 C36.9204407,18.7906364 36.9506441,18.7288182 36.9506441,18.6497273 L36.9506441,17.537 C36.9506441,17.4660909 36.9204407,17.397 36.8655254,17.3406364 C36.8133559,17.2860909 36.7437966,17.2597273 36.6678305,17.2597273" id="Fill-126"></path>
                <path d="M36.6410136,20.1565455 L35.9673864,20.1565455 C35.8923356,20.1565455 35.8282678,20.1865455 35.7696915,20.242 C35.7156915,20.2938182 35.6873186,20.3592727 35.6873186,20.4347273 L35.6873186,27.5365455 C35.6873186,27.6138182 35.7156915,27.6792727 35.7696915,27.7374545 C35.8282678,27.7929091 35.8923356,27.8201818 35.9673864,27.8201818 L36.6410136,27.8201818 C36.7169797,27.8201818 36.7819627,27.7929091 36.8387085,27.7374545 C36.8936237,27.6792727 36.9210814,27.6138182 36.9210814,27.5365455 L36.9210814,20.4347273 C36.9210814,20.3592727 36.8936237,20.2938182 36.8387085,20.242 C36.7819627,20.1865455 36.7169797,20.1565455 36.6410136,20.1565455" id="Fill-128"></path>
                <path d="M44.1190068,26.3581818 C43.7794475,26.5418182 43.4646,26.68 43.1653119,26.7772727 C42.8614475,26.87 42.5520915,26.9154545 42.2235153,26.9154545 C41.8116508,26.9154545 41.4958881,26.8281818 41.2698203,26.6554545 C41.0455831,26.4854545 40.933922,26.1463636 40.933922,25.6454545 L40.933922,25.4754545 C40.933922,25.2245455 40.9632102,25.0181818 41.0318542,24.8436364 C41.0940915,24.6718182 41.2103288,24.5309091 41.3686678,24.4236364 C41.5270068,24.3190909 41.7430068,24.2390909 42.0249051,24.1890909 C42.3068034,24.1418182 42.658261,24.1145455 43.0774475,24.1145455 L44.1190068,24.1145455 L44.1190068,26.3581818 Z M42.6161593,20.06 C42.1383966,20.06 41.7301932,20.0781818 41.3888034,20.1172727 C41.0483288,20.1527273 40.7325661,20.19 40.4415153,20.2418182 C40.2447356,20.2645455 40.1468034,20.3590909 40.1468034,20.5036364 L40.1468034,20.9945455 C40.1468034,21.0854545 40.1706,21.1445455 40.2264305,21.1709091 C40.2740237,21.2009091 40.3344305,21.2163636 40.3994136,21.2163636 L40.4717186,21.2163636 C40.7472102,21.1890909 41.0620576,21.16 41.4107695,21.1418182 C41.7558203,21.1145455 42.1567017,21.1027273 42.6161593,21.1027273 C43.1708034,21.1027273 43.5552102,21.2218182 43.7794475,21.4518182 C44.0046,21.6827273 44.1190068,22.0918182 44.1190068,22.6781818 L44.1190068,23.2336364 L43.0774475,23.2336364 C42.4504983,23.2336364 41.9242271,23.2827273 41.4958881,23.3763636 C41.0620576,23.4681818 40.7188373,23.6081818 40.447922,23.7990909 C40.1834136,23.9881818 39.9912102,24.2272727 39.8722271,24.5145455 C39.7550746,24.7963636 39.6992441,25.1190909 39.6992441,25.4936364 L39.6992441,25.6581818 C39.6992441,26.0945455 39.7614814,26.4563636 39.8868712,26.7454545 C40.012261,27.0345455 40.1834136,27.2627273 40.393922,27.4409091 C40.6044305,27.6209091 40.8469729,27.7427273 41.1233797,27.8145455 C41.3979559,27.8827273 41.6835153,27.9181818 41.9837186,27.9181818 C42.3791085,27.9181818 42.7497864,27.85 43.1085661,27.7190909 C43.4646,27.5909091 43.8069051,27.43 44.1428034,27.2363636 L44.1428034,27.5363636 C44.1428034,27.6136364 44.1730068,27.68 44.2306678,27.7372727 C44.2874136,27.7936364 44.3533119,27.82 44.4247017,27.82 L45.0699559,27.82 C45.145922,27.82 45.2109051,27.7936364 45.2667356,27.7372727 C45.3234814,27.68 45.3536847,27.6136364 45.3536847,27.5363636 L45.3536847,22.6781818 C45.3536847,21.8627273 45.1367695,21.2218182 44.7120915,20.7572727 C44.2874136,20.29 43.5890746,20.06 42.6161593,20.06 Z" id="Fill-130"></path>
                <path d="M49.3607593,17.341 L48.6349627,17.341 C48.5571661,17.341 48.4976746,17.3673636 48.4482508,17.4182727 C48.4043186,17.4691818 48.3832678,17.5346364 48.3832678,17.6064545 L48.3832678,27.5364545 C48.3832678,27.6137273 48.4043186,27.6800909 48.4482508,27.7373636 C48.4976746,27.7937273 48.5571661,27.8200909 48.6349627,27.8200909 L49.3607593,27.8200909 C49.4385559,27.8200909 49.4989627,27.7937273 49.5474712,27.7373636 C49.5923186,27.6800909 49.618861,27.6137273 49.618861,27.5364545 L49.618861,17.6064545 C49.618861,17.5346364 49.5923186,17.4691818 49.5474712,17.4182727 C49.4989627,17.3673636 49.4385559,17.341 49.3607593,17.341" id="Fill-132"></path>
                <path d="M59.9205966,23.7889091 L58.5321559,22.9716364 C58.2054102,22.7816364 57.9628678,22.6161818 57.8036136,22.4643636 C57.6452746,22.3089091 57.5647322,22.128 57.5647322,21.9089091 C57.5647322,21.558 57.6837153,21.3334545 57.9235119,21.2398182 C58.1605627,21.1534545 58.4772407,21.1025455 58.8689695,21.1025455 C59.2625288,21.1025455 59.6597492,21.1152727 60.0679525,21.1443636 C60.4761559,21.1716364 60.8001559,21.198 61.0426983,21.2161818 L61.0848,21.2161818 C61.243139,21.2161818 61.3245966,21.1416364 61.3245966,20.9770909 L61.3245966,20.5189091 C61.3245966,20.3589091 61.2349017,20.2652727 61.0582576,20.2425455 C60.7287661,20.1861818 60.3828,20.1398182 60.0139525,20.108 C59.6423593,20.0752727 59.2625288,20.0598182 58.8689695,20.0598182 C58.5028678,20.0598182 58.1688,20.088 57.8585288,20.1443636 C57.5519186,20.1961818 57.2846644,20.2943636 57.0595119,20.4416364 C56.8343593,20.5843636 56.6577153,20.778 56.5250034,21.0098182 C56.3959525,21.248 56.3318847,21.5525455 56.3318847,21.9089091 C56.3318847,22.3598182 56.4627661,22.738 56.7199525,23.0470909 C56.9853763,23.3570909 57.3331729,23.6461818 57.7596814,23.9025455 L59.1801559,24.7434545 C59.5819525,24.9816364 59.8556136,25.1834545 60.0038847,25.338 C60.1549017,25.4961818 60.228122,25.6816364 60.228122,25.8952727 C60.228122,26.2761818 60.1128,26.5389091 59.8803254,26.6761818 C59.6451051,26.8170909 59.2963932,26.8852727 58.8415119,26.8852727 C58.7088,26.8852727 58.5559525,26.8816364 58.3756475,26.8734545 C58.2035797,26.8643636 58.0113763,26.8516364 57.8036136,26.8370909 C57.5958508,26.8198182 57.3926644,26.8043636 57.1922237,26.7898182 C56.9908678,26.768 56.8050712,26.748 56.6394102,26.7325455 L56.5817492,26.7325455 C56.5076136,26.7325455 56.4462915,26.748 56.4005288,26.7898182 C56.3556814,26.8252727 56.3318847,26.8761818 56.3318847,26.9416364 L56.3318847,27.4298182 C56.3318847,27.5670909 56.4279864,27.6625455 56.6247661,27.7061818 C56.7931729,27.7507273 56.9789695,27.7870909 57.1858169,27.8143636 C57.3926644,27.8325455 57.5958508,27.8525455 57.7953763,27.8761818 C57.999478,27.8943636 58.1898508,27.9070909 58.3701559,27.9098182 C58.5559525,27.9125455 58.7088,27.918 58.8415119,27.918 C59.2341559,27.918 59.5901898,27.8761818 59.9151051,27.7961818 C60.2372746,27.7189091 60.5118508,27.5998182 60.7406644,27.4343636 C60.9713085,27.2743636 61.1470373,27.0643636 61.2770034,26.8070909 C61.4023932,26.5543636 61.4655458,26.2498182 61.4655458,25.8952727 C61.4655458,25.4898182 61.351139,25.1189091 61.1241559,24.7961818 C60.9026644,24.4698182 60.4999525,24.1389091 59.9205966,23.7889091" id="Fill-134"></path>
                <path d="M68.7982881,23.4453636 L65.0832712,23.4453636 L65.0832712,23.319 C65.0832712,22.5653636 65.2443559,22.0144545 65.5683559,21.6608182 C65.8859492,21.3044545 66.3536441,21.1317273 66.9622881,21.1317273 C67.5782542,21.1317273 68.0386271,21.2971818 68.3415763,21.6371818 C68.6445254,21.9671818 68.7982881,22.5262727 68.7982881,23.319 L68.7982881,23.4453636 Z M69.2705593,20.9426364 C69.0115424,20.659 68.6912034,20.4417273 68.3095424,20.2899091 C67.9251356,20.1317273 67.476661,20.0599091 66.9622881,20.0599091 C65.9527627,20.0599091 65.1812034,20.349 64.6485254,20.9326364 C64.1158475,21.5235455 63.847678,22.3144545 63.847678,23.319 L63.847678,24.5735455 C63.847678,25.2235455 63.9364576,25.7644545 64.1231695,26.1917273 C64.3025593,26.6135455 64.5423559,26.9571818 64.8361525,27.2126364 C65.1299492,27.4662727 65.4695085,27.6499091 65.853,27.7580909 C66.2374068,27.8644545 66.6300508,27.9180909 67.0309322,27.9180909 C67.5086949,27.9180909 67.9434407,27.8944545 68.3415763,27.8526364 C68.7415424,27.8144545 69.1378475,27.7508182 69.5451356,27.6799091 C69.6531356,27.6626364 69.7309322,27.6235455 69.7675424,27.5753636 C69.8068983,27.5253636 69.8252034,27.4535455 69.8252034,27.3617273 L69.8252034,26.8853636 C69.8252034,26.8071818 69.7995763,26.7608182 69.7519831,26.7326364 C69.7071356,26.7062727 69.6531356,26.6917273 69.5991356,26.6917273 L69.5268305,26.6917273 C69.2037458,26.7353636 68.8083559,26.7780909 68.3415763,26.8017273 C67.8802881,26.8280909 67.4464576,26.8435455 67.0309322,26.8435455 C66.3875085,26.8435455 65.8987627,26.669 65.5738475,26.3271818 C65.2443559,25.9844545 65.0832712,25.4008182 65.0832712,24.5735455 L65.0832712,24.3771818 L69.7803559,24.3771818 C69.9579153,24.3771818 70.0503559,24.2762727 70.0503559,24.0726364 L70.0503559,23.319 C70.0503559,22.8280909 69.9835424,22.3780909 69.8517458,21.9753636 C69.7181186,21.5680909 69.5268305,21.2262727 69.2705593,20.9426364 Z" id="Fill-136"></path>
                <path d="M75.8851932,20.0598182 C75.563939,20.0598182 75.2463458,20.1107273 74.9214305,20.2125455 C74.5983458,20.3134545 74.2597017,20.4861818 73.9045831,20.728 L73.9045831,20.4343636 C73.9045831,20.3589091 73.8826169,20.2943636 73.8286169,20.2425455 C73.7791932,20.1861818 73.7142102,20.1561818 73.6364136,20.1561818 L72.979261,20.1561818 C72.9032949,20.1561818 72.8410576,20.1861818 72.7907186,20.2425455 C72.7394644,20.2943636 72.712922,20.3589091 72.712922,20.4343636 L72.712922,27.5370909 C72.712922,27.6143636 72.7394644,27.6798182 72.7907186,27.7370909 C72.8410576,27.7934545 72.9032949,27.8198182 72.979261,27.8198182 L73.6657017,27.8198182 C73.7407525,27.8198182 73.8103119,27.7934545 73.8643119,27.7370909 C73.9173966,27.6798182 73.9466847,27.6143636 73.9466847,27.5370909 L73.9466847,21.7043636 C74.3018034,21.4898182 74.6322102,21.338 74.9342441,21.248 C75.2408542,21.1598182 75.5557017,21.1152727 75.8851932,21.1152727 C76.0773966,21.1152727 76.1789898,21.0398182 76.1789898,20.8789091 L76.1789898,20.3098182 C76.1789898,20.1443636 76.0773966,20.0598182 75.8851932,20.0598182" id="Fill-138"></path>
                <path d="M84.1993627,20.1565455 L83.4305492,20.1565455 C83.3079051,20.1565455 83.2218712,20.2456364 83.1642102,20.4210909 L81.5478712,26.4956364 C81.5011932,26.6656364 81.457261,26.7701818 81.4151593,26.8201818 C81.3739729,26.8729091 81.3199729,26.902 81.2540746,26.902 C81.1817695,26.902 81.125939,26.8729091 81.0893288,26.8201818 C81.0490576,26.7701818 81.0087864,26.6656364 80.9584475,26.4956364 L79.3457695,20.4210909 C79.2917695,20.2456364 79.2029898,20.1565455 79.081261,20.1565455 L78.3087864,20.1565455 C78.1586847,20.1565455 78.0872949,20.2347273 78.0872949,20.3938182 C78.0872949,20.4292727 78.0918712,20.4610909 78.1010237,20.492 L79.9937695,27.1247273 C80.0862102,27.4383636 80.2472949,27.6501818 80.4669559,27.7583636 C80.6930237,27.8647273 80.9575322,27.9183636 81.2540746,27.9183636 C81.5533627,27.9183636 81.8178712,27.8647273 82.0393627,27.7583636 C82.2681763,27.6501818 82.4237695,27.4383636 82.5180407,27.1247273 L84.4107864,20.492 C84.4208542,20.4610909 84.427261,20.4292727 84.427261,20.3938182 C84.427261,20.2347273 84.3494644,20.1565455 84.1993627,20.1565455" id="Fill-140"></path>
                <path d="M88.0146,20.1565455 L87.3409729,20.1565455 C87.2704983,20.1565455 87.200939,20.1865455 87.1487695,20.242 C87.0911085,20.2938182 87.0636508,20.3592727 87.0636508,20.4347273 L87.0636508,27.5365455 C87.0636508,27.6138182 87.0911085,27.6792727 87.1487695,27.7374545 C87.200939,27.7929091 87.2704983,27.8201818 87.3409729,27.8201818 L88.0146,27.8201818 C88.0923966,27.8201818 88.1573797,27.7929091 88.2122949,27.7374545 C88.2717864,27.6792727 88.2955831,27.6138182 88.2955831,27.5365455 L88.2955831,20.4347273 C88.2955831,20.3592727 88.2717864,20.2938182 88.2122949,20.242 C88.1573797,20.1865455 88.0923966,20.1565455 88.0146,20.1565455" id="Fill-142"></path>
                <path d="M88.0440712,17.2597273 L87.3292576,17.2597273 C87.2542068,17.2597273 87.1892237,17.2860909 87.1315627,17.3406364 C87.0775627,17.397 87.0501051,17.4660909 87.0501051,17.537 L87.0501051,18.6497273 C87.0501051,18.7288182 87.0775627,18.7906364 87.1315627,18.8451818 C87.1892237,18.9015455 87.2542068,18.9342727 87.3292576,18.9342727 L88.0440712,18.9342727 C88.119122,18.9342727 88.1850203,18.9015455 88.2417661,18.8451818 C88.2957661,18.7906364 88.3268847,18.7288182 88.3268847,18.6497273 L88.3268847,17.537 C88.3268847,17.4660909 88.2957661,17.397 88.2417661,17.3406364 C88.1850203,17.2860909 88.119122,17.2597273 88.0440712,17.2597273" id="Fill-144"></path>
                <path d="M95.841122,20.2129091 C95.6113932,20.1665455 95.3413932,20.1283636 95.0393593,20.1047273 C94.7327492,20.0729091 94.4169864,20.0601818 94.0893254,20.0601818 C93.6133932,20.0601818 93.191461,20.1401818 92.8125458,20.3010909 C92.4409525,20.4656364 92.1261051,20.6929091 91.8753254,20.9874545 C91.6245458,21.2774545 91.4286814,21.6365455 91.3005458,22.0465455 C91.1687492,22.4674545 91.1019356,22.932 91.1019356,23.4456364 L91.1019356,24.5283636 C91.1019356,25.0410909 91.1687492,25.5047273 91.3005458,25.9256364 C91.4286814,26.3401818 91.6245458,26.6992727 91.8817322,26.9892727 C92.1407492,27.2838182 92.4528508,27.5101818 92.8216983,27.6710909 C93.191461,27.8329091 93.6133932,27.9183636 94.0893254,27.9183636 C94.4169864,27.9183636 94.7327492,27.9065455 95.0393593,27.8765455 C95.3413932,27.8438182 95.6113932,27.8074545 95.841122,27.7610909 C95.9546136,27.7429091 96.0333254,27.7129091 96.0690203,27.6629091 C96.1056305,27.6201818 96.1239356,27.552 96.1239356,27.4565455 L96.1239356,26.9529091 C96.1239356,26.8810909 96.100139,26.8283636 96.0543763,26.7956364 C96.0067831,26.7610909 95.9500373,26.7456364 95.8832237,26.7456364 L95.830139,26.7456364 C95.5189525,26.7829091 95.2425458,26.8065455 94.9890203,26.8201818 C94.7364102,26.8365455 94.4343763,26.8429091 94.0893254,26.8429091 C93.5200373,26.8429091 93.087122,26.6556364 92.7878339,26.2810909 C92.4848847,25.9047273 92.3347831,25.3210909 92.3347831,24.5283636 L92.3347831,23.4456364 C92.3347831,22.6583636 92.4876305,22.0701818 92.7942407,21.6956364 C93.0962746,21.3201818 93.5291898,21.132 94.0893254,21.132 C94.4343763,21.132 94.7364102,21.1410909 94.9890203,21.1529091 C95.2425458,21.1656364 95.5189525,21.192 95.830139,21.2283636 L95.8832237,21.2283636 C95.9500373,21.2283636 96.0067831,21.2129091 96.0543763,21.1792727 C96.100139,21.1474545 96.1239356,21.0965455 96.1239356,21.0192727 L96.1239356,20.5183636 C96.1239356,20.4174545 96.1056305,20.3456364 96.0690203,20.3010909 C96.0333254,20.2592727 95.9546136,20.232 95.841122,20.2129091" id="Fill-146"></path>
                <path d="M103.375495,23.4453636 L99.6568169,23.4453636 L99.6568169,23.319 C99.6568169,22.5653636 99.8215627,22.0144545 100.140986,21.6608182 C100.465902,21.3044545 100.933597,21.1317273 101.539495,21.1317273 C102.158207,21.1317273 102.613088,21.2971818 102.918783,21.6371818 C103.224478,21.9671818 103.375495,22.5262727 103.375495,23.319 L103.375495,23.4453636 Z M103.850512,20.9426364 C103.59058,20.659 103.26658,20.4417273 102.882173,20.2899091 C102.499597,20.1317273 102.053868,20.0599091 101.539495,20.0599091 C100.529969,20.0599091 99.7556644,20.349 99.2257322,20.9326364 C98.6912237,21.5235455 98.4258,22.3144545 98.4258,23.319 L98.4258,24.5735455 C98.4258,25.2235455 98.5182407,25.7644545 98.6958,26.1917273 C98.8825119,26.6135455 99.1232237,26.9571818 99.4133593,27.2126364 C99.7099017,27.4662727 100.047631,27.6499091 100.430207,27.7580909 C100.814614,27.8644545 101.204512,27.9180909 101.608139,27.9180909 C102.085902,27.9180909 102.523393,27.8944545 102.918783,27.8526364 C103.318749,27.8144545 103.7178,27.7508182 104.119597,27.6799091 C104.233088,27.6626364 104.305393,27.6235455 104.347495,27.5753636 C104.38319,27.5253636 104.401495,27.4535455 104.401495,27.3617273 L104.401495,26.8853636 C104.401495,26.8071818 104.376783,26.7608182 104.328275,26.7326364 C104.284342,26.7062727 104.233088,26.6917273 104.173597,26.6917273 L104.107698,26.6917273 C103.778207,26.7353636 103.380986,26.7780909 102.918783,26.8017273 C102.457495,26.8280909 102.020003,26.8435455 101.608139,26.8435455 C100.964715,26.8435455 100.476885,26.669 100.148308,26.3271818 C99.8243085,25.9844545 99.6568169,25.4008182 99.6568169,24.5735455 L99.6568169,24.3771818 L104.360308,24.3771818 C104.534207,24.3771818 104.627563,24.2762727 104.627563,24.0726364 L104.627563,23.319 C104.627563,22.8280909 104.558003,22.3780909 104.425292,21.9753636 C104.299902,21.5680909 104.104037,21.2262727 103.850512,20.9426364 Z" id="Fill-148"></path>
                <path d="M110.627329,23.7889091 L109.241634,22.9716364 C108.911227,22.7816364 108.668685,22.6161818 108.510346,22.4643636 C108.350176,22.3089091 108.269634,22.128 108.269634,21.9089091 C108.269634,21.558 108.390447,21.3334545 108.630244,21.2398182 C108.870956,21.1534545 109.182142,21.1025455 109.578447,21.1025455 C109.967431,21.1025455 110.370142,21.1152727 110.777431,21.1443636 C111.183803,21.1716364 111.505973,21.198 111.749431,21.2161818 L111.791532,21.2161818 C111.953532,21.2161818 112.031329,21.1416364 112.031329,20.9770909 L112.031329,20.5189091 C112.031329,20.3589091 111.943464,20.2652727 111.763159,20.2425455 C111.437329,20.1861818 111.087702,20.1398182 110.717024,20.108 C110.348176,20.0752727 109.967431,20.0598182 109.578447,20.0598182 C109.212346,20.0598182 108.875532,20.088 108.564346,20.1443636 C108.257736,20.1961818 107.990481,20.2943636 107.767159,20.4416364 C107.543837,20.5843636 107.364447,20.778 107.231736,21.0098182 C107.104515,21.248 107.036786,21.5525455 107.036786,21.9089091 C107.036786,22.3598182 107.169498,22.738 107.429431,23.0470909 C107.693939,23.3570909 108.037159,23.6461818 108.468244,23.9025455 L109.883227,24.7434545 C110.288685,24.9816364 110.561431,25.1834545 110.712447,25.338 C110.860719,25.4961818 110.939431,25.6816364 110.939431,25.8952727 C110.939431,26.2761818 110.817702,26.5389091 110.585227,26.6761818 C110.350922,26.8170909 110.005871,26.8852727 109.548244,26.8852727 C109.415532,26.8852727 109.262685,26.8816364 109.086041,26.8734545 C108.905736,26.8643636 108.718108,26.8516364 108.510346,26.8370909 C108.306244,26.8198182 108.102142,26.8043636 107.898956,26.7898182 C107.700346,26.768 107.514549,26.748 107.346142,26.7325455 L107.292142,26.7325455 C107.213431,26.7325455 107.153939,26.748 107.106346,26.7898182 C107.062414,26.8252727 107.036786,26.8761818 107.036786,26.9416364 L107.036786,27.4298182 C107.036786,27.5670909 107.135634,27.6625455 107.332414,27.7061818 C107.499905,27.7507273 107.688447,27.7870909 107.891634,27.8143636 C108.099397,27.8325455 108.299837,27.8525455 108.504854,27.8761818 C108.701634,27.8943636 108.897498,27.9070909 109.079634,27.9098182 C109.259939,27.9125455 109.415532,27.918 109.548244,27.918 C109.939973,27.918 110.296922,27.8761818 110.620922,27.7961818 C110.944007,27.7189091 111.220414,27.5998182 111.449227,27.4343636 C111.677125,27.2743636 111.856515,27.0643636 111.983736,26.8070909 C112.109125,26.5543636 112.174108,26.2498182 112.174108,25.8952727 C112.174108,25.4898182 112.059702,25.1189091 111.832719,24.7961818 C111.610312,24.4698182 111.209431,24.1389091 110.627329,23.7889091" id="Fill-150"></path>
                <path d="M123.233125,20.2129091 C123.001566,20.1665455 122.733397,20.1283636 122.427702,20.1047273 C122.122922,20.0729091 121.807159,20.0601818 121.478583,20.0601818 C121.005397,20.0601818 120.578888,20.1401818 120.205464,20.3010909 C119.82838,20.4656364 119.516278,20.6929091 119.265498,20.9874545 C119.009227,21.2774545 118.820685,21.6365455 118.688888,22.0465455 C118.560753,22.4674545 118.491193,22.932 118.491193,23.4456364 L118.491193,24.5283636 C118.491193,25.0410909 118.560753,25.5047273 118.688888,25.9256364 C118.820685,26.3401818 119.011973,26.6992727 119.27099,26.9892727 C119.528176,27.2838182 119.840278,27.5101818 120.212786,27.6710909 C120.58438,27.8329091 121.005397,27.9183636 121.478583,27.9183636 C121.807159,27.9183636 122.122922,27.9065455 122.427702,27.8765455 C122.733397,27.8438182 123.001566,27.8074545 123.233125,27.7610909 C123.345702,27.7429091 123.420753,27.7129091 123.457363,27.6629091 C123.497634,27.6201818 123.515939,27.552 123.515939,27.4565455 L123.515939,26.9529091 C123.515939,26.8810909 123.490312,26.8283636 123.444549,26.7956364 C123.397871,26.7610909 123.342956,26.7456364 123.275227,26.7456364 L123.220312,26.7456364 C122.910956,26.7829091 122.628142,26.8065455 122.378278,26.8201818 C122.125668,26.8365455 121.82638,26.8429091 121.478583,26.8429091 C120.907464,26.8429091 120.475464,26.6556364 120.176176,26.2810909 C119.876888,25.9047273 119.726786,25.3210909 119.726786,24.5283636 L119.726786,23.4456364 C119.726786,22.6583636 119.879634,22.0701818 120.183498,21.6956364 C120.488278,21.3201818 120.921193,21.132 121.478583,21.132 C121.82638,21.132 122.125668,21.1410909 122.378278,21.1529091 C122.628142,21.1656364 122.910956,21.192 123.220312,21.2283636 L123.275227,21.2283636 C123.342956,21.2283636 123.397871,21.2129091 123.444549,21.1792727 C123.490312,21.1474545 123.515939,21.0965455 123.515939,21.0192727 L123.515939,20.5183636 C123.515939,20.4174545 123.497634,20.3456364 123.457363,20.3010909 C123.420753,20.2592727 123.345702,20.232 123.233125,20.2129091" id="Fill-152"></path>
                <path d="M130.764753,23.4453636 L127.050651,23.4453636 L127.050651,23.319 C127.050651,22.5653636 127.211736,22.0144545 127.529329,21.6608182 C127.854244,21.3044545 128.322854,21.1317273 128.928753,21.1317273 C129.546549,21.1317273 130.004176,21.2971818 130.310786,21.6371818 C130.61282,21.9671818 130.764753,22.5262727 130.764753,23.319 L130.764753,23.4453636 Z M131.236108,20.9426364 C130.978922,20.659 130.655837,20.4417273 130.276922,20.2899091 C129.894346,20.1317273 129.444041,20.0599091 128.928753,20.0599091 C127.917397,20.0599091 127.146753,20.349 126.611329,20.9326364 C126.077736,21.5235455 125.815058,22.3144545 125.815058,23.319 L125.815058,24.5735455 C125.815058,25.2235455 125.905668,25.7644545 126.087803,26.1917273 C126.270854,26.6135455 126.50882,26.9571818 126.805363,27.2126364 C127.097329,27.4662727 127.434142,27.6499091 127.817634,27.7580909 C128.202041,27.8644545 128.597431,27.9180909 129.000142,27.9180909 C129.473329,27.9180909 129.91082,27.8944545 130.310786,27.8526364 C130.707092,27.8144545 131.106142,27.7508182 131.507939,27.6799091 C131.620515,27.6626364 131.699227,27.6235455 131.734922,27.5753636 C131.771532,27.5253636 131.788922,27.4535455 131.788922,27.3617273 L131.788922,26.8853636 C131.788922,26.8071818 131.76421,26.7608182 131.716617,26.7326364 C131.674515,26.7062727 131.620515,26.6917273 131.566515,26.6917273 L131.495125,26.6917273 C131.16838,26.7353636 130.77299,26.7780909 130.310786,26.8017273 C129.846753,26.8280909 129.408346,26.8435455 129.000142,26.8435455 C128.352142,26.8435455 127.866142,26.669 127.540312,26.3271818 C127.211736,25.9844545 127.050651,25.4008182 127.050651,24.5735455 L127.050651,24.3771818 L131.747736,24.3771818 C131.92438,24.3771818 132.015905,24.2762727 132.015905,24.0726364 L132.015905,23.319 C132.015905,22.8280909 131.948176,22.3780909 131.815464,21.9753636 C131.686414,21.5680909 131.495125,21.2262727 131.236108,20.9426364 Z" id="Fill-154"></path>
                <path d="M138.144814,20.0598182 C137.722881,20.0598182 137.343966,20.1170909 137.008068,20.2152727 C136.672169,20.3261818 136.306983,20.4861818 135.913424,20.6998182 L135.913424,20.4343636 C135.913424,20.3589091 135.885966,20.2943636 135.838373,20.2425455 C135.784373,20.1861818 135.723966,20.1561818 135.646169,20.1561818 L134.944169,20.1561818 C134.871864,20.1561818 134.806881,20.1861818 134.756542,20.2425455 C134.704373,20.2943636 134.679661,20.3589091 134.679661,20.4343636 L134.679661,27.5370909 C134.679661,27.6143636 134.704373,27.6798182 134.756542,27.7370909 C134.806881,27.7934545 134.871864,27.8198182 134.944169,27.8198182 L135.635186,27.8198182 C135.705661,27.8198182 135.771559,27.7934545 135.832881,27.7370909 C135.885966,27.6798182 135.913424,27.6143636 135.913424,27.5370909 L135.913424,21.6607273 C136.239254,21.5007273 136.564169,21.3698182 136.880847,21.2716364 C137.200271,21.168 137.505051,21.1152727 137.808915,21.1152727 C138.068847,21.1152727 138.295831,21.1470909 138.495356,21.2107273 C138.693051,21.2670909 138.855051,21.3698182 138.97678,21.508 C139.106746,21.648 139.197356,21.8334545 139.259593,22.0707273 C139.315424,22.3089091 139.352949,22.6052727 139.352949,22.958 L139.352949,27.5370909 C139.352949,27.6143636 139.378576,27.6798182 139.434407,27.7370909 C139.491153,27.7934545 139.556136,27.8198182 139.628441,27.8198182 L140.302983,27.8198182 C140.378949,27.8198182 140.444847,27.7934545 140.497932,27.7370909 C140.559254,27.6798182 140.583051,27.6143636 140.583051,27.5370909 L140.583051,22.958 C140.583051,22.0298182 140.389932,21.3089091 140.003695,20.808 C139.616542,20.3098182 138.994169,20.0598182 138.144814,20.0598182" id="Fill-156"></path>
                <path d="M146.994407,26.9303636 L146.209119,26.9303636 C145.926305,26.9303636 145.735017,26.8758182 145.621525,26.7776364 C145.507119,26.6694545 145.453119,26.4312727 145.453119,26.0512727 L145.453119,21.1894545 L146.971525,21.1894545 C147.042915,21.1894545 147.107898,21.1567273 147.165559,21.1021818 C147.222305,21.0458182 147.246102,20.9830909 147.246102,20.9085455 L147.246102,20.434 C147.246102,20.3585455 147.222305,20.294 147.165559,20.2421818 C147.107898,20.1867273 147.042915,20.1567273 146.971525,20.1567273 L145.453119,20.1567273 L145.453119,18.6403636 C145.453119,18.5667273 145.432068,18.5049091 145.389966,18.4603636 C145.34878,18.4212727 145.300271,18.4012727 145.244441,18.4012727 L145.200508,18.4012727 L144.470136,18.5112727 C144.302644,18.5376364 144.217525,18.6358182 144.217525,18.7903636 L144.217525,20.1567273 L142.858373,20.1567273 C142.678983,20.1567273 142.591119,20.2421818 142.591119,20.4049091 L142.591119,20.7812727 C142.591119,20.9312727 142.678983,21.0167273 142.858373,21.034 L144.217525,21.1894545 L144.217525,26.0512727 C144.217525,26.4312727 144.259627,26.7449091 144.336508,26.984 C144.417966,27.2249091 144.535119,27.4176364 144.690712,27.5549091 C144.841729,27.6921818 145.039424,27.7876364 145.27922,27.8412727 C145.51261,27.8885455 145.800915,27.9176364 146.125831,27.9176364 C146.256712,27.9176364 146.406814,27.9103636 146.576136,27.8949091 C146.742712,27.8830909 146.898305,27.8649091 147.036508,27.844 C147.204915,27.8203636 147.288203,27.7385455 147.288203,27.6112727 L147.288203,27.124 C147.288203,26.9894545 147.192102,26.9303636 146.994407,26.9303636" id="Fill-158"></path>
                <path d="M154.275712,23.4453636 L150.557034,23.4453636 L150.557034,23.319 C150.557034,22.5653636 150.720864,22.0144545 151.043949,21.6608182 C151.367949,21.3044545 151.829237,21.1317273 152.441542,21.1317273 C153.056593,21.1317273 153.51422,21.2971818 153.820831,21.6371818 C154.122864,21.9671818 154.275712,22.5262727 154.275712,23.319 L154.275712,23.4453636 Z M154.743407,20.9426364 C154.48622,20.659 154.166797,20.4417273 153.78422,20.2899091 C153.401644,20.1317273 152.949508,20.0599091 152.441542,20.0599091 C151.428356,20.0599091 150.655881,20.349 150.125949,20.9326364 C149.592356,21.5235455 149.325102,22.3144545 149.325102,23.319 L149.325102,24.5735455 C149.325102,25.2235455 149.418458,25.7644545 149.597847,26.1917273 C149.777237,26.6135455 150.017034,26.9571818 150.312661,27.2126364 C150.609203,27.4662727 150.947847,27.6499091 151.330424,27.7580909 C151.712085,27.8644545 152.104729,27.9180909 152.507441,27.9180909 C152.986119,27.9180909 153.424525,27.8944545 153.820831,27.8526364 C154.217136,27.8144545 154.618017,27.7508182 155.019814,27.6799091 C155.13239,27.6626364 155.206525,27.6235455 155.24039,27.5753636 C155.280661,27.5253636 155.298966,27.4535455 155.298966,27.3617273 L155.298966,26.8853636 C155.298966,26.8071818 155.278831,26.7608182 155.230322,26.7326364 C155.180898,26.7062727 155.13239,26.6917273 155.075644,26.6917273 L155.006085,26.6917273 C154.678424,26.7353636 154.283034,26.7780909 153.820831,26.8017273 C153.359542,26.8280909 152.921136,26.8435455 152.507441,26.8435455 C151.865847,26.8435455 151.376186,26.669 151.049441,26.3271818 C150.720864,25.9844545 150.557034,25.4008182 150.557034,24.5735455 L150.557034,24.3771818 L155.260525,24.3771818 C155.434424,24.3771818 155.523203,24.2762727 155.523203,24.0726364 L155.523203,23.319 C155.523203,22.8280909 155.45822,22.3780909 155.325508,21.9753636 C155.193712,21.5680909 155.003339,21.2262727 154.743407,20.9426364 Z" id="Fill-160"></path>
                <path d="M161.359597,20.0598182 C161.042919,20.0598182 160.721664,20.1107273 160.40041,20.2125455 C160.077325,20.3134545 159.735936,20.4861818 159.380817,20.728 L159.380817,20.4343636 C159.380817,20.3589091 159.35702,20.2943636 159.30302,20.2425455 C159.255427,20.1861818 159.190444,20.1561818 159.110817,20.1561818 L158.458241,20.1561818 C158.379529,20.1561818 158.317292,20.1861818 158.265122,20.2425455 C158.218444,20.2943636 158.187325,20.3589091 158.187325,20.4343636 L158.187325,27.5370909 C158.187325,27.6143636 158.218444,27.6798182 158.265122,27.7370909 C158.317292,27.7934545 158.379529,27.8198182 158.458241,27.8198182 L159.143766,27.8198182 C159.216071,27.8198182 159.284715,27.7934545 159.338715,27.7370909 C159.396376,27.6798182 159.422919,27.6143636 159.422919,27.5370909 L159.422919,21.7043636 C159.776207,21.4898182 160.106614,21.338 160.413224,21.248 C160.715258,21.1598182 161.03102,21.1152727 161.359597,21.1152727 C161.552715,21.1152727 161.655224,21.0398182 161.655224,20.8789091 L161.655224,20.3098182 C161.655224,20.1443636 161.552715,20.0598182 161.359597,20.0598182" id="Fill-162"></path>
            </g>
            <g id="Group-2" transform="translate(114.000000, 0.000000)">
                <polygon id="Fill-49" fill="#00736C" points="182.887785 0.162477064 79.2216676 199.290917 152.998045 199.290917 256.667821 0.162477064"></polygon>
                <polygon id="Fill-50" fill="#00A47A" points="78.2760722 199.290734 152.055193 199.290734 100.026869 100.61367 26.2632964 100.61367"></polygon>
                <polygon id="Fill-51" fill="#F3B335" points="74.0157256 51.2783486 0.140572598 51.2783486 19.8152488 88.7966972 93.6931456 88.7966972"></polygon>
            </g>
            <g id="Group-3" opacity="0.102422805" transform="translate(0.000000, 50.000000)" fill="#FFFFFF">
                <path d="M12.4356122,13.7654775 L15.4102041,13.7654775 C15.8693878,13.7654775 16.2495918,13.6328419 16.5471429,13.3602527 C16.8538776,13.079431 17.0008163,12.735493 17.0008163,12.3238651 L17.0008163,8.59634574 C17.0008163,8.13989612 16.8538776,7.77126047 16.5471429,7.4950124 C16.2495918,7.22242326 15.8941837,7.08155504 15.4809184,7.08155504 L12.4356122,7.08155504 C12.015,7.08155504 11.6476531,7.22242326 11.3289796,7.4950124 C11.0029592,7.77126047 10.8413265,8.13989612 10.8413265,8.59634574 L10.8413265,12.3238651 C10.8413265,12.735493 10.9910204,13.079431 11.2913265,13.3602527 C11.5897959,13.6328419 11.9718367,13.7654775 12.4356122,13.7654775" id="Fill-52"></path>
                <path d="M98.789051,13.7654775 L101.762724,13.7654775 C102.221908,13.7654775 102.607622,13.6328419 102.907929,13.3602527 C103.20548,13.079431 103.354255,12.735493 103.354255,12.3238651 L103.354255,8.59634574 C103.354255,8.13989612 103.20548,7.77126047 102.907929,7.4950124 C102.607622,7.22242326 102.247622,7.08155504 101.83252,7.08155504 L98.789051,7.08155504 C98.373949,7.08155504 98.0038469,7.22242326 97.6833367,7.4950124 C97.356398,7.77126047 97.196602,8.13989612 97.196602,8.59634574 L97.196602,12.3238651 C97.196602,12.735493 97.3407857,13.079431 97.6484388,13.3602527 C97.9459898,13.6328419 98.3243571,13.7654775 98.789051,13.7654775" id="Fill-56"></path>
                <path d="M103.456653,27.9039814 C103.432776,26.8492992 103.400633,25.5394078 103.354714,23.9724775 C103.354714,23.6093302 103.239918,23.2974078 103.011245,23.0458574 C102.776143,22.7906481 102.457469,22.6653302 102.037776,22.6653302 L98.7178776,22.6653302 C98.3468571,22.6653302 98.0584898,22.7906481 97.8500204,23.0458574 C97.6479796,23.2974078 97.5396122,23.6093302 97.5396122,23.9724775 C97.5846122,25.7708341 97.624102,27.4228341 97.6479796,28.9357953 C97.6700204,30.4579039 97.6837959,31.9333612 97.6837959,33.3539349 L97.6837959,37.6220589 L97.6837959,42.1801519 C97.6837959,43.3747876 97.4982857,44.0846171 97.1254286,44.3123845 C96.7571633,44.5419814 95.9030816,44.6563225 94.5668571,44.6563225 L94.1802245,44.6563225 L92.4481837,44.6563225 C91.708898,44.6563225 91.0577755,44.6115008 90.4810408,44.5200279 C89.9024694,44.432214 89.4175714,44.2428651 89.0235918,43.9684465 C88.6387959,43.6921984 88.333898,43.2906326 88.1235918,42.7591752 C87.9160408,42.2350357 87.8131837,41.5124 87.8131837,40.5894388 L87.8131837,2.1927876 C87.8131837,1.82415194 87.7002245,1.5039969 87.4706327,1.22774884 C87.2300204,0.954244961 86.9343061,0.817035659 86.5642041,0.817035659 L83.1735918,0.817035659 C82.8071633,0.817035659 82.4930816,0.954244961 82.2405306,1.22774884 C81.9879796,1.5039969 81.8603265,1.82415194 81.8603265,2.1927876 L81.8603265,41.896586 C81.8603265,43.6501209 82.0504286,45.0679504 82.449,46.1775163 C82.8356327,47.2770202 83.4252245,48.1633922 84.2122653,48.8320589 C84.9956327,49.4970667 85.9424694,49.9507721 87.0527755,50.2078109 C87.4403265,50.2974543 87.8802245,50.3514233 88.3146122,50.4099659 C88.7232857,50.5215628 89.1778776,50.588338 89.7160408,50.588338 L90.9282857,50.588338 L92.8320612,50.588338 L94.1802245,50.588338 L94.1802245,50.5709581 C94.5631837,50.5654698 94.924102,50.5663845 95.3254286,50.5563225 C96.2043061,50.5297953 97.0556327,50.4868031 97.8885918,50.4181984 C98.7178776,50.3486791 99.4599184,50.2764155 100.104612,50.2078109 C100.748388,50.1410357 101.254408,50.038586 101.623592,49.8995473 C102.179204,49.6708651 102.562163,49.3964465 102.763286,49.0753767 C102.97451,48.7479039 103.126041,48.3582295 103.215122,47.8981209 C103.354714,46.842524 103.432776,45.3743845 103.456653,43.488214 C103.480531,41.6029581 103.497061,39.5594543 103.497061,37.3467256 L103.497061,33.7930047 L103.497061,30.9052062 C103.497061,29.9630357 103.480531,28.9595783 103.456653,27.9039814" id="Fill-58"></path>
                <path d="M29.7312245,107.222758 C29.7312245,107.584076 29.5980612,107.911549 29.3243878,108.186882 C29.0415306,108.456727 28.7219388,108.60034 28.3490816,108.60034 L25.0310204,108.60034 C24.6572449,108.60034 24.3339796,108.456727 24.057551,108.186882 C23.7838776,107.911549 23.642449,107.584076 23.642449,107.222758 L23.642449,84.5374868 C23.642449,82.7876109 23.4991837,81.3304481 23.1915306,80.1559364 C22.8967347,78.9869132 22.4320408,78.0538899 21.8103061,77.3678434 C21.1876531,76.678138 20.3941837,76.1777814 19.422551,75.8814093 C18.4518367,75.5905256 17.3222449,75.4350217 16.0282653,75.4350217 C14.5542857,75.4350217 13.0288776,75.6865721 11.4603061,76.1905876 C9.89173469,76.7000915 8.30112245,77.3431457 6.68571429,78.1252388 L6.68571429,107.222758 C6.68571429,107.584076 6.54979592,107.911549 6.27336735,108.186882 C5.99418367,108.456727 5.66816327,108.60034 5.30357143,108.60034 L1.90653061,108.60034 C1.53642857,108.60034 1.22602041,108.456727 0.97622449,108.186882 C0.72,107.911549 0.591428571,107.584076 0.591428571,107.222758 L0.591428571,72.0541845 C0.591428571,71.688293 0.72,71.3635643 0.97622449,71.0909752 C1.22602041,70.8156419 1.53642857,70.6830062 1.90653061,70.6830062 L5.37061224,70.6830062 C5.73979592,70.6830062 6.05020408,70.8156419 6.3027551,71.0909752 C6.55989796,71.3635643 6.68571429,71.688293 6.68571429,72.0541845 L6.68571429,73.3649907 C8.61979592,72.3103085 10.4234694,71.5099209 12.0838776,70.9866961 C13.7470408,70.4588977 15.6140816,70.1945411 17.6840816,70.1945411 C21.8902041,70.1945411 24.9520408,71.4385721 26.8622449,73.920231 C28.7770408,76.3964016 29.7312245,79.9364016 29.7312245,84.5374868 L29.7312245,107.222758 Z" id="Fill-60"></path>
                <path d="M59.5719184,90.2565535 L54.4465102,90.2565535 C52.3691633,90.2565535 50.6398776,90.3855302 49.2595714,90.6379953 C47.8728367,90.8950341 46.7845714,91.2847085 46.0021224,91.8070186 C45.2196735,92.3339023 44.665898,93.0290961 44.3417143,93.8770496 C44.0156939,94.7259178 43.8568163,95.7723674 43.8568163,97.0099953 L43.8568163,97.8433132 C43.8568163,100.327716 44.406,101.992522 45.5199796,102.839561 C46.6275306,103.697577 48.1933469,104.113778 50.2275306,104.113778 C51.8401837,104.113778 53.3867143,103.88784 54.8625306,103.424988 C56.341102,102.972197 57.9133469,102.280662 59.5719184,101.358616 L59.5719184,90.2565535 Z M65.6616122,107.222941 C65.6616122,107.584259 65.5247755,107.911732 65.2492653,108.187065 C64.9673265,108.455995 64.6468163,108.600522 64.2748776,108.600522 L61.0936531,108.600522 C60.723551,108.600522 60.3993673,108.455995 60.1220204,108.187065 C59.8483469,107.911732 59.706,107.584259 59.706,107.222941 L59.706,105.701747 C58.0455918,106.673189 56.341102,107.470833 54.5842653,108.112057 C52.8338571,108.758771 50.9851837,109.080755 49.0492653,109.080755 C47.5670204,109.080755 46.1527347,108.906957 44.7944694,108.564848 C43.4316122,108.221825 42.2276327,107.612616 41.1889592,106.734476 C40.1521224,105.864569 39.3255918,104.71567 38.7047755,103.286864 C38.0766122,101.865375 37.7671224,100.072507 37.7671224,97.9091736 L37.7671224,97.0831736 C37.7671224,95.244569 38.0582449,93.626414 38.6294694,92.220476 C39.2062041,90.8282589 40.1521224,89.6510031 41.4699796,88.7070031 C42.7823265,87.7630031 44.5042653,87.0678093 46.6275306,86.6058713 C48.7462041,86.1439333 51.3525306,85.9143364 54.4465102,85.9143364 L59.5719184,85.9143364 L59.5719184,83.1555147 C59.5719184,80.2631426 59.0163061,78.2397628 57.9133469,77.0881194 C56.8067143,75.9437938 54.8845714,75.3656853 52.1662041,75.3656853 C49.9024286,75.3656853 47.9187551,75.4223984 46.2124286,75.5422279 C44.5042653,75.6556543 42.9604898,75.7855457 41.5719184,75.9209256 L41.228449,75.9209256 C40.9042653,75.9209256 40.6131429,75.8514062 40.3624286,75.7077938 C40.1089592,75.568755 39.9803878,75.2723829 39.9803878,74.8195922 L39.9803878,72.4037938 C39.9803878,71.664693 40.4643673,71.2292822 41.4332449,71.0911581 C42.865898,70.8606465 44.4188571,70.6539178 46.1095714,70.4764605 C47.7892653,70.2880264 49.8124286,70.194724 52.1662041,70.194724 C56.9655918,70.194724 60.4113061,71.3427085 62.5116122,73.6423364 C64.6119184,75.9437938 65.6616122,79.112414 65.6616122,83.1555147 L65.6616122,107.222941 Z" id="Fill-62"></path>
                <path d="M98.3284898,107.222758 C98.3284898,107.584076 98.1925714,107.911549 97.911551,108.186882 C97.6342041,108.456727 97.3109388,108.60034 96.9380816,108.60034 L93.6145102,108.60034 C93.249,108.60034 92.923898,108.456727 92.6493061,108.186882 C92.3756327,107.911549 92.2369592,107.584076 92.2369592,107.222758 L92.2369592,72.0541845 C92.2369592,71.688293 92.3756327,71.3635643 92.6493061,71.0909752 C92.923898,70.8156419 93.249,70.6830062 93.6145102,70.6830062 L96.9380816,70.6830062 C97.3109388,70.6830062 97.6342041,70.8156419 97.911551,71.0909752 C98.1925714,71.3635643 98.3284898,71.688293 98.3284898,72.0541845 L98.3284898,107.222758 Z" id="Fill-66"></path>
                <path d="M75.1056429,58.5170233 C75.1056429,58.0605736 75.2645204,57.6901085 75.5841122,57.4074574 C75.9119694,57.142186 76.2820714,57.004062 76.6944184,57.004062 L79.673602,57.004062 C80.0831939,57.004062 80.456051,57.142186 80.7774796,57.4074574 C81.1035,57.6901085 81.2623776,58.0605736 81.2623776,58.5170233 L81.2623776,62.2427132 C81.2623776,62.6049457 81.1035,62.937907 80.7774796,63.237938 C80.456051,63.5388837 80.0831939,63.6879845 79.673602,63.6879845 L76.6944184,63.6879845 C76.2820714,63.6879845 75.9119694,63.5388837 75.5841122,63.237938 C75.2645204,62.937907 75.1056429,62.6049457 75.1056429,62.2427132 L75.1056429,58.5170233 Z" id="Fill-70"></path>
                <path d="M92.1591735,58.5170233 C92.1591735,58.0605736 92.3208061,57.6901085 92.6468265,57.4074574 C92.9710102,57.142186 93.3383571,57.004062 93.7534592,57.004062 L96.7326429,57.004062 C97.1523367,57.004062 97.5224388,57.142186 97.8337653,57.4074574 C98.1597857,57.6901085 98.3287653,58.0605736 98.3287653,58.5170233 L98.3287653,62.2427132 C98.3287653,62.6049457 98.1597857,62.937907 97.8337653,63.237938 C97.5224388,63.5388837 97.1523367,63.6879845 96.7326429,63.6879845 L93.7534592,63.6879845 C93.3383571,63.6879845 92.9710102,63.5388837 92.6468265,63.237938 C92.3208061,62.937907 92.1591735,62.6049457 92.1591735,62.2427132 L92.1591735,58.5170233 Z" id="Fill-72"></path>
                <path d="M58.0396224,58.5170233 C58.0396224,58.0605736 58.1994184,57.6901085 58.5217653,57.4074574 C58.845949,57.142186 59.2114592,57.004062 59.628398,57.004062 L62.6075816,57.004062 C63.0153367,57.004062 63.3900306,57.142186 63.716051,57.4074574 C64.0365612,57.6901085 64.1954388,58.0605736 64.1954388,58.5170233 L64.1954388,62.2427132 C64.1954388,62.6049457 64.0365612,62.937907 63.716051,63.237938 C63.3900306,63.5388837 63.0153367,63.6879845 62.6075816,63.6879845 L59.628398,63.6879845 C59.2114592,63.6879845 58.845949,63.5388837 58.5217653,63.237938 C58.1994184,62.937907 58.0396224,62.6049457 58.0396224,62.2427132 L58.0396224,58.5170233 Z" id="Fill-74"></path>
                <path d="M81.2624694,108.163008 C81.2624694,109.955876 81.0668571,111.434078 80.6692041,112.603101 C80.278898,113.777612 79.7278776,114.718868 79.0143061,115.434186 C78.2952245,116.142186 77.3961429,116.637054 76.311551,116.917876 C75.2287959,117.195039 73.9917551,117.329504 72.6096122,117.329504 C71.9199184,117.329504 71.2954286,117.304806 70.7379796,117.259984 C70.1887959,117.215163 69.5578776,117.150217 68.8718571,117.054171 C68.0416531,116.917876 67.6219592,116.544667 67.6219592,115.950093 L67.6219592,113.400744 C67.6219592,112.75769 68.1086939,112.437535 69.0821633,112.437535 L71.9199184,112.437535 C73.2607347,112.437535 74.1331837,112.154884 74.5482857,111.607876 C74.9670612,111.052636 75.169102,109.899163 75.169102,108.163008 L75.169102,72.054093 C75.169102,71.6882016 75.2857347,71.3634729 75.5171633,71.0908837 C75.7467551,70.8155504 76.0470612,70.6829147 76.4134898,70.6829147 L80.0180816,70.6829147 C80.3808367,70.6829147 80.6884898,70.8155504 80.9171633,71.0908837 C81.1476735,71.3634729 81.2624694,71.6882016 81.2624694,72.054093 L81.2624694,108.163008 Z" id="Fill-64"></path>
                <path d="M134.463673,107.222758 C134.463673,107.584076 134.325918,107.911549 134.04949,108.186882 C133.774898,108.456727 133.446122,108.60034 133.083367,108.60034 L112.177653,108.60034 C110.699082,108.60034 109.626429,108.210665 108.956939,107.428572 C108.288367,106.646479 107.952245,105.774743 107.952245,104.80513 L107.952245,103.498898 C107.952245,102.528371 108.067041,101.73896 108.301224,101.118774 C108.530816,100.498588 108.945918,99.7942465 109.543776,99.0121535 L127.407857,76.8848667 C127.592449,76.6095333 127.681531,76.3964016 127.681531,76.2591922 C127.681531,75.9436109 127.450102,75.7853628 126.988163,75.7853628 L110.170102,75.7853628 C109.799082,75.7853628 109.476735,75.6380915 109.198469,75.3655023 C108.928469,75.0892543 108.781531,74.7690992 108.781531,74.3977194 L108.781531,72.0541845 C108.781531,71.688293 108.928469,71.3635643 109.198469,71.0909752 C109.476735,70.8156419 109.799082,70.6830062 110.170102,70.6830062 L130.522041,70.6830062 C131.949184,70.6830062 132.953878,70.9738899 133.535204,71.5794403 C134.109184,72.174014 134.395714,73.0009287 134.395714,74.058355 L134.395714,75.7076109 C134.395714,76.4467116 134.265306,77.1007426 134.020102,77.6770217 C133.765714,78.2533008 133.356122,78.8570217 132.807857,79.5019054 L114.599388,102.192665 C114.368878,102.414029 114.254082,102.675642 114.254082,102.945487 C114.254082,103.310464 114.439592,103.498898 114.813367,103.498898 L133.083367,103.498898 C133.446122,103.498898 133.774898,103.631533 134.04949,103.91327 C134.325918,104.183115 134.463673,104.509673 134.463673,104.87465 L134.463673,107.222758 Z" id="Fill-68"></path>
                <path d="M98.3284898,107.222758 C98.3284898,107.584076 98.1925714,107.911549 97.911551,108.186882 C97.6342041,108.456727 97.3109388,108.60034 96.9380816,108.60034 L93.6145102,108.60034 C93.249,108.60034 92.923898,108.456727 92.6493061,108.186882 C92.3756327,107.911549 92.2369592,107.584076 92.2369592,107.222758 L92.2369592,72.0541845 C92.2369592,71.688293 92.3756327,71.3635643 92.6493061,71.0909752 C92.923898,70.8156419 93.249,70.6830062 93.6145102,70.6830062 L96.9380816,70.6830062 C97.3109388,70.6830062 97.6342041,70.8156419 97.911551,71.0909752 C98.1925714,71.3635643 98.3284898,71.688293 98.3284898,72.0541845 L98.3284898,107.222758 Z" id="Fill-76"></path>
                <path d="M74.7685102,45.2061659 C74.700551,44.8942434 74.6206531,44.5631116 74.5242245,44.2429566 L71.6157551,36.8638403 L70.9260612,35.0737163 C69.5861633,31.8557008 68.1562653,29.2295147 66.6409592,27.1796078 C65.1137143,25.1315302 63.4523878,23.5243519 61.650551,22.3562434 C59.850551,21.184476 57.9394286,20.3749411 55.9052449,19.940445 C53.8747347,19.5059488 51.7110612,19.2845845 49.3958571,19.2845845 C48.5665714,19.2845845 47.5187143,19.3348946 46.2486122,19.4254527 C44.9785102,19.5178403 43.8424898,19.6797473 42.8212653,19.9011116 C42.3189184,19.9971581 41.9690204,20.1462589 41.788102,20.3511581 C41.6025918,20.5615457 41.5052449,20.8451116 41.5052449,21.2210651 L41.5052449,24.0448326 C41.5052449,24.7839333 42.0112653,25.1040884 43.0343265,25.0062124 C43.3998367,24.960476 43.8241224,24.9312047 44.3126939,24.9037628 C44.7948367,24.8854682 45.2843265,24.8479643 45.7664694,24.7976543 C46.2486122,24.754662 46.6940204,24.7272202 47.0861633,24.6979488 C47.4737143,24.6723364 47.7593265,24.6668481 47.943,24.6668481 C52.2822857,24.6668481 55.7096327,25.5221194 58.2268776,27.2509566 C60.7422857,28.9706465 62.758102,31.5812822 64.2871837,35.0737163 L65.8759592,38.7317163 L68.3674898,44.656414 L36.6608571,44.656414 L36.2485102,44.656414 L25.0416735,44.656414 L18.4551429,44.656414 L16.7212653,44.656414 L16.7212653,24.0448326 C16.7212653,23.6789411 16.6092245,23.3670186 16.3787143,23.1145535 C16.1472857,22.8602589 15.8699388,22.7239643 15.5466735,22.7239643 L12.1597347,22.7239643 C11.7850408,22.7239643 11.4819796,22.8602589 11.2560612,23.1145535 C11.0283061,23.3670186 10.9135102,23.6789411 10.9135102,24.0448326 L10.9135102,54.5867085 C10.9135102,56.1042434 10.7932041,57.3126 10.5636122,58.2090341 C10.3321837,59.1100419 9.91432653,59.7796233 9.31738776,60.2406465 C8.71953061,60.6998403 7.92973469,61.0017008 6.97187755,61.1398248 C5.99657143,61.2779488 4.74667347,61.3401504 3.22769388,61.3401504 L1.7702449,61.3401504 C0.987795918,61.3401504 0.591061224,61.6667085 0.591061224,62.3088481 L0.591061224,65.2707395 C0.591061224,65.5972977 0.663612245,65.8369566 0.802285714,65.9988636 C0.942795918,66.1598558 1.24126531,66.2897473 1.70228571,66.3766465 C2.16146939,66.4635457 2.77493878,66.5385535 3.53718367,66.5870341 C4.2985102,66.6281969 4.79626531,66.6510651 5.02769388,66.6510651 C7.70197959,66.6510651 9.85922449,66.3309101 11.4975918,65.6896853 C13.1377959,65.0420574 14.4170816,63.9187705 15.3409592,62.3088481 C15.8469796,61.3913752 16.1932041,60.3101659 16.3787143,59.0679643 C16.5642245,57.8312512 16.6551429,56.4701349 16.6551429,55.0010806 L16.6551429,50.5884295 L18.4551429,50.5884295 L25.0416735,50.5884295 L36.2485102,50.5884295 L36.6608571,50.5884295 L72.8638163,50.5884295 C73.6517755,50.5884295 74.1816735,50.4420729 74.458102,50.1411271 C74.7345306,49.8420109 74.870449,49.4413597 74.870449,48.9318558 L74.870449,46.4556853 C74.870449,45.9461814 74.8383061,45.5290651 74.7685102,45.2061659" id="Fill-54"></path>
            </g>
        </g>
    </g>
</svg>