<?xml version="1.0" encoding="UTF-8"?>
<svg width="199px" height="133px" viewBox="0 0 199 133" version="1.1" xmlns="http://www.w3.org/2000/svg" xmlns:xlink="http://www.w3.org/1999/xlink">
    <!-- Generator: Sketch 52.5 (67469) - http://www.bohemiancoding.com/sketch -->
    <title>vision</title>
    <desc>Created with Sketch.</desc>
    <g id="Welcome" stroke="none" stroke-width="1" fill="none" fill-rule="evenodd">
        <g id="vision" transform="translate(-1.000000, 0.000000)" fill="#FFFFFF">
            <path d="M142.468,75.372 L142.468,75.517 C142.468,85.092 135.491,92.128 124.153,92.128 C114.996,92.128 108.673,88.501 104.313,83.351 L112.017,76.024 C115.505,79.942 119.139,82.117 124.299,82.117 C128.514,82.117 131.494,79.724 131.494,75.952 C131.438,75.852 132.316,69.352 121.537,69.352 L116.886,69.352 L115.141,62.242 L131.461,45.857 L124.921,50.057 L107.293,50.057 L107.293,40.483 L141.668,40.483 L141.668,48.897 L128.805,61.155 C135.709,62.316 142.468,65.942 142.468,75.372 Z M110.563,17.265 C110.563,12.668 113.865,8.968 118.499,8.968 L123.721,8.968 L122.354,9.649 C122.416,22.249 122.104,23.836 122.91,25.678 L118.557,25.677 C113.923,25.677 110.563,21.919 110.563,17.323 L110.563,17.265 Z M118.499,27.788 L123.136,27.788 L123.136,26.121 C123.474,26.707 123.929,27.162 124.6,27.48 C126.075,28.18 125.003,27.74 167.303,27.87 L167.303,6.858 L165.072,6.858 L165.072,25.643 C165.072,25.643 126.394,25.792 125.659,25.462 C125.021,25.175 124.789,24.519 124.683,23.82 C124.514,22.685 124.617,22.664 124.586,6.858 L118.557,6.858 C112.388,6.858 108.188,11.743 108.188,17.323 L108.188,17.381 C108.188,22.96 112.33,27.788 118.499,27.788 Z M183.746,4.63 L178.858,4.63 C178.964,3.014 178.216,0 181.509,0 L183.083,0 L183.083,1.552 C181.559,1.665 180.682,1.181 180.682,2.398 L180.682,2.913 L183.746,2.913 L183.746,4.63 Z M189.396,28.097 C188.801,28.097 188.196,28.014 187.583,27.846 L188.169,25.703 C189.178,25.99 190.468,26.007 191,25.105 C191.621,24.037 191.399,23.661 191.432,6.858 L193.663,6.858 C193.599,22.543 193.817,22.981 193.454,24.799 C193.026,26.926 191.736,28.097 189.396,28.097 Z M124.586,4.63 L122.354,4.63 L122.354,2.403 L124.586,2.403 L124.586,4.63 Z M173.692,12.314 C174.739,10.275 176.937,9.14 179.184,9.116 L179.184,9.112 L182.789,9.112 L181.515,9.747 L181.515,19.747 C179.759,19.695 178.525,19.914 176.899,19.398 C174.679,18.7 173.175,16.992 173.175,14.513 C173.175,13.716 173.347,12.982 173.692,12.314 Z M173.692,20.206 C176.597,22.276 180.558,21.934 180.765,21.973 L181.515,20.402 C181.394,21.925 181.934,24.053 180.511,25.119 C179.308,26.018 177.163,25.989 175.839,25.675 C175.291,25.546 174.663,25.323 173.956,25.008 L173.259,27.151 C174.673,27.672 176.025,28.097 177.526,28.097 C179.702,28.097 181.282,27.582 182.268,26.553 C183.253,25.522 183.746,24.135 183.746,22.391 L183.746,6.858 C181,6.944 178.917,6.581 176.411,7.443 C169.696,9.752 169.562,17.266 173.692,20.206 Z M120.123,4.63 L117.891,4.63 L117.891,2.403 L120.123,2.403 L120.123,4.63 Z M97.028,6.834 L99.332,6.834 L99.332,27.745 L97.446,27.745 L82.607,8.936 L83.919,11.984 L83.919,27.745 L81.614,27.745 L81.614,6.834 L83.829,6.834 L97.999,24.824 L97.028,22.258 L97.028,6.834 Z M10.009,27.894 L1,6.834 L3.634,6.834 C3.768,7.158 10.948,24.513 11.676,26.273 L11.448,23.975 L18.569,6.834 L21.112,6.834 L12.104,27.894 L10.009,27.894 Z M49.932,6.834 L52.296,6.834 L52.296,27.744 L49.932,27.744 L49.932,6.834 Z M75.29,17.349 C75.29,22.099 71.879,25.922 67.09,25.922 C62.301,25.922 58.829,22.039 58.829,17.29 L58.829,17.229 C58.829,12.48 62.242,8.657 67.03,8.657 C71.819,8.657 75.29,12.54 75.29,17.29 L75.29,17.349 Z M67.09,6.476 C60.715,6.476 56.375,11.524 56.375,17.29 L56.375,17.349 C56.375,23.114 60.655,28.103 67.03,28.103 C73.405,28.103 77.745,23.055 77.745,17.29 L77.745,17.229 C77.745,11.465 73.465,6.476 67.09,6.476 Z M46.031,22.069 L46.031,22.128 C46.031,25.712 43.038,28.043 38.878,28.043 C35.556,28.043 32.833,26.938 30.319,24.697 L31.785,22.965 C33.97,24.936 36.065,25.921 38.969,25.921 C41.782,25.921 43.637,24.429 43.637,22.367 L43.637,22.308 C43.637,16.472 31.157,20.322 31.157,12.3 L31.157,12.241 C31.157,8.955 34.06,6.535 38.041,6.535 C41.093,6.535 43.278,7.402 45.403,9.105 L44.027,10.926 C39.277,7.062 33.521,8.542 33.521,12.032 L33.521,12.092 C33.521,14.063 34.598,15.168 39.208,16.154 C43.877,17.17 46.031,18.873 46.031,22.069 Z M26.688,27.745 L24.324,27.745 L24.324,6.835 L26.688,6.835 L26.688,27.745 Z M164.293,30.096 L166.525,30.096 L166.525,32.323 L164.293,32.323 L164.293,30.096 Z M159.83,30.096 L162.062,30.096 L162.062,32.323 L159.83,32.323 L159.83,30.096 Z M19.71,81.609 L39.108,81.609 L39.108,91.258 L1.461,91.258 L1.461,82.408 C20.272,66.444 27.189,63.324 27.189,56.368 C27.189,52.088 24.354,49.767 20.357,49.767 C16.432,49.767 13.743,51.942 9.964,56.584 L2.115,50.275 C7.13,43.456 12,39.756 21.084,39.756 C31.622,39.756 38.599,45.922 38.599,55.425 L38.599,55.569 C38.599,67.485 29.578,71.326 14.109,83.792 L11.949,85.456 L19.71,81.609 Z M187.725,66.015 C187.725,74.719 181.475,81.828 172.462,81.828 C163.45,81.828 157.055,74.574 157.055,65.869 L157.055,65.724 C157.055,57.02 163.306,49.912 172.317,49.912 C181.328,49.912 187.725,57.166 187.725,65.869 L187.725,66.015 Z M172.462,39.612 C156.765,39.612 145.354,51.435 145.354,65.869 L145.354,66.015 C145.354,80.45 156.618,92.128 172.317,92.128 C188.016,92.128 199.425,80.304 199.425,65.869 L199.425,65.724 C199.425,51.29 188.16,39.612 172.462,39.612 Z" id="Shape" fill-rule="nonzero"></path>
            <polyline id="Path" points="69.518 36.272 72.095 38.74 69.622 41.311 67.046 38.843"></polyline>
            <polyline id="Path" points="75.415 38.843 77.99 41.311 80.463 38.74 77.887 36.272"></polyline>
            <polyline id="Path" points="71.787 42.084 73.794 44.005 75.718 42.003 73.713 40.082"></polyline>
            <polyline id="Path" points="79.142 43.183 81.148 45.105 83.072 43.103 81.066 41.181"></polyline>
            <polyline id="Path" points="68.507 45.145 70.513 47.067 72.437 45.065 70.433 43.143"></polyline>
            <polyline id="Path" points="75.238 45.378 77.243 47.3 79.168 45.298 77.162 43.376"></polyline>
            <polyline id="Path" points="72.605 47.681 74.016 49.033 75.37 47.624 73.959 46.272"></polyline>
            <polyline id="Path" points="77.928 48.742 79.339 50.094 80.694 48.685 79.283 47.334"></polyline>
            <polygon id="Path" transform="translate(92.142147, 39.812623) rotate(-10.390000) translate(-92.142147, -39.812623) " points="89.9171474 37.5916228 94.3671474 37.5916228 94.3671474 42.0336228 89.9171474 42.0336228"></polygon>
            <polygon id="Path" transform="translate(85.917427, 41.291686) rotate(-10.376000) translate(-85.917427, -41.291686) " points="84.1324267 39.5096864 87.7024267 39.5096864 87.7024267 43.0736864 84.1324267 43.0736864"></polygon>
            <polygon id="Path" transform="translate(92.706180, 46.175983) rotate(-10.390000) translate(-92.706180, -46.175983) " points="90.9211804 44.3939835 94.4911804 44.3939835 94.4911804 47.9579835 90.9211804 47.9579835"></polygon>
            <polygon id="Path" transform="translate(87.403427, 46.372687) rotate(-10.382000) translate(-87.403427, -46.372687) " points="86.0134265 44.9856874 88.7934265 44.9856874 88.7934265 47.7596874 86.0134265 47.7596874"></polygon>
            <polygon id="Path" transform="translate(92.723517, 51.558179) rotate(-10.382000) translate(-92.723517, -51.558179) " points="91.3335166 50.1706792 94.1135166 50.1706792 94.1135166 52.9456792 91.3335166 52.9456792"></polygon>
            <polygon id="Path" transform="translate(83.306992, 47.482909) rotate(-10.382000) translate(-83.306992, -47.482909) " points="81.9164921 46.0954089 84.6974921 46.0954089 84.6974921 48.8704089 81.9164921 48.8704089"></polygon>
            <polygon id="Path" transform="translate(88.269533, 51.058359) rotate(-10.382000) translate(-88.269533, -51.058359) " points="86.879533 49.6708594 89.659533 49.6708594 89.659533 52.4458594 86.879533 52.4458594"></polygon>
            <polygon id="Path" transform="translate(84.305311, 51.057426) rotate(-10.390000) translate(-84.305311, -51.057426) " points="83.3273113 50.0814264 85.2833113 50.0814264 85.2833113 52.0334264 83.3273113 52.0334264"></polygon>
            <polygon id="Path" transform="translate(88.000290, 55.027151) rotate(-10.360000) translate(-88.000290, -55.027151) " points="87.0227898 54.0516508 88.9777898 54.0516508 88.9777898 56.0026508 87.0227898 56.0026508"></polygon>
            <polyline id="Path" points="102.572 52.342 100.659 56.354 104.679 58.262 106.59 54.251"></polyline>
            <polyline id="Path" points="96.867 50.489 95.333 53.707 98.557 55.238 100.091 52.02"></polyline>
            <polyline id="Path" points="99.505 58.416 97.971 61.635 101.196 63.165 102.73 59.947"></polyline>
            <polyline id="Path" points="95.28 56.002 94.086 58.508 96.597 59.7 97.792 57.194"></polyline>
            <polyline id="Path" points="96.555 63.315 95.36 65.821 97.87 67.013 99.066 64.507"></polyline>
            <polyline id="Path" points="91.306 54.51 90.111 57.016 92.622 58.208 93.817 55.702"></polyline>
            <polyline id="Path" points="93.237 60.308 92.042 62.814 94.552 64.006 95.748 61.5"></polyline>
            <polyline id="Path" points="90.217 58.541 89.376 60.304 91.142 61.142 91.983 59.38"></polyline>
            <polygon id="Path" transform="translate(91.345933, 65.212227) rotate(-64.552000) translate(-91.345933, -65.212227) " points="90.3699326 64.2347267 92.3219326 64.2347267 92.3219326 66.1897267 90.3699326 66.1897267"></polygon>
            <polyline id="Path" points="104.737 71.551 100.835 73.687 102.976 77.582 106.878 75.446"></polyline>
            <polyline id="Path" points="101.198 66.717 98.068 68.431 99.785 71.555 102.915 69.841"></polyline>
            <polyline id="Path" points="98.691 74.686 95.56 76.4 97.278 79.525 100.408 77.811"></polyline>
            <polyline id="Path" points="96.679 70.261 94.242 71.596 95.578 74.028 98.017 72.694"></polyline>
            <polyline id="Path" points="93.426 76.936 90.988 78.271 92.325 80.703 94.763 79.369"></polyline>
            <polyline id="Path" points="94.331 66.731 91.893 68.065 93.23 70.499 95.669 69.164"></polyline>
            <polyline id="Path" points="92.498 72.56 90.06 73.895 91.397 76.327 93.835 74.993"></polyline>
            <polyline id="Path" points="91.084 69.364 89.369 70.303 90.31 72.014 92.024 71.076"></polyline>
            <polyline id="Path" points="88.475 74.114 86.76 75.053 87.7 76.764 89.415 75.826"></polyline>
            <polygon id="Path" transform="translate(92.746746, 90.310253) rotate(-82.958000) translate(-92.746746, -90.310253) " points="90.5252458 88.0847535 94.9682458 88.0847535 94.9682458 92.5357535 90.5252458 92.5357535"></polygon>
            <polygon id="Path" transform="translate(93.209508, 83.958970) rotate(-82.935000) translate(-93.209508, -83.958970) " points="91.427508 82.1739696 94.991508 82.1739696 94.991508 85.7439696 91.427508 85.7439696"></polygon>
            <polygon id="Path" transform="translate(86.503135, 88.957916) rotate(-82.935000) translate(-86.503135, -88.957916) " points="84.7211348 87.1724157 88.2851348 87.1724157 88.2851348 90.7434157 84.7211348 90.7434157"></polygon>
            <polygon id="Path" transform="translate(87.907980, 83.860068) rotate(-82.952000) translate(-87.907980, -83.860068) " points="86.5204797 82.4700677 89.2954797 82.4700677 89.2954797 85.2500677 86.5204797 85.2500677"></polygon>
            <polygon id="Path" transform="translate(81.354240, 87.370837) rotate(-82.952000) translate(-81.354240, -87.370837) " points="79.9667402 85.9808374 82.7417402 85.9808374 82.7417402 88.7608374 79.9667402 88.7608374"></polygon>
            <polygon id="Path" transform="translate(88.071135, 79.617916) rotate(-82.935000) translate(-88.071135, -79.617916) " points="86.6831348 78.2274157 89.4591348 78.2274157 89.4591348 81.0084157 86.6831348 81.0084157"></polygon>
            <polygon id="Path" transform="translate(83.168189, 83.272543) rotate(-82.935000) translate(-83.168189, -83.272543) " points="81.7806887 81.8820425 84.5556887 81.8820425 84.5556887 84.6630425 81.7806887 84.6630425"></polygon>
            <polygon id="Path" transform="translate(84.356659, 79.504640) rotate(-82.946000) translate(-84.356659, -79.504640) " points="83.3806593 78.52714 85.3326593 78.52714 85.3326593 80.48214 83.3806593 80.48214"></polygon>
            <polygon id="Path" transform="translate(79.451655, 81.829609) rotate(-82.952000) translate(-79.451655, -81.829609) " points="78.4756546 80.8516092 80.4276546 80.8516092 80.4276546 82.8076092 78.4756546 82.8076092"></polygon>
            <polyline id="Path" points="77.652 96.502 74.39 93.479 71.362 96.735 74.624 99.757"></polyline>
            <polyline id="Path" points="77.051 34.279 73.789 31.256 70.761 34.512 74.023 37.534"></polyline>
            <polyline id="Path" points="81.133 91.625 78.516 89.2 76.087 91.812 78.704 94.236"></polyline>
            <polyline id="Path" points="72.765 91.764 70.147 89.339 67.718 91.951 70.335 94.375"></polyline>
            <polyline id="Path" points="76.337 88.463 74.299 86.575 72.408 88.608 74.445 90.496"></polyline>
            <polyline id="Path" points="68.965 87.486 66.928 85.598 65.037 87.631 67.075 89.52"></polyline>
            <polyline id="Path" points="78.954 85.126 76.916 83.238 75.025 85.271 77.062 87.159"></polyline>
            <polyline id="Path" points="72.833 85.227 70.795 83.339 68.904 85.372 70.941 87.26"></polyline>
            <polyline id="Path" points="75.426 82.881 73.993 81.552 72.663 82.983 74.096 84.311"></polyline>
            <polyline id="Path" points="70.087 81.907 68.654 80.579 67.323 82.009 68.756 83.337"></polyline>
            <polygon id="Path" transform="translate(56.021901, 91.068960) rotate(-11.333000) translate(-56.021901, -91.068960) " points="53.7964007 88.8479602 58.2474007 88.8479602 58.2474007 93.2899602 53.7964007 93.2899602"></polygon>
            <polygon id="Path" transform="translate(62.221315, 89.488091) rotate(-11.333000) translate(-62.221315, -89.488091) " points="60.4363145 87.7060913 64.0063145 87.7060913 64.0063145 91.2700913 60.4363145 91.2700913"></polygon>
            <polygon id="Path" transform="translate(55.357267, 84.712895) rotate(-11.344000) translate(-55.357267, -84.712895) " points="53.5722671 82.9308946 57.1422671 82.9308946 57.1422671 86.4948946 53.5722671 86.4948946"></polygon>
            <polygon id="Path" transform="translate(60.650882, 84.433230) rotate(-11.333000) translate(-60.650882, -84.433230) " points="59.2608817 83.0457296 62.0408817 83.0457296 62.0408817 85.8207296 59.2608817 85.8207296"></polygon>
            <polygon id="Path" transform="translate(64.728626, 83.255152) rotate(-11.333000) translate(-64.728626, -83.255152) " points="63.338626 81.8671519 66.118626 81.8671519 66.118626 84.6431519 63.338626 84.6431519"></polygon>
            <polygon id="Path" transform="translate(59.705705, 79.762446) rotate(-11.333000) translate(-59.705705, -79.762446) " points="58.3157047 78.3749456 61.0957047 78.3749456 61.0957047 81.1499456 58.3157047 81.1499456"></polygon>
            <polygon id="Path" transform="translate(63.669252, 79.702352) rotate(-11.314000) translate(-63.669252, -79.702352) " points="62.6912519 78.7263524 64.6472519 78.7263524 64.6472519 80.6783524 62.6912519 80.6783524"></polygon>
            <polygon id="Path" transform="translate(59.910801, 75.791963) rotate(-11.344000) translate(-59.910801, -75.791963) " points="58.9333011 74.8159633 60.8883011 74.8159633 60.8883011 76.7679633 58.9333011 76.7679633"></polygon>
            <polyline id="Path" points="45.388 78.715 47.233 74.673 43.182 72.831 41.337 76.873"></polyline>
            <polyline id="Path" points="51.122 80.474 52.602 77.231 49.353 75.754 47.872 78.997"></polyline>
            <polyline id="Path" points="48.351 72.592 49.832 69.349 46.582 67.871 45.102 71.115"></polyline>
            <polygon id="Path" transform="translate(51.925076, 73.101953) rotate(-65.485000) translate(-51.925076, -73.101953) " points="50.5370758 71.7124525 53.3130758 71.7124525 53.3130758 74.4914525 50.5370758 74.4914525"></polygon>
            <polyline id="Path" points="56.002 81.249 57.155 78.724 54.625 77.574 53.472 80.099"></polyline>
            <polygon id="Path" transform="translate(50.535534, 65.808442) rotate(-65.474000) translate(-50.535534, -65.808442) " points="49.1475344 64.4189422 51.9235344 64.4189422 51.9235344 67.1979422 49.1475344 67.1979422"></polygon>
            <polygon id="Path" transform="translate(55.928534, 74.524442) rotate(-65.474000) translate(-55.928534, -74.524442) " points="54.5405344 73.1349422 57.3165344 73.1349422 57.3165344 75.9139422 54.5405344 75.9139422"></polygon>
            <polygon id="Path" transform="translate(53.899739, 68.765094) rotate(-65.455000) translate(-53.899739, -68.765094) " points="52.5117392 67.3755942 55.2877392 67.3755942 55.2877392 70.1545942 52.5117392 70.1545942"></polygon>
            <polyline id="Path" points="57.637 72.312 58.448 70.536 56.668 69.726 55.857 71.503"></polyline>
            <polyline id="Path" points="56.879 66.948 57.69 65.171 55.91 64.362 55.099 66.139"></polyline>
            <polyline id="Path" points="42.902 59.544 46.769 57.344 44.563 53.485 40.697 55.685"></polyline>
            <polyline id="Path" points="46.522 64.32 49.624 62.555 47.854 59.459 44.753 61.225"></polyline>
            <polyline id="Path" points="48.897 56.31 51.999 54.545 50.229 51.448 47.128 53.214"></polyline>
            <polyline id="Path" points="50.982 60.701 53.396 59.326 52.019 56.916 49.604 58.29"></polyline>
            <polyline id="Path" points="54.124 53.974 56.538 52.599 55.161 50.189 52.746 51.563"></polyline>
            <polyline id="Path" points="53.387 64.192 55.803 62.818 54.426 60.407 52.01 61.782"></polyline>
            <polyline id="Path" points="55.124 58.334 57.539 56.96 56.162 54.549 53.747 55.924"></polyline>
            <polyline id="Path" points="56.591 61.506 58.29 60.539 57.321 58.844 55.622 59.81"></polyline>
            <polyline id="Path" points="59.12 56.713 60.82 55.746 59.851 54.051 58.151 55.018"></polyline>
            <polygon id="Path" transform="translate(54.576687, 40.578877) rotate(-83.898000) translate(-54.576687, -40.578877) " points="52.3556868 38.3538767 56.7976868 38.3538767 56.7976868 42.8038767 52.3556868 42.8038767"></polygon>
            <polygon id="Path" transform="translate(54.225455, 46.953338) rotate(-83.892000) translate(-54.225455, -46.953338) " points="52.4439553 45.1678376 56.0069553 45.1678376 56.0069553 48.7388376 52.4439553 48.7388376"></polygon>
            <polygon id="Path" transform="translate(60.846509, 41.843840) rotate(-83.892000) translate(-60.846509, -41.843840) " points="59.0645085 40.0583404 62.6285085 40.0583404 62.6285085 43.6293404 59.0645085 43.6293404"></polygon>
            <polygon id="Path" transform="translate(59.531633, 46.975374) rotate(-83.886000) translate(-59.531633, -46.975374) " points="58.1441329 45.5853736 60.9191329 45.5853736 60.9191329 48.3653736 58.1441329 48.3653736"></polygon>
            <polygon id="Path" transform="translate(66.017578, 43.344637) rotate(-83.910000) translate(-66.017578, -43.344637) " points="64.6300779 41.9546371 67.4050779 41.9546371 67.4050779 44.7346371 64.6300779 44.7346371"></polygon>
            <polygon id="Path" transform="translate(59.432958, 51.210284) rotate(-83.886000) translate(-59.432958, -51.210284) " points="58.0454581 49.8202841 60.8204581 49.8202841 60.8204581 52.6002841 58.0454581 52.6002841"></polygon>
            <polygon id="Path" transform="translate(64.277840, 47.471491) rotate(-83.886000) translate(-64.277840, -47.471491) " points="62.8903402 46.0814915 65.6653402 46.0814915 65.6653402 48.8614915 62.8903402 48.8614915"></polygon>
            <polygon id="Path" transform="translate(63.151899, 51.266888) rotate(-83.892000) translate(-63.151899, -51.266888) " points="62.1758993 50.2888879 64.1278993 50.2888879 64.1278993 52.2448879 62.1758993 52.2448879"></polygon>
            <polygon id="Path" transform="translate(68.017386, 48.855153) rotate(-83.927000) translate(-68.017386, -48.855153) " points="67.0413858 47.8766531 68.9933858 47.8766531 68.9933858 49.8336531 67.0413858 49.8336531"></polygon>
            <path d="M87.941,68.235 C85.611,66.893 82.369,66.503 79.01,67.733 C77.542,68.288 76.072,69.257 74.832,70.206 C74.051,65.471 74.432,61.076 74.614,58.917 C74.615,58.905 74.629,58.899 74.64,58.906 C76.317,59.961 75.847,62.909 75.495,63.752 C75.488,63.769 75.513,63.78 75.525,63.766 C77.615,61.298 76.594,58.573 76.165,57.883 C76.087,57.758 76.56,58.137 76.948,58.634 C78.409,60.494 77.734,62.583 77.897,62.534 C77.901,62.533 77.906,62.534 77.908,62.529 C78.879,60.624 78.567,58.208 76.57,56.463 C76.479,56.386 76.835,56.502 76.948,56.542 C78.651,57.133 79.539,58.887 79.527,60.451 C79.527,60.795 80.677,57.513 77.897,55.845 C77.377,55.534 76.843,55.363 76.494,55.321 C76.222,55.292 77.983,55.027 79.22,55.865 C79.963,56.366 80.158,56.972 80.139,56.802 C79.923,54.605 77.333,53.737 75.763,54.396 C75.597,54.479 76.381,53.317 77.897,53.407 C78.189,53.424 78.459,53.487 78.675,53.59 C78.69,53.597 78.704,53.577 78.693,53.564 C77.548,52.255 75.664,52.228 74.664,53.742 C74.657,53.752 74.642,53.752 74.636,53.742 C74.257,53.063 73.94,52.194 73.803,51.374 C73.77,51.164 73.7,52.389 72.94,53.742 C72.934,53.752 72.92,53.752 72.913,53.742 C71.91,52.224 70.028,52.254 68.884,53.564 C68.872,53.577 68.886,53.597 68.902,53.59 C69.666,53.227 71.109,53.334 71.832,54.371 C71.841,54.385 71.828,54.403 71.812,54.396 C70.194,53.716 67.652,54.639 67.437,56.802 C67.436,56.82 67.46,56.83 67.469,56.814 C67.541,56.679 67.719,56.391 68.052,56.099 C69.346,54.959 71.381,55.289 71.082,55.321 C70.287,55.419 68.655,56.127 68.052,57.745 C67.559,59.067 68.034,60.808 68.052,60.377 C68.068,58.906 68.911,56.936 70.992,56.434 C71.008,56.43 71.02,56.452 71.007,56.463 C67.773,59.306 69.729,62.797 69.699,62.521 C69.599,61.394 69.516,59.382 71.385,57.863 C71.399,57.852 71.421,57.867 71.411,57.883 C70.982,58.573 69.962,61.298 72.051,63.766 C72.063,63.78 72.088,63.769 72.081,63.752 C71.73,62.909 71.26,59.961 72.936,58.906 C72.947,58.899 72.961,58.905 72.962,58.917 C73.145,61.076 73.526,65.471 72.744,70.206 C70.088,68.176 67.473,66.845 64.105,66.993 C62.411,67.067 60.804,67.56 59.635,68.235 C59.593,68.259 59.624,68.32 59.669,68.306 C64.568,66.74 68.808,68.64 72.75,71.92 C70.759,73.655 68.952,75.471 67.902,76.019 C67.657,75.684 67.232,75.491 66.767,75.592 C65.891,75.785 65.682,76.882 66.157,77.354 C67.878,79.071 70.569,75.664 73.788,72.816 C76.886,75.554 79.701,79.07 81.419,77.354 C81.556,77.217 81.715,76.765 81.633,76.406 C81.426,75.51 80.235,75.251 79.674,76.019 C78.664,75.51 76.891,73.718 74.826,71.92 C78.796,68.611 82.99,66.764 87.906,68.306 C87.952,68.32 87.983,68.259 87.941,68.235" id="Path"></path>
            <path d="M72.265,115.108 L73.542,115.108 L73.542,103.672 L72.265,103.672 L72.265,115.108 Z M38.804,113.833 L36.809,108.942 C38.873,107.195 41.434,107.516 43.082,108.942 L41.087,113.833 L38.804,113.833 Z M31.764,113.833 C30.76,113.803 30.054,113.928 29.122,113.635 C25.671,112.545 26.609,107.747 30.471,107.747 L31.764,107.747 L31.764,113.833 Z M67.268,113.833 C65.211,113.77 63.358,114.196 62.415,112.559 C62.601,111.741 62.499,111.007 62.527,107.253 L61.25,107.253 L61.25,111.571 C61.25,114.74 57.426,114.534 56.524,112.631 C56.162,111.866 56.383,111.546 56.317,107.253 L55.039,107.253 L55.039,111.667 C55.039,113.107 54.138,113.833 52.884,113.833 L50.41,113.833 L50.41,107.253 L49.133,107.253 L49.133,113.833 L42.428,113.833 L44.663,108.496 C43.395,107.388 41.63,106.345 39.938,106.345 C38.219,106.345 36.488,107.343 35.212,108.496 L37.463,113.833 L33.041,113.833 L33.041,106.457 L30.998,106.457 C28.11,106.457 25.713,108.117 25.713,110.838 C25.713,115.681 31.654,115.084 31.764,115.108 C31.744,115.265 31.923,116.359 31.189,116.909 C30.503,117.423 29.278,117.408 28.515,117.228 C28.201,117.153 27.842,117.026 27.438,116.845 L27.039,118.072 C27.849,118.37 28.622,118.614 29.481,118.614 C31.915,118.614 33.041,117.4 33.041,115.347 L33.041,115.108 C53.883,114.977 53.267,115.408 54.537,114.71 C55.021,114.445 55.412,114.089 55.71,113.642 C56.019,114.152 56.439,114.551 56.971,114.838 C58.088,115.437 59.792,115.381 60.827,114.869 C61.364,114.604 61.777,114.195 62.064,113.642 C62.557,114.484 63.322,115.025 64.858,115.093 L64.858,115.108 L68.545,115.108 L68.545,103.672 L67.268,103.672 L67.268,113.833 Z M181.858,113.268 C180.728,115.909 176.838,115.985 175.712,113.228 C175.381,112.419 175.381,111.46 175.712,110.639 C177.075,107.261 182.122,108.231 182.122,111.938 C182.122,112.415 182.034,112.859 181.858,113.268 Z M169.47,113.268 C168.493,115.538 165.549,115.874 164.01,114.288 C162.747,112.982 162.784,110.855 164.003,109.572 C164.996,108.517 166.527,108.347 167.698,108.83 C169.544,109.6 170.159,111.667 169.47,113.268 Z M138.412,113.833 C137.435,113.803 136.727,113.931 135.801,113.627 C132.438,112.522 133.24,107.731 137.15,107.731 L138.412,107.731 L138.412,113.833 Z M187.389,113.833 L183,113.833 C184.37,110.826 182.242,107.301 178.737,107.301 C175.509,107.301 173.251,110.609 174.57,113.833 L170.611,113.833 C171.946,110.914 169.923,107.301 166.349,107.301 C163.119,107.301 160.863,110.61 162.182,113.833 L158.127,113.833 L158.127,103.672 L156.85,103.672 L156.85,113.833 L152.78,113.833 C152.71,112.524 153.077,110.587 151.981,109.364 C151.238,108.526 150.411,108.265 149.283,108.265 L143.632,108.265 L146.036,103.672 L144.647,103.672 L142.195,108.249 C142.274,108.757 142.428,109.154 142.77,109.539 C149.157,109.593 149.574,109.405 150.329,109.723 C150.921,109.968 151.282,110.415 151.407,110.958 C151.559,111.612 151.482,112.104 151.503,113.833 L139.689,113.833 L139.689,106.457 L137.677,106.457 C134.293,106.457 132.409,108.47 132.409,110.79 C132.409,113.697 134.747,115.108 137.677,115.108 L163.012,115.108 C164.891,117.132 168.054,116.96 169.781,115.108 L175.4,115.108 C177.273,117.126 180.433,116.967 182.17,115.108 L188.667,115.108 L188.667,103.672 L187.389,103.672 L187.389,113.833 Z M192.386,115.108 L193.663,115.108 L193.663,103.672 L192.386,103.672 L192.386,115.108 Z M98.288,117.914 L99.6,117.914 L99.6,116.605 L98.288,116.605 L98.288,117.914 Z M110.774,113.833 L108.778,108.942 C110.826,107.208 113.383,107.501 115.052,108.942 L113.057,113.833 L110.774,113.833 Z M119.825,113.833 L114.398,113.833 L116.632,108.496 C115.361,107.382 113.59,106.345 111.907,106.345 C110.182,106.345 108.456,107.348 107.181,108.496 L109.432,113.833 L104.676,113.833 L104.676,106.457 L103.398,106.457 L103.398,115.379 C103.398,116.506 103.316,117.339 102.185,117.339 C101.922,117.339 101.783,117.316 101.531,117.243 L101.196,118.471 C102.263,118.763 103.523,118.665 104.149,117.745 C104.715,116.912 104.648,115.762 104.676,115.108 L121.103,115.108 L121.103,103.672 L119.825,103.672 L119.825,113.833 Z M22.872,107.572 C21.452,106.022 19.808,106.584 19.248,106.457 L19.248,107.731 C20.18,107.767 20.611,107.628 21.243,107.93 C21.775,108.186 22.151,108.599 22.305,109.181 C22.478,109.85 22.381,110.372 22.409,113.833 L16.422,113.833 L16.422,115.108 L23.686,115.108 C23.633,110.278 23.818,109.766 23.486,108.687 C23.353,108.252 23.148,107.88 22.872,107.572 Z M93.619,117.929 L94.931,117.929 L94.931,116.62 L93.619,116.62 L93.619,117.929 Z M85.854,113.833 C84.879,113.803 84.17,113.931 83.243,113.627 C79.876,112.521 80.687,107.731 84.592,107.731 L85.854,107.731 L85.854,113.833 Z M99.583,106.457 L98.306,106.457 L98.306,113.833 L93.485,113.833 L93.485,106.457 L92.208,106.457 L92.208,113.833 L87.131,113.833 L87.131,106.457 C85.525,106.507 83.129,106.132 81.288,107.691 C78.678,109.902 79.351,115.108 85.12,115.108 L99.583,115.108 L99.583,106.457 Z M91.382,117.929 L92.694,117.929 L92.694,116.62 L91.382,116.62 L91.382,117.929 Z M6.037,103.672 L4.725,103.672 L4.725,104.981 L6.037,104.981 L6.037,103.672 Z M137.446,103.672 L136.134,103.672 L136.134,104.981 L137.446,104.981 L137.446,103.672 Z M87.125,103.672 L85.813,103.672 L85.813,104.981 L87.125,104.981 L87.125,103.672 Z M13.571,117.929 L14.883,117.929 L14.883,116.62 L13.571,116.62 L13.571,117.929 Z M84.888,103.672 L83.576,103.672 L83.576,104.981 L84.888,104.981 L84.888,103.672 Z M8.274,103.672 L6.962,103.672 L6.962,104.981 L8.274,104.981 L8.274,103.672 Z M11.334,117.929 L12.646,117.929 L12.646,116.62 L11.334,116.62 L11.334,117.929 Z M7.003,113.833 C6.03,113.803 5.317,113.931 4.393,113.627 C1.032,112.525 1.826,107.731 5.742,107.731 L7.003,107.731 L7.003,113.833 Z M14.634,106.457 L13.357,106.457 L13.357,113.833 L8.28,113.833 L8.28,106.457 C6.749,106.504 5.532,106.304 4.097,106.783 C2.894,107.187 1.911,107.93 1.375,109.07 C0.817,110.256 0.918,111.766 1.432,112.734 C2.357,114.48 4.292,115.108 6.268,115.108 L14.634,115.108 L14.634,106.457 Z M124.822,115.108 L126.099,115.108 L126.099,103.672 L124.822,103.672 L124.822,115.108 Z M139.682,103.672 L138.37,103.672 L138.37,104.981 L139.682,104.981 L139.682,103.672 Z" id="Shape" fill-rule="nonzero"></path>
            <polyline id="Path" points="2.251 123.484 3.854 123.484 3.854 128.062 8.193 123.484 10.161 123.484 6.369 127.399 10.33 132.588 8.389 132.588 5.275 128.491 3.854 129.948 3.854 132.588 2.251 132.588"></polyline>
            <polygon id="Path" points="11.792 123.484 13.395 123.484 13.395 132.588 11.792 132.588"></polygon>
            <polyline id="Path" points="15.863 123.484 17.349 123.484 22.236 129.779 22.236 123.484 23.812 123.484 23.812 132.588 22.47 132.588 17.44 126.111 17.44 132.588 15.863 132.588"></polyline>
            <path d="M25.797,128.062 L25.797,128.036 C25.797,125.487 27.752,123.327 30.501,123.327 C32.091,123.327 33.069,123.77 34.007,124.563 L32.991,125.773 C30.521,123.675 27.479,125.186 27.479,128.01 L27.479,128.036 C27.479,129.909 28.716,131.287 30.579,131.287 C31.44,131.287 32.222,131.014 32.782,130.598 L32.782,128.894 L30.449,128.894 L30.449,127.503 L34.333,127.503 L34.333,131.326 C31.071,134.113 25.797,132.681 25.797,128.062" id="Path"></path>
            <path d="M39.948,131.131 C44.202,131.131 44.151,124.94 39.948,124.94 L38.15,124.94 L38.15,131.131 L39.948,131.131 Z M36.547,123.484 L39.948,123.484 C46.456,123.484 46.368,132.588 39.948,132.588 L36.547,132.588 L36.547,123.484 Z" id="Shape" fill-rule="nonzero"></path>
            <path d="M54.155,128.062 L54.155,128.036 C54.155,126.267 52.865,124.798 51.053,124.798 C49.242,124.798 47.978,126.241 47.978,128.01 L47.978,128.036 C47.978,129.805 49.268,131.275 51.079,131.275 C52.891,131.275 54.155,129.831 54.155,128.062 M46.297,128.062 L46.297,128.036 C46.297,125.474 48.278,123.327 51.079,123.327 C53.881,123.327 55.836,125.448 55.836,128.01 L55.836,128.036 C55.836,130.598 53.856,132.744 51.053,132.744 C48.252,132.744 46.297,130.624 46.297,128.062" id="Shape" fill-rule="nonzero"></path>
            <polyline id="Path" points="57.827 123.484 59.534 123.484 62.31 127.789 65.085 123.484 66.792 123.484 66.792 132.588 65.189 132.588 65.189 126.059 62.31 130.351 62.258 130.351 59.404 126.085 59.404 132.588 57.827 132.588"></polyline>
            <path d="M80.506,128.062 L80.506,128.036 C80.506,126.267 79.216,124.798 77.404,124.798 C75.593,124.798 74.329,126.241 74.329,128.01 L74.329,128.036 C74.329,129.805 75.619,131.275 77.43,131.275 C79.242,131.275 80.506,129.831 80.506,128.062 M72.648,128.062 L72.648,128.036 C72.648,125.474 74.629,123.327 77.43,123.327 C80.232,123.327 82.187,125.448 82.187,128.01 L82.187,128.036 C82.187,130.598 80.206,132.744 77.404,132.744 C74.603,132.744 72.648,130.624 72.648,128.062" id="Shape" fill-rule="nonzero"></path>
            <polyline id="Path" points="84.179 123.484 90.968 123.484 90.968 124.941 85.782 124.941 85.782 127.425 90.382 127.425 90.382 128.881 85.782 128.881 85.782 132.588 84.179 132.588"></polyline>
            <path d="M96.027,131.262 L96.991,130.117 C97.864,130.872 98.737,131.301 99.871,131.301 C100.861,131.301 101.487,130.846 101.487,130.156 L101.487,130.131 C101.487,128.097 96.391,129.485 96.391,126.02 L96.391,125.994 C96.391,123.2 100.302,122.487 102.816,124.499 L101.956,125.708 C99.858,124.147 97.995,124.761 97.995,125.852 L97.995,125.878 C97.995,127.883 103.09,126.615 103.09,129.974 L103.09,130 C103.09,133.192 98.564,133.521 96.027,131.262" id="Path"></path>
            <path d="M110.296,128.973 L108.719,125.331 L107.155,128.973 L110.296,128.973 Z M108.002,123.419 L109.487,123.419 L113.501,132.588 L111.807,132.588 L110.882,130.39 L106.568,130.39 L105.631,132.588 L103.988,132.588 L108.002,123.419 Z" id="Shape" fill-rule="nonzero"></path>
            <path d="M114.444,128.726 L114.444,123.484 L116.047,123.484 L116.047,128.661 C116.047,130.352 116.92,131.262 118.353,131.262 C119.774,131.262 120.647,130.404 120.647,128.726 L120.647,123.484 L122.25,123.484 L122.25,128.648 C122.25,131.366 120.712,132.732 118.327,132.732 C115.955,132.732 114.444,131.366 114.444,128.726" id="Path"></path>
            <path d="M127.997,131.131 C132.251,131.131 132.201,124.94 127.997,124.94 L126.199,124.94 L126.199,131.131 L127.997,131.131 Z M124.596,123.484 L127.997,123.484 C134.505,123.484 134.417,132.588 127.997,132.588 L124.596,132.588 L124.596,123.484 Z" id="Shape" fill-rule="nonzero"></path>
            <polygon id="Path" points="134.875 123.484 136.478 123.484 136.478 132.588 134.875 132.588"></polygon>
            <path d="M148.352,128.973 L146.775,125.331 L145.211,128.973 L148.352,128.973 Z M146.058,123.419 L147.543,123.419 L151.557,132.588 L149.863,132.588 L148.938,130.39 L144.624,130.39 L143.687,132.588 L142.044,132.588 L146.058,123.419 Z" id="Shape" fill-rule="nonzero"></path>
            <path d="M157.02,127.997 C158.167,127.997 158.897,127.399 158.897,126.475 L158.897,126.449 C158.897,125.474 158.193,124.94 157.007,124.94 L154.675,124.94 L154.675,127.997 L157.02,127.997 Z M153.072,123.484 L157.137,123.484 C159.065,123.484 160.526,124.453 160.526,126.358 C160.489,126.458 160.716,128.466 158.349,129.142 L160.812,132.588 L158.922,132.588 L156.681,129.414 C156.506,129.414 154.572,129.414 154.675,129.414 L154.675,132.588 L153.072,132.588 L153.072,123.484 Z" id="Shape" fill-rule="nonzero"></path>
            <path d="M168.299,128.973 L166.722,125.331 L165.158,128.973 L168.299,128.973 Z M166.005,123.419 L167.491,123.419 L171.504,132.588 L169.81,132.588 L168.885,130.39 L164.571,130.39 L163.634,132.588 L161.991,132.588 L166.005,123.419 Z" id="Shape" fill-rule="nonzero"></path>
            <path d="M177.253,131.171 C178.348,131.171 179.012,130.741 179.012,129.922 L179.012,129.896 C179.012,129.129 178.4,128.673 177.136,128.673 L174.595,128.673 L174.595,131.171 L177.253,131.171 Z M176.784,127.321 C177.813,127.321 178.504,126.918 178.504,126.085 L178.504,126.059 C178.504,125.344 177.931,124.902 176.901,124.902 L174.595,124.902 L174.595,127.321 L176.784,127.321 Z M173.018,123.484 L177.11,123.484 C178.714,123.484 180.107,124.234 180.107,125.799 C180.07,125.899 180.271,127.093 178.804,127.854 C179.873,128.218 180.615,128.83 180.615,130.065 L180.615,130.091 C180.615,131.717 179.273,132.588 177.24,132.588 L173.018,132.588 L173.018,123.484 Z" id="Shape" fill-rule="nonzero"></path>
            <polygon id="Path" points="182.6 123.484 184.203 123.484 184.203 132.588 182.6 132.588"></polygon>
            <path d="M192.041,128.973 L190.464,125.331 L188.9,128.973 L192.041,128.973 Z M189.747,123.419 L191.232,123.419 L195.246,132.588 L193.552,132.588 L192.627,130.39 L188.313,130.39 L187.376,132.588 L185.733,132.588 L189.747,123.419 Z" id="Shape" fill-rule="nonzero"></path>
        </g>
    </g>
</svg>